<svg xmlns="http://www.w3.org/2000/svg" width="245" height="276" fill="none" viewBox="0 0 245 276">
  <g class="blossom2">
    <path fill="#fff" d="m34.5 132 9-2.5 7.5-1 7.5.5-1.5-2-1-4 3 2 .5-1.5-.5-3-.5-2.5 1-1.5L62 118l1.5-2-1.5-2-2-1.5-4.5-10L52 87c-.167-1.333-.2-4.3 1-5.5l7 1.5c3 1.833 10.2 6.5 15 10.5l6.5 11 4 13.5c1.5-1.833 5.9-6.9 11.5-12.5l15-2.5 8-3c2.833-2 9-2.5 14-3l9 2 6 3.5c-.167-3.5-.4-12 0-18l-4.5-10-4-1L131 76l-2-.5c-2.5-5.5 30-28 41 22.5-2.167 1.833 11.7-4.1 12.5-2.5l20 3.5c4 2.833 14 2 14 27.5-5.5 7-5.5 7.5-8.5 7.5-.333 0-.8-2.1 0-10.5-1-1.5.5-6.5-20.5-4-4.667.5 7.5 4 14 16.5l3 13.5c1 13-3.7 16.2-8.5 23l-6.5 3-1-3c.5-2.5 1-2 3-7l-2-4-7-10c-1.333-1.833-5-6.7-9-11.5v11l-5 13.5-6 6.5-9.5 7.5-6.5 2.5-2-1.5 4-3.5-.5-4.5v-9l-1-4.5-4.5-12 .5-8.5 5-10-5-1-20-6-9.5 1-13.5 7-3.5-.5-8 3 8 1 10 3.5 8 6.5 5 10v9l-3.5 9-1 10-7-11.5-11.5-10-16-8.5-1 8.5L73 170l-5 14 1 13-8-6-8-15v-11l4.5-14.5-12.5 2-6.5-.5-13-3.5-8 3.5 6.5-13 10.5-7Z" class="blossom"/>
    <path fill="#fff" d="M76 76c-4.8-6-2-13.833 0-17 4.5-9.5 10-5.5 10-6s13.5-1.5 12.5 13.5-6 7-4.5 13 0 7-4 9-8-5-14-12.5ZM110 30.5c-1.6-2.8.667-7.5 2-9.5 2-18.5 7.5-17 14-19.5 3.5-1.346 14.474 0 12.5 7.5-5 19-11.5 18.5-12.5 21.5s-5 4.5-9 5-5-1.5-7-5ZM119 199.5c0-3.2 2.5-6 7.5-6 .5-4 5.976-9.233 15.5-8.5 14.5 2 13 2 20.5 2 3.5 3 0-1 5 3-6 11.5-10.5 14-25 17-6.8.8-12.167-2.333-14-4-2.333.167-7.2.4-8 0-1-.5-1.5.5-1.5-3.5ZM114.5 62c-1.6-3.6 0-5.167 1-5.5.333-.333.6-1.5-1-3.5-2-2.5 4-11 4.5-12 .4-.8 8.5-6.333 12.5-9 1.5-.5 4.8-1.2 6 0 1.5 1.5 2 1.5 3.5 4.5s-1.5 8.5-4.5 14.5c-2.4 4.8-3.667 6.333-4 6.5-1.167 0-3.5.4-3.5 2 0 2-2 7-7.5 8s-5-1-7-5.5Z" class="blossom"/>
    <g class="sketch">
      <path stroke="#FBB040" stroke-linecap="round" stroke-linejoin="round" stroke-width=".16" d="M130.265 209.272c.008-.015.019-.03.021-.045" class="Vector"/>
      <path fill="#fff" d="M81.973 259.134c.058-.04.053-.034 0 0Z" class="Vector"/>
      <path stroke="#FBB040" stroke-linecap="round" stroke-linejoin="round" stroke-width=".16" d="M71.883 134.828a1.675 1.675 0 0 0-.057-.074M67.96 113.77a.34.34 0 0 0 .016.049M45.861 146.717c-.013.009-.015.014-.018.018" class="Vector"/>
      <path stroke="#212121" stroke-linecap="round" stroke-linejoin="round" stroke-width=".16" d="M119.91 33.444c.061-.028.099-.042.102-.044M117.282 34.758c.004-.002.055-.009.139-.015M106.242 85.01l.015.13" class="Vector"/>
      <path fill="#212121" d="M102.053 63.194c.049-.263.036-.225 0 0Z" class="Vector"/>
      <path stroke="#212121" stroke-linecap="round" stroke-linejoin="round" stroke-width=".16" d="m68.397 196.353.017-.005M79.194 152.816c-.005.047-.009.066-.009.066" class="Vector"/>
      <path fill="#212121" d="m68.796 196.127.002-.004c-.036.034-.061.053-.002.004ZM68.805 196.123c.036-.032.06-.051 0-.004v.004ZM94.16 132.446h-.021c.112.023.148.023.02 0Z" class="Vector"/>
      <path stroke="#212121" stroke-linecap="round" stroke-linejoin="round" stroke-width=".16" d="m154.845 176.562.112-.078" class="Vector"/>
      <path fill="#212121" d="M143.984 140.089c-.002.002-.002.008-.004.012-.007.034-.002.028.004-.012Z" class="Vector"/>
      <path stroke="#212121" stroke-linecap="round" stroke-linejoin="round" stroke-width=".16" d="m121.398 100.241.156-.06M191.615 170.437s.007-.034.017-.11M200.123 165.181c-.045.098-.064.14-.062.138M210.661 121.775a.54.54 0 0 1-.059-.032M216.334 116.792c.036.063.055.093.053.093M142.834 73.152c.005.002-.031-.03-.112-.106" class="Vector"/>
      <path fill="#212121" d="M216.556 46.324c.154-.174.124-.136 0 0ZM188.469 75.96c-3.414.566-2.947.807-.077-1.084 3.091-.647 2.794-.969.077 1.084Zm12.21-15.925c1.357-1.077 1.3-1.288-1.856.6-.939.296-1.947.6-3.049.91-6.936 1.856-4.009 1.581.509.619-6.954 4.145-7.259 4.022-7.434 4.286-2.94.666-2.752.626-2.857.8-.726 1.199 1.996.381 8.457-1.145-2.319 1.428-4.07 2.44-5.37 3.153-12.25 2.91-9.962 1.23-10.446 2.03-.677 1.123 3.58.454 6.883-.193-.278.166-1.452 1.863 3.431-.73 6.704-1.533 6.324-1.944 2.752.266-20.524 4.394-15.167 4.507-2.71 1.686-1.488.939-2.818 1.801-3.486 2.3-9.014 1.998-5.113 1.802.818.674-1.809.956-4.341 2.338-7.752 4.245-4.243.944-6.222 1.267-6.382 1.533-.732 1.212 4.949-.217 10.861-1.652.583-.142.356-1.013-.212-.873-1.643.4-1.3.53 2.547-1.786-.318.992 1.992.33 7.522-.67.53-.096.414-.986-.213-.871-2.874.513-2.253.783.749-1.531 5.743-1.535 3.39-1.827 3.181-1.771-3.179.907-8.444 2.129-9.093 2.258 6.266-3.285 1.928-1.907 8.26-3.474 1.454-.351 2.473-.551 3.09-.769-2.673 4.482-4.556 7.74-4.83 8.108-8.377 11.496-13.083 13.303-14.285 15.982-2.182.198-7.096 1.207-8.2 3.078-.06-.008-.101-.242-.579-.417.325-.168.444-.422.389-.668 1.501-.28 2.803-.684 2.726-.993-.175-.717-3.113.64.322-.892 1.516-.377 3.732-1.173 2.364-1.19 1.093-.71-.523-.098-4.057.469 1.292-.522 8.141-1.371 7.955-2.191-.085-.345-2.852.13-2.773.11-.598.145 1.435-.604 1.484-.804 3.42-.62 3.836-.628 3.693-1.195-.166-.74-.751-.1-5.926.671-5.378.788-4.23.896-.165-1.252a483.56 483.56 0 0 0 8.286-1.486c.542-.1.416-.988-.211-.873-7.795 1.474-6.307 1.529-3.715-.138 4.985-1.31 8.134-2.519 1.964-1.203-1.676.388-3.913.826-6.153 1.235 5.722-2.717 12.628-2.976 12.342-4.145-.136-.603-.149-.43-6.714 1.256 1.262-.709 2.261-1.328 2.769-1.746 6.65-1.637 9.755-2.804-3.593-.047 14.078-7.204 9.618-5.848-4.665.98-2.957.6-6.446 1.207-8.918 1.358-.497.062-2.229 1.558 5.818.149a86.695 86.695 0 0 0-2.765 1.41c-2.188.136-3.392.102-3.433.61a27.644 27.644 0 0 0-3.414-8.946c19.954-18.436 18.523-18.23 51.443-33.58-13.56 17.121-5.694 13.238-15.359 16.455Zm-4.529 4.743c-6.123 1.42-4.49 1.703 2.315-3.104 7.596-1.803 7.171-2.833 5.847-.709-1.571.043-7.12 1.963-7.201 2.095-.329.547.459.564 1.629.33-.799.518-1.552.999-2.259 1.444a.431.431 0 0 0-.331-.056Zm-1.635 5.259c2.891-1.803 2.713-1.595 2.839-1.829 5.092-1.563 2.991-1.85 2.806-1.801a409.446 409.446 0 0 1-7.861 2.063c3.971-2.342 8.143-5.084 8.198-5.267.188-.569.845-.298 3.354-1.492-.265.432-.532.864-.792 1.294-4.597 1.213-4.639 1.93-.647 1.058-3.896 6.385-1.699 4.72-7.897 5.974Zm-20.882 34.721c.008-.064.012-.042.004-.006l-.004.006Zm-.003.019c0-.002.007-.01.007-.01-.015.087-.03.128-.007.01Zm4.129 5.957c.05.113.062.186 0 .002v-.002Zm-.002-.006.002.002c0 .002-.002-.002-.002-.002Zm-.143-.179c1.01.698-3.458 1.908-3.243 1.546-.683-.024.677-.984 1.986-1.271.038.049 1.063.089 1.257-.275Zm-17.028 8.212c.228-.164.175-.124 0 0Zm21.034-5.768-.011-.006c.1.017.117.023.011.006Zm-2.501 1.143c3.703-2.316 1.405-.051 0 0Zm4.339 2.447c-.534-.043 1.785-1.05 2.739-1.406-.346 1.148-2.904 1.678-2.739 1.406Zm27.345-10.83c1.644 1.694 2.517 4.664 3.036 7.151-1.17-1.537-2.998-3.249-5.84-4.959-4.667-2.803-9.323-4.028-18.081-2.571-.551.089-.6.798-.506.645.092.809 20.15-3.243 25.197 11.832.195.582.472.726.698.571.995 1.867.477 5.058-.664 8.013.479-5.269-3.603-10.621-21.006-8.064-1.656.245-7.235-.39-11.4.545.493-.428.811-.779 1.018-1.077.969.33 3.111-.307 4.086-1.997.666-1.239-.636-4.314-4.701-.624-1.857 1.081-1.189 1.867-.474 1.963-4.129 3.977-13.709 9.329-20.137 6.427a5.661 5.661 0 0 0-1.074-.394c7.515-.413 18.098-6.054 18.643-7.811 1.447-.281 3.298-1.471 3.063-2.987-.405-3.063-6.044-.11-4.637 2.627a.674.674 0 0 0 .378.326c-3.655 1.937-15.581 8.671-19.99 6.019a2.41 2.41 0 0 0-.591-.209c7.41-5.427 12.186-7.434 14.689-8.544.38.629 1.509.959 3.176.669 5.477-1.052 3.414-5.365.082-4.096-7.563 3.036-14.508 7.583-19.279 10.525 4.15-6.991 6.714-7.655 13.258-11.445 3.433.63 3.292-1.816 2.037-1.524-1.384.279.42-.224 1.291-.905.071.502.78.775 1.132.392 2.131-2.498-.675-2.783-.566-1.644.064-.104.017.081-.115.313-.53-1.252-3.499.649-4.343 1.931-3.401 1.516-9.932 6.464-12.85 10.01 1.112-6.391 15.28-14.008 18.73-14.002.959-.006.89-1.298.079-1.324-1.992-.053-9.637 3.059-15.052 7.813 4.023-5.588 8.156-7.517 10.005-8.677 1.061 1.507 8.106.715 7.464-2.962-.092-.606-.555-.877-1.174-.945 9.729-2.88 28.822 3.877 34.418 8.989Zm-1.091 26.482c.234-.243.168-.183 0 0Zm-1.965-11.748c2.17.637 3.929 1.654 4.988 3.215 1.774 3.396-2.317 7.309-3.805 9.47-3.053-1.131 2.806-7.756-1.183-12.685Zm-4.69-.807c.395-.019.297-.006 0 0Zm-10.365 53.902c3.832-6.573-3.233-13.245-4.868-15.346-1.266-1.778-5.656-10.309-10.223-14.339-3.915-4.466-2.25-.374-3.39-5.644 3.194 2.743 2.805 2.466 3.89 3.539.173.179 1.877.398-.798-2.036-4.407-3.955-2.742-.655-3.833-4.479 10.97 7.779 11.171 12.231 12.334 11.48 1.802-1.21-9.59-10.667-12.769-12.913-.19-.581-.38-1.139-.577-1.658 2.088 1.797 2.362 2.12 2.712 1.724.414-.447.021-.615-3.322-3.421-.233-.189-1.638-3.538-3.322-4.901 1.998-.349 4.334-1.09 6.998-2.414 6.578 3.719 11.241 3.781 19.644 15.933 8.237 14.656 2.861 20.221 5.128 20.483 2.842.279 1.403-27.23-21.911-36.738-1.719-.685-1.68-.24-.124-1.183.13.668.56.577 6.533-.432 24.58 9.993 21.764 46.019 7.898 52.345Zm16.687-16.809c5.877-.568 3.448-1.816.339 6.543-.211.547.63.877.845.319.857-2.423 2.904-5.723 3.491-7.383 24.348-3.06 23.594-8.569 17.257 1.373-7.931 7.351-7.673 8.578-.39-3.707.32-.564-.468-.966-.737-.515-7.931 13.359-7.654 12.508-8.749 13.56 6.966-12.327 3.777-9.764 3.871-9.915-5.978 12.74-6.074 12.027-8.267 14.111-7.742 6.321-7.349 6.414-6.843 5.52 2.859-2.878 3.85-4.081.797-1.437 1.236-2.229 2.788-5.048 4.716-8.58.301-.57-.508-.96-.762-.483.038-.057-2.848 5.514-5.191 10.151-7.767 6.919-6.599 6.783-3.96 1.778 8.196-15.646 4.757-11.043 4.379-10.707-3.373 6.917-5.241 10.715-8.715 16.5-5.636 5.209-4.979 5.454-.591-2.283 1.823-2.031 1.488-1.85.459-.811 9.263-16.401 6.584-14.321 6.351-13.876.064-.105-5.269 9.635-9.086 16.555a672.59 672.59 0 0 1-3.493 3.37c10.732-19.14 4.957-12.476 5.73-13.734-10.331 19.595-6.518 14.643-14.838 22.339 4.994-5.557 5.619-7.113.472-1.82.677-1.148 1.43-2.453 2.278-3.971 2.376-4.23 3.166-4.405 2.489-4.809-.809-.52-2.21 2.836-6.364 9.563-7.116 6.477-7.195 8.938 2.472-8.098.308-.539-.487-.965-.758-.482.06-.1-1.729 3.317-4.94 8.685-2.238 2.399-5.952 7.193-8.621 10.704 3.892-5.733 12.173-19.936 11.926-21.117-.165-.816-.918.019-.824-.134-9.273 18.728-14.115 22.697-13.096 23.567a278.006 278.006 0 0 1-4.044 2.472c2.831-3.2 15.551-27.049 15.018-27.37-.562-.362-10.961 19.412-12.26 20.711-6.663 6.966-3.522 5.971 7.753-18.923.187-.425-.551-.934-.859-.268.092-.151-6.541 15.177-13.627 26.08-5.359 5.344-3.973 4.411-9.208 6.536 1.853-1.265 6.936-5.823 7.226-6.136 5.5-5.101 5.618-6.874 2.518-4.041 2.519-4.713 5.591-11.605 5.978-12.486.16-.428-.44-.79-.765-.37-.269.762-5.055 10.265-7.289 14.841-22.417 22.1 2.838-3.618-.689-2.749-.002 0-.696.822-1.736 2.048 1.744-3.325 4.281-8.809 4.129-9.772 3.704-3.447 6.708-7.162 5.487-9.139-.139-.233-3.969-2.777-6.1-3.256-1.729-.374-2.752.134-7.466-.13-8.113-1.03-15.436-2.899-22.844 1.114-2.592 1.373-5.976 3.783-6.964 6.674-.126-.106-.37-.196-.771-.266-3.369-.594-6.13 5.176-5.647 4.379-2.782 5.917 4.084-.502-7.31 6.404 4.957-7.704-2.391-.762 9.328-12.765-9.117 15.433 1.558.864 1.641-1.644a99.063 99.063 0 0 1 5.097-4.679c-10.959 18.024 1.821-.277 1.97-1.627 5.024-4.011 9.11-6.252 12.195-7.626-6.428 6.302-6.571 8.665-6.183 8.018.553.424.459-.102 4.07-4.311 4.472-5.182 2.561-3.998 5.508-5.067-6.604 7.664-5.679 7.884-5.555 7.681.661.479.625-.508 6.424-7.298 3.48-4.207-3.094 4.582-3.021 4.465-.066.11-.135.46.239.666-.325 3.185 6.01 3.498 14.708-3.017-4.099 7.032-1.375 5.585 2.162-1.709a44.61 44.61 0 0 0 4.379-4.265c-2.671 3.952-6.862 10.383-5.875 10.756.726.26.835-1.716 7.816-11.997 1.01-.238 2.167-.707 3.111-1.139-8.632 13.575-7.62 13.466 1.475-.636a72.307 72.307 0 0 1 2.406-.969c-2.968 5.305-3.678 5.58-3.089 5.98.536.371.779.019 4.114-5.971.226-.43-.69-.322 3.685-1.64-5.856 5.968-1.554 4.624 1.364-.389a37.381 37.381 0 0 1 4.462-.946c-1.558.345-4.84 8.972.216.616.126-.207.115-.594-.113-.631a24.016 24.016 0 0 1 4.746-.217c.873 1.378 1.605 2.538 2.152 3.379-.987 3.568-5.423 4.931-3.371 8.727 1.765 2.936 13.886-.769 17.127-17.23.008-.051 2.694-1.397 4.635-1.644Zm-106.38 57.966c-8.944 19.557-9.166 22.75-25.793 39.32.386-.771 7.895-24.115 25.793-39.32Zm17.539-15.731c.305-1.118 1.027-2.042 1.831-2.795-.486.564-1.398 1.847-1.831 2.795Zm5.215-1.382c3.124 5.412 1.07 2.242.865 4.369-1.447.274-2.906.434-4.379.4.327-.294.765-.792 1.437-1.465.662-.638-.698-1.618-2.327 1.075-.137.222.077.826-.316-.5 3.249-2.44 3.474-6.174-.224-.732-.077-.247-.15-.49-.229-.739.775-.532 3.658-4.454 2.116-4.113.959-.833 1.956-1.45 2.423-1.901-.241 1.147-.102 2.359.634 3.606Zm19.713 8.163c-5.402.821-13.12-.68-15.325-2.972 6.213.577 28.421-3.285 36.107-10.856-8.735 12.733-20.678 13.711-20.782 13.828Zm4.863 12.371c-4.112 1.584-3.616 1.644 1.533-3.389.446-.454-.224-1.052-.613-.656-1.095 1.082-1.076 1.403 1.909-3.351 4.039-6.683 5.229-10.417-5.024 6.453-5.766 5.844-3.202 2.508-.544-1.848 5.685-5.352 5.064-5.629 1.734-2.861 1.535-2.566 2.997-5.082 3.843-6.732 7.064-3.253 6.573-8.442 1.84 5.109-.826 1.429-3.568 5.989-4.678 7.275Zm26.019-15.522c1.599-1.972 1.52-1.967.683-.673l-.683.673Zm.85.956c-.54.349-.504.457.233-.641 4.15-3.949 4.831-4.976-.233.641Zm13.318-10.245c-4.759 3.828-9.964 8.682-8.175 6.555 8.228-6.114 10.295-11.171 8.175-6.555Zm3.328-4.277c4.928-5.063 5.109-6.063 1.331.566-4.751 4.269-2.981 2.295-1.331-.566Zm14.832-10.879c.286-.281.333-.345.254-.217a19.09 19.09 0 0 1-.254.217Zm24.977-22.727c3.254-5.586.487-2.942 6.149-5.516a411.04 411.04 0 0 0-6.149 5.516Zm-39.057 37.479a414.068 414.068 0 0 0 18.288-15.244c-8.006 7.56-27.255 23.357-18.288 15.244Zm-94.43 45.885c-1.76 2.815-1.403 2.276-2.823 3.241.908-1.012 1.87-2.119 2.823-3.241Zm29.687-23.346c-1.753 2.8-.573 1.386-5.103 5.727.147-.245.29-.483.442-.743 9.424-16.253 4.701-10.392 5.07-11.194-2.401 4.351-2.939 5.625 1.188-2.891 3.81 1.664 2.021-1.246-1.597 9.101Zm7.654-7.709c2.48.192 2.213-.95-.904 4.914-4.588 4.468-2.839 2.884-3.166 2.665-.13-.077.346.149-7.139 7.281 4.475-6.715 2.953-4.877 4.332-6.361 2.984-3.162 2.5-2.889.39-.973 1.988-3.16 2.509-3.649 1.7-3.849 2.267-5.063 1.095-4.052 3.839-3.76a659.464 659.464 0 0 1-3.333 6.804c-.079.158-.504 3.428 4.281-6.721Zm6.232 7.645c-6.845 3.771-6.773 8.069 1.114-7.781a43.466 43.466 0 0 0 3.354-.464c-1.104 2.037-2.833 5.216-4.468 8.245Zm-1.153 3.113c8.251-14.071 5.461-10.941 9.383-12.274-6.685 10.617-2.551 5.91-9.383 12.274Zm-1.822 3.085c.624-1.018-.424.327 4.369-3.99-2.287 3.755-1.377 2.951-4.369 3.99Zm40.213-20.047c.245-.183.194-.147 0 0Zm-72.863 32.252c1.77-2.499 1.478-2.214.931-.928-.316.315-.628.623-.931.928Zm-2.513 2.555c-2.175 1.341-2.408 1.833.756-1.329.12.586.758-.242-.756 1.329Zm2.148-1.282c.899-.826.692-.728.594-.343l-.594.343Zm1.657-.928c.655-1.371.068-.664 2.519-2.964-1.772 2.889-1.102 2.191-2.519 2.964Zm8.783-4.233c-2.233.944-2.101 1.32 1.527-2.32-.47.719-.97 1.484-1.527 2.32Zm3.164-1.294c-.275.115-.22.113.051-.138-.012.038-.034.083-.051.138Zm6.328-5.32c-5.777 4.93-4.833 4.283-3.973 3.078 6.174-5.714 6.177-6.282 3.973-3.078Zm9.772-10.175c1.031-1.019 1.147-1.577-1.407 3.096-1.116.932-1.055 1.441 1.407-3.096Zm-6.889 7.722c2.062-3.259.476-1.403 4.771-5.635-1.443 3.238 1.755.087-4.771 5.635Zm-3.615 5.276c3.371-4.452-1.048.468 7.976-7.833-1.481 2.787-.008 1.267-7.976 7.833Zm9.116-2.866c3.559-5.039 2.097-2.352 7.36-7.279a503.305 503.305 0 0 0-1.883 3.515c-3.803 3.583-2.223 2.574-5.477 3.764Zm4.089-1.448c.331-.247.312-.276.203-.072-.069.028-.137.049-.203.072Zm-8.171 3.096c4.766-3.151 4.112-3.555 3.134-1.292a48.007 48.007 0 0 0-3.134 1.292Zm-8.119 2.765c2.195-1.643 2.067-1.818 1.091-.389a92.23 92.23 0 0 0-1.091.389Zm-11.546 4.952c.406-.696-.38.59 1.657-2.872-1.514 3.107-1.187 2.645-1.657 2.872Zm21.706-10.832c4.578-3.804 4.215-4.173 2.71-1.39-6.743 5.063-11.664 8.65-3.886 2.357.047.766.773-.311 1.176-.967Zm-7.231-1.475c-3.382 5.32-2.329 4.119-6.43 7.886 3.738-5.431.207-1.361 6.43-7.886Zm-10.822 9.474c-3.1 3.117-2.231 2.972.48-2.885 2.883-2.734 4.354-4.799-.48 2.885Zm65.012-28.965c.113.228.511-.142-.58.598.192-.195.384-.396.58-.598Zm-38.094 6.949c.416-.025.824-.055 1.232-.091-6.32 10.47-3.828 7.479-8.472 11.272.433-.774.942-1.698 1.539-2.791 2.046-1.982 4.025-4.198.886-1.622l2.159-3.975c.301-.57-.517-.951-.764-.477.091-.151-.082.156-.41.735-.351-.27-.673.564 1.172-2.787.173-.294-.602-.119 1.885-.228.064.269.572.324.773-.036ZM108.063 221.5c-.233-.892 1.571-6.142 2.98-12.59 4.151-2.534 7.379-3.875 8.993-4.931 1.006.419 2.844.573 5.903-.111 2.701-.581.523-.147 4.723 2.108-.818 1.62-4.751 9.082-4.127 9.41.175.081.286.13.482-.106-4.97 9.342-4.389 7.934-8.905 12.399.479-.86 8.865-16.114 8.019-16.621-.845-.583-2.7 4.788-6.121 11.564-3.091 2.4-3.023 3.258-2.032.884.113-.253-.101-.479-.352-.532 5.997-11.906 1.821-6.223 2.527-7.392-1.648 3.802-3.11 6.723-4.483 9.229 1.05-2.81 1.951-5.442 2.272-6.444.145-.443-.402-.703-.709-.441.138.177-2.643 6.84-4.514 11.366-.647.626-1.3 1.261-1.942 1.891.599-1.35.083-.671 2.416-3.053.359-.362.009-1.294-.956-.306 6.17-14.499.147-4.207 10.824-21.358.318-.492-.44-.98-.766-.475-10.323 16.585-4.695 7.33-11.817 23.621-8.246 8.386-3.115 3.493-1.397-.454.558-.947.701-1.06.581-1.337 4.253-9.936 2.035-7.383 1.896-7.336-1.484 3.945-4.629 12.863-10.547 18.618a109.818 109.818 0 0 0 2.62-4.456c3.328-4.13 5.256-6.9 1.817-3.249 4.127-7.39 4.007-7.319 3.623-7.581-.643-.388-3.032 4.741-6.164 10.368a376.303 376.303 0 0 0-3.747 4.241c-.032.034 9.061-16.263 8.903-16.926Zm-14.746 21.952c6.5-7.63 7.116-9.991 1.979-.587-1.967 2.269-.263.709-5.705 4.773 1.768-1.861 1.125-.42 3.726-4.186Zm75.653-37.991c-3.245 6.084-1.281 4.245-8.188 8.207 2.267-2.18 5.034-4.946 8.188-8.207Zm-11.26 4.006c-5.577 6.575-.391.733-1.525.177 5.801-11.969-.079-5.222 5.966-10.604-2.601 5.797-3.935 8.986-4.441 10.427Zm-2.688-21.726c6.317.456 5.89-1.496 11.725 2.121-4.157 2.414-4.078 5.842-24.193 10.11-1.311.186-11.578 1.352-13.408.88-.38-2.772-3.939-4.684-2.609-6.886 6.815-10.706 24.315-6.533 28.485-6.225Zm-65.053 35.124c-.036.087-.006.007-.006.007.002-.005.006-.007.006-.007Zm60.345 16.427c1.591-.055 4.358-.609-5.619 1.882-.502-.649-2.156.296 5.619-1.882Zm80.523-71.29c-.418-.015-.969 1.013-3.631 3.902-.654.289-2.086 1.216-3.76 2.367 3.471-3.206 9.296-9.41 8.86-9.857-.367-.362-11.149 10.888-11.337 11.59-10.493 7.471-4.389 4.869 3.828-1.599-3.424 3.413-5.333 4.737-5.235 5.357-15.986 9.94-15.45 10.323 2.919-.783a665.934 665.934 0 0 0-3.465 3.397c-6.518 4.326-18.419 12.212-18.348 12.097.087.128 8.044-4.505 15.338-9.093-4.981 5.044-4.574 5.084 2.792-1.773 3.22-2.074 7.633-5.608-3.478 4.598-12.327 6.636-34.057 19.419-2.929 2.572-5.049 4.196-5.925 3.488-6.39 4.258-.367.609-.427.92-.26 1.011-22.802 10.931-20.752 11.852 3.998-1.149a103.505 103.505 0 0 1-5.982 4.762c-.457.337-10.978 4.733-10.393 5.625.408.594.468-.077 6.478-2.848.456 1.364 11.473-7.29.454 1.377-7.163 3.113-7.293 4.075-7.118 4.192-9.816 2.791-5.395 2.665 2.063.526a443.141 443.141 0 0 1-4.872 2.629c-18.289 4.028-14.48 3.947-3.472 1.833-5.724 3.002-2.461 2.014-14.75 4.111-2.957.547-11.324 3.14 15.196-1.978-8.401 3.847-6.708 3.13-10.13 3.485-2.475.247-4.202 1.199.512.758-5.777 2.432-3.145 2.27 3.126-.379a147.24 147.24 0 0 0 4.547-.711c-8.324 5.842-4.675 2.534-12.688 6.653-8.854 1.55-20.692 3.549-21.661 3.166.741 1.001 11.02-.136 19.665-1.601-4.39 1.386-4.146 1.19-4.291 1.518-34.333 3.596-12.592 2.768-1.375 1.401-2.18.656-4.319 1.294-6.269 1.876-15.297 1.303-16.783 1.288-16.738 1.935.041.579 5.212.253 11.58-.39-4.462 1.352-5.423 1.714 2.037-.211 15.265-1.632 15.334-2.158 14.033-1.524-14.951 3.304-18.303 2.563-23.963 3.57-8.392 1.565-.258 1.048 8.933.073-14.396 3.615-14.247 2.601-14.189 3.432.049.53 3.482-.041 8.089-1.065 6.704-.042 3.67.364 5.487.173-1.232.359-2.446.702-3.614 1.024-14.779-.096-37.153 1.439-37.078 1.315.068 1.022 33.271-.432 33.576-.396-1.91.486-3.644.897-5.1 1.227-8.339-.684-31.5 1.55-31.423 1.424.017.219 29.736-.217 30.125-.277 3.249-.079 5.16-.415-3.817 1.358-3.124-.549-34.021-1.509-33.396 1.627-4.966.947-4.692 2.008-4.475 1.646.382.979 10.31-3.149 27.39-1.776 2.713.234 5.088-1.735-13.021-.913-3.769.191-5.822.379-.323-.181 6.604-.701 14.898.102 19.877.34-1.495.271-2.359.435-2.489.569-2.573 2.953 35.551-7.413 24.161-6.172 5.333-1.595 3.403-1.256 6.437-1.403.406-.015.508-.483.305-.737.464-.155.886-.219.778-.683 9.058-3.477 7.192-2.195 8.736-2.857-44.299 24.696-82.159 7.036-97.532 32.463-2.033 3.361-2.05 4.585-1.608 4.928-.897 4.582.1 4.503-2.797 3.924 1.221-9.836 2.357-11.39 1.292-11.446-.65-.017-1.911 9.319-2.167 11.267-.995-.207-2.02-.417-2.727-.43 1.939-3.164 2.917-15.207 1.405-18.205-7.904-15.624-39.11-28.33-50.894-45.647 1.098.732 3.799 2.248 8.246 4.52.55.291.937-.522.433-.788-10.609-5.429-8.474-2.84-11.648-8.559 2.305 2.5 11.403 7.184 3.14 1.176-2.148-1.701-3.572-3.132-3.638-2.08-19.294-36.123-2.622-87.755 1.456-107.284 1.552 6.117 2.891 7.765 2.532 9.017-.617-1.48-1.022-2.3-1.375-2.191-.57.168-.29.619.246 2.08-.442-.113-.69 1.103-.463.73 1.79 2.761.956 1.146 5.06 9.255-3.632-5.014-11.151-12.131.518 2.416.257 3.289 5.502 9.327-5.299-5.224-.662-.935-1.01.866-.768.47.03.041 5.709 7.671 5.732 7.63 3.636 6.526 3.728 5.563-2.105-.436-6.119-6.417-4.846-3.436-4.755-3.589 8.23 8.371 10.863 11.588 11.882 12.81 3.661 6.103 1.96 2.769-2.415-2.645-2.208-2.752-2.097-1.192-2.005-1.345-.043.228 1.206 1.814 2.654 3.709-24.952-24.763 3.621 5.437 4.161 5.524.156.567.378-.034-1.874 1.918-.852-.86-13.976-12.803-14.721-12.062-.707.743 1.368 1.471 8.375 7.468-.81.398.334 1.275 3.051 4.156-18.053-14.716-13.764-8.218 1.52 2.099a26.977 26.977 0 0 0-2.158 2.51c-.673-.954-3.245-3.325-10.807-8.705-.615-.424-.816.79-.656.526.02.057 11.08 8.603 11.121 8.624-3.537 4.848-1.086 4.002-3.522 2.393-2.789-1.848-2.646-.758-2.552-.913-.403.709.799.651 3.126 2.437.613.46.884-.738.07 1.165-1.823-1.644-8.341-6.108-8.638-5.535-.35.581 6.273 5.133 8.444 6.008-1.364 3.342-2.216 7.155-.109 7.457-.495-.044-.463 1.078-.294.799 3.42 2.769 5.967 4.96 7.91 6.693 8.555 9.102 4.729 5.567 1.217 2.698-18.573-15.259-16.721-10.828-16.388-11.38-.526.869 5.388 3.502 16.292 12.459 3.644 2.97 4.366 4.249 4.67 3.225 1.444 2.295 1.572 2.885 2.106 2.559.493-.304-.662-2.21-2.312-4.417.352.279.56.357.724.268 2.534 4.418.202-4.164 2.984 10.858-.49-.722-4.492-5.861-4.936-5.101-2.59-1.957-6.676-5.312-6.981-4.803-.564.93 4.793 4.643 7.84 6.404 4.442 4.764 3.54 4.971 4.385 5.107.194 1.005.644.941-2.637-1.814-2.421-2.963-3.781-4.745-3.907-3.161a248.642 248.642 0 0 0-9.191-6.849c-.613-.424-.811.783-.651.519.113.388 3.328 2.268 12.53 9.434.685.881 1.452 2.022 3.39 4.737-.948-.792-2.169-1.782-3.529-2.857-3.397-4.094-4.03-5.018-4.291-4.024-.034.16.211.592.634 1.192-5.767-4.369-12.189-8.812-12.752-7.807.079-.132 11.21 7.799 14.67 10.266 7.053 8.516 8.249 8.082.642 2.668-1.516-1.699-2.024-2.574-2.308-1.618-2.135-1.482-13.41-9.104-13.568-8.94-1.014 1.094 7.071 5.274 14.764 10.645 4.865 5.359 7.777 8.978 9.558 11.22-.602-.484-1.428-1.08-2.498-1.787-5.252-5.56-7.95-7.5-3.314-2.084-2.668-1.667-3.198-2.144-3.512-1.592-.403.715 1.497 1.232 5.56 3.921 7.032 7.814 7.468 7.141 2.52 3.977-1.312-1.247-28.631-17.3-.212 1.069 2.794 2.904 5.07 3.977-7.31-3.704-13.735-8.531-10.754-4.782-10.663-4.935 6.956 3.121 16.064 9.331 21.35 12.91-.006.051-.292-.364 2.432 3.221-1.204-.865-2.35-1.637-2.923-2.027-20.434-13.672-18.675-10.732-18.583-10.885-.5.941 6.858 3.678 19.77 12.786-3.04-1.267 8.15 9.234 1.678 3.306-.804-.743-.836 1.003-.623.648 6.25 5.72 5.585 5.126 6.038 5.822-14.774-10.683-5.167-2.414-.327 1.041-.397.296.705 1.553 1.127 2.085-6.336-4.435-14.763-9.638-15.124-9.002.107-.172 10.722 7.201 17.185 11.625 3.217 4.215.843 1.415 1.558 3.08-12.423-9.459-16.01-10.427-16.87-10.472 3.953 3.587 16.031 9.176 20.709 15.637-.126.047-1.433-1.443-7.462-5.071-11.03-6.63-10.624-4.079-10.478-4.318-.302 1.146 6.588 1.625 16.693 9.636-1.008-.453-.692.779-.576.59 4.05 3.425 3.465 2.061 7.686 9.327-3.2-2.834-2.276-1.814-3.165-3.064 1.92 1.718 3.056 1.29-2.002-2.84-.566-.792-1.121-1.897-1.663-1.318-3.173-2.382-2.614-.875-2.526-1.022.028.56 2.231 1.497 3.28 3.156-5.712-4.422-5.755-3.036-5.663-3.187-.452.8 2.496 1.558 3.512 2.959-9.628-6.99-8.411-3.679-7.987-4.384-.54 1.022 7.545 3.839 11.013 8.348-18.666-13.315-17.05-8.392-16.484-9.325-.449.788 15.781 8.348 18.533 12.001-2.897-2.131-2.75-.634 2.289 3.079 4.022 5.531 7.231 11.464 5.062 3.77.781.149 1.407 4.369 1.332 6.051-.008.136.905 1.177 1.281.711.543 1.799 1.072 1.588 1.294-.352 1.494.051 12.833-25.994 16.516-49.211 3.344-20.915-1.247-49.013-1.087-49.139.039.026 1.179 3.884 1.583 6.134.102.632.975.445.9-.09-1.086-5.976-1.836-5.663-.836-5.101-.575.886 3.033 13.602 1.569 3.288 1.437 5.267.593 6.199 1.834 6.171 1.505.918 2.628-4.211 2.84-6.078.41.226.823.469 1.242.709-1.174 5.046-2.607 6.457-3.484 8.842-1.732.602 1.345 5.701-2.526 34.489-2.236 16.644-4.524 17.445-2.716 17.858 2.16.543-.28-4.771 24.271-44.894 2.485 6.093 4.156-2.165-7.78 17.569-1.465 2.425-12.219 20.874-13.197 26.631-3.968 7.528-.224 5.267.21 4.728 12.662-15.249 28.882-22.252 30.037-22.965.399 1.203-31.767 12.074-43.15 49.224-1.649 5.097-10.157 18.086 9.671-2.625 11.198-11.665 19.33-34.498 19.708-35.296.423-.918 4.309-3.291 4.494-3.406-6.642 19.414.848 4.866-9.191 22.788-.284-.509-1.001 2.003 7.601-19.254.235-.616-.609-.892-.803-.401.051-.083-5.446 14.194-7.408 19.672-.395.43-1.168 1.652-3.241 4.607 3.26-6.316-2.334 2.21-6.269 8.163-3.702 4.219-3.435 3.557-3.943 4.583-6.4 4.869-12.28 9.67-12.669 10.313-4.116 6.809 18.965-18.1 52.713-30.457 13.649-2.457 23.57-8.48 32.953-12.291 1.119.609 15.242-6.604 26.1-16.446 47.376-35.147 64.323-67.463 44.459-32.496Zm-14.59 20.68c-5.045 5.27-4.59 4.548-7.276 5.821-2.265 1.092-.325.468 6.524-5.41.248-.134.498-.272.752-.411Zm2.015-2.033a59.218 59.218 0 0 0 2.69-2.599c-1.526 2.269-.924 1.679-2.69 2.599Zm6.8-8.946a186.17 186.17 0 0 1-1.281 2.033c-.502-.696-2.551 1.606 1.281-2.033Zm3.811-6.297c-2.284 3.896-1.608 2.944-3.503 4.773-4.317 2.64-2.913 2.372 3.503-4.773Zm-13.132 20.042c-.263.085-.786.3-1.604.664 4.095-3.745 6.875-7.773 1.604-.664Zm-9.569 14.349c.226-.277.13-.149 0 0Zm-27.501 21.475c.816-.226 2.688-1.273-3.561 2.572-2.539.243 1.351-.394 3.561-2.572Zm-2.816.603c-5.051 2.806-2.541 2.161-14.102 3.161 13.756-3.606 5.998-1.716 14.102-3.161Zm11.183-10.75c-4.953.954-5.024 1.489 3.378-2.399-1.181.841-2.319 1.65-3.378 2.399Zm6.411-3.212c1.55-.33 1.337-.296 1.299-.262-.161.119-3.408 2.659-3.602 2.687-2.677.509-2.643 1.019 2.303-2.425Zm-1.197-1.991c-2.857 2.421-1.164 1.467-2.972 2.314-6.106.986-5.481 1.465.803-1.871.736-.149 1.458-.296 2.169-.443Zm1.859-1.548c-.741.145-.913.32.716-.581-.25.2-.489.398-.716.581Zm9.866-8.107c-.098.039-.122.077.243-.234l-.243.234Zm-4.486 7.241c3.199-2.45 5.415-4.422 5.035-4.782-.047-.049-3.245 2.227-7.249 5.093-2.322.345-2.491 1.03 2.027-2.527 8.236-4.703 9.31-6.193 1.436 1.871-.277.017-.679.128-1.249.345Zm-4.874 2.214c-5.713 2.706-4.285 2.244-1.086-.068 2.141-.454 1.917-.526 1.086.068Zm-8.335 9.114c3.32-2.159 6.672-4.2 4.044-1.993-.239-.097-.741.507-4.044 1.993Zm-9.336 6.13c6.595-2.068 4.919-2.926 4.424-2.738-3.841 1.46 1.462-.396 1.225-.837a90.005 90.005 0 0 0 4.405-1.852c-6.736 5.299-6.322 5.103-10.054 5.427Zm16.442-10.779c-1.585.649-1.41.781 1.095-1.195 4.078-3.219 2.237-2.931.623-1.643-.29.038-.638.085-1.063.144 8.356-5.831 6.187-3.395-.655 2.694Zm13.26-17.626c7.137-5.759 3.294-3.366 8.881-6.826-.937 1.261-6.812 9.065-8.191 9.902-7.234 4.307-2.056 1.177-2.131.775 2.476-2.195 4.127-3.96 3.685-4.4.416-.258.442-.341.149-.279 10.741-9.83-1.582.528-2.393.828Zm-8.651 8.162c2.502-1.332 7.355-5.326 1.003-.277-.226.13.009.037-1.003.277Zm-1.292.322c-2.7.7-2.658.89.039-.515-.107.163-.169.402-.039.515Zm-9.268 10.883c2.695-.479 2.5-.63 1.499.092-6.954 2.861-5.073 2.169-1.499-.092Zm-13.798 6.843c10.829-3.762 17.016-7.284 7.801-1.953-3.578 1.354-2.376.999-7.801 1.953Zm-3.26 2.833c6.725-1.931 7.445-2.693 5.589-1.548-5.179 1.653-4.554 1.446-5.589 1.548Zm-1.127 4.603c10.628-4.513 1.656.119 1.654.064-.013-.164-1.682.011-1.654-.064Zm-5.855 1.501c-3.211 1.15-6.285 1.976-8.552 2.421-4.588.291-4.537.751 6.324-2.136.762-.096 1.511-.189 2.228-.285Zm-92.483 40.233c-.098.015-.177.019 0-.002v.002ZM7.322 121.247c-.039.211-.062.279 0 0Zm27.443 9.536c.106-.441.015-.411.192-.079-.064.028-.128.053-.192.079Zm-.859-2.472c.096 3.251.49 2.604-.147 2.887-.292-1.478-.386-2.627-.292-4.113.151.428.3.862.44 1.226ZM15.157 94.179c4.731 9.511 4.985 4.145 7.097 14.045.049.241 1.481 1.957.15-3.168-.417-1.539-.861-1.967.798.1 2.433 11.022 1.3 12.106 2.325 11.963.91-.098-.286-6.555-1.047-10.262.406.58.82 1.216 1.25 1.925.471 5.293.725 4.026 1.095 10.66.042.538.94.536.899-.115-.594-9.376-1.48-9.938.228-6.389.34 2.54.736 6.059.636 9.446-.004.132.587 1.397.792-.247 1.354 15.158 1.715 3.253.79-4.113 1.926 4.848-.122 1.079 1.505 12.767.113.62.978.437.9-.115-.547-3.389-.233-4.441-.336-7.13.169.477.344.984.515 1.486-.383 1.452-.316 4.935.155 6.553a34.645 34.645 0 0 0-4.323 2.391c-.44-7.647-9.915-20.94-13.429-39.797Zm11.339 36.849c.156.66.186.566-.258-.396.085.132.177.283.258.396Zm-8.198-21.213c-.041-.209-.03-.169.076.117-.025-.041-.05-.073-.076-.117Zm-1.999-4.28c.521.941.404.662.6 1.457-.22-.539-.418-1.022-.6-1.457Zm4.74 12.874c.132.013.22-.021.258-.102 2.402 4.707 2.052 5.18 2.641 5.15 4.157 10.019-.241-.166-2.9-5.048Zm3.437 18.782c-3.779-4.102-4.289-4.53.297-.272l-.297.272Zm29.595-.236c3 .383 9.806 1.763 9.61-.007 2.85 3.111 5.901 5.787 7.835 6.308-.576.362-1.332 1.025-2.378 1.868-23.609 19.343-4.469 52.481-7.159 43.25-2.363-8.067-3.565-11.324-3.025-20.407.374-7.251 6.59-17.404 9.695-20.378 3.474-3.142 5.062-3.338 4.114-4.409a.62.62 0 0 0 .19-.239c1.136.181 2.825-.095 3.745-.64.367 2.16 1.065 3.936 2.03 5.458 4.497 15.314-19.434 25.339-9.895 48.155 1.084 3.262-23.946-11.39-12.806-40.282 3.299-7.26 4.872-7.645 8.13-10.481 3.679-3.102 1.937-5.739.177-2.94-.683 1.06-1.8 1.95-3.087 3.064-.653-.784-6.042-.796-7.054-.713-7.936.657-8.501 2.437-8.333 2.158.28 1.041 4.061-.911 8.784-1.305 2.816-.125 5.049.354 6.03.373a23.531 23.531 0 0 0-2.758 2.887c-.08-.002-3.473-.679-7.344.291-10.414 2.668-5.711 3.943-19.117-.283-9.818-5.437-14.784 8.933-11.945-.142 2.086-1.325 9.315-14.927 34.561-11.586Zm2.87-13.081c.651.379 1.087 1.039 1.23 2.231-.084.927-1.58-1.645-1.23-2.231Zm1.24 2.549c-.077-.036-.04-.022.002 0h-.002Zm1.535-1.305c.42-.428-.015.436 1.71.453-1.584 3.577 8.528 12.48 13.37 15.652.851.537-2.321-.406-2.885.569-4.3-1.795-10.869-9.512-13.427-13.911a.998.998 0 0 0 .645-.255c2.026 3.208 6.649 10.151 7.663 9.144.845-.824-.833-1.029-6.75-10.156-.373-.585-.87-.964-.326-1.496Zm1.567-.926c-.002 0-.004 0-.008-.003-.007-.029 0-.072.008.003Zm-.61-2.289c.84 2.191.139.758-.406 1.454-1.242-2.455-.736-3.994.406-1.454Zm-1.162-2.791c.094-.449-.442-1.165-.422-1.748.162-.647 1.161 1.803 2.075 1.058-.265 3.426 4.778 3.03 3.234 1.512-.284-.29-.715-.094-1.223-.475-.075-1.103-.393-2.676.139-2.033.109.168.414.649.41.977-1.012 1.756 3.076 1.264.62-1.895 1.463-.119 2.305-1.388-.4-3.881-2.204-1.98-2.853-.068-2.674-.364-.158.43-3.264-3.394-5.113-12.61-3.78-19.18-3.691-16.385-2.41-17.69 6.465 1.863 29.54 9.977 30.05 37.811-.91 1.448-.02 1.203-1.217-3.602-1.988-8.003-2.78-3.664-2.39-4.307 2.917 7.66 1.717 9.082 2.663 9.425-.61 1.011-.134 1.032-1.635-1.576.348-.47.079-4.126-2.09-9.127-5.652-13.259-5.558-8.262-5.35-8.607 2.352 4.024 5.99 11.22 6.605 15.799.455 2.261.651.407-5.1-6.321-.037-.038-1.344-2.208-2.24-.994-.425-.426-.773-.481-1.004-.347-.55-1.61-3.138-2.35-3.352.945-.508-.524-1.268-.939-1.78-.83-3.143.351.367 4.673.393 4.818-1.145-.23-1.183.715-1.096.57-.01 1.348 1.44-.547 1.952 2.419.218 2.812-1.275.368-1.305-1.033-.04-1.33-2.858-.881-.377 2.789-.697 1.531 2.164-.747 10.354 15.435.425 1.029.84 3.153 1.367 4.211-.353.154-2.456-2.205-2.825-2.642-14.09-16.782-6.328-16.589-10.024-15.58-2.82.763 8.154 17.415 12.253 19.627-.286.035-.346.064-.474.132-1.354-1.709-8.95-3.246-14.593-15.799.602-.781-.952-5.603-3.02-6.067Zm3.54-1.982.004-.007c.13.094.188.152-.004.007Zm.23-3.409c2.945 2.651-1.295.975-1.052.571.137-1.205-.051-1.605 1.053-.571Zm-.902-.651h-.003c.077.032.084.036.003 0Zm-5.694-10.798c.085.353.07.232 0 0Zm-4.01-19.197c-.004.108-.004.09 0 0Zm.013-.117c.021-.098.066-.2 0 .004v-.004Zm57.54 21.111c-4.42 3.651-6.738 6.959-8.961 10.796-.548.219-1.629.998-4.112 2.714-.162.113-.988 1.703 2.447-.588 1.179-.785.882-.936-.636 2.131-4.765 1.778-10.645 7.25-10.675 7.69-.29 2.238 2.028-2.118 10.103-6.508-.319.683-.581 1.305-.816 1.888-3.706 1.501-3.768 3.17-.472 1.259-1.407 4.121 1.258 3.091-8.941 6.267-4.127 1.32-2.654 2.906-3.286-.619 2.87-6.376 4.383-9.783 10.378-13.377 15.806-9.535-2.352-3.431-8.303 6.411-3.584 6.125-1.87 6.012-3.678 1.699 5.97-3.46 3.836-17.49 26.952-19.763ZM90.106 89.381c.46.01.907-.03 1.328-.134-.64 3.93.083 12.286.65 14.494 1.36 5.105 2.106 3.234.39 4.856-.836-1.982-3.87-7.82-2.368-19.216Zm-8.323-8.595c2.184 1.175 1.76 1.85 5.408 1.684.918-.049 1.804.198 2.848.153-.098 3.55.515 5.214-1.287 4.152-3.113-2.219-3.602-3.617-4.182-2.962-.197.215-.056.784.038.63 4.244 4.093 2.197 1.54 2.692 2.975-2.45-1.793-5.758-6.23-5.517-6.632Zm-.467-.172c-.064.014-.038.002-.088-.007.03 0 .058.005.088.007Zm.267-.456.021.08c-.01.05-.008-.018-.021-.08Zm1.832-26.985c-7.66 4.497-5.29 21.043-3.963 24.362-7.914-7.362-6.881-22.375 3.963-24.362Zm-6.455 3.615c.137-.2.103-.125 0 0ZM96.5 73.192c-.303.864-3.132 5.538-3.26 6.642-7.426 3.275-7.842 1.108-11.104-.31.751-1.576-2.048.628-1.992-9.755-.005-1.516-2.44-15.976 7.854-15.974 7.217.006 10.368 14.092 8.502 19.397Zm-2.953 9.802c.094 1.837-.57 3.15-1.49 4.009-.079-.194-.371-.328-1.1-.164-.67.125.366-1.603-.03-4.326 2.842-.6 2.458-3.087 2.62.48Zm-3.25 4.939c.02-.002-.149.017.733-.192-.22.109-.487.228-.732.192Zm-.087-.021c.064-.013.03-.002.054.012-.017-.004-.035-.012-.054-.012Zm14.006 1.988c-5.538-37.687 7.854-49.611 8.341-54.035.327.17.662.32 1.014.438-10.888 13.977-11.183 56.243-7.12 54.347 2.415 3.419 1.648-6.658 8.788-17.986 3.313-5.327 1.558-4.51 3.497-4.062-10.056 22.3-11.854 30.902-11.54 33.885-4.492.543-.634 2.674-2.98-12.587Zm8.017-67.588c1.302 4.745 3.736 3.996 7.551 5.659-1.77 1.848-3.025 3-3.939 3.744.399-.596-.359-1.036-.709-.555-1.338 1.914-1.988 2.57-2.069 2.544a.36.36 0 0 0 .086-.128c.689-2.34 1.879-2.919 1.197-3.383-.708-.453-1.825 2.259-1.966 3.015-.326-1.052.015-4.07.147-5.163.071-.53-.809-.703-.894-.055.047-.075-.173 1.794-.222 3.432-2.077-2.826-.848-6.019.818-9.11Zm22.983-18.043c.576 1.113.576 3.721-1.023 6.246.107-.177-5.816 7.492-8.094 9.144-.459.326-.42 2.133 2.031-.245 6.454-5.942 8.437-10.468 8.706-13.365 1.672 5.118-2.795 14.694-8.918 20.58-2.914 2.721-3.36 1.363-8.012-.715-2.81-1.26-4.93.898-6.589-5.795.649-1.933-.435-1.586 1.422-6.96 4.864-13.887 18.613-11.913 20.477-8.89Zm-17.26 2.55c.203-.234.182-.213 0 0Zm6.386 23.08c-2.355 2.851-2.882 3.22-5.241 3.741 1.571-1.224 3.471-3.251 3.091-3.668-.335-.383-3.917 3.202-4.782 3.94-2.47.296-1.172.797 3.962-4.455.445-.456-.215-1.059-.602-.665-.378.38-5.358 5.314-6.464 5.182.444-.63 1.556-.564 6.136-5.386.508-.511 1.148.715 3.9 1.311Zm-5.222-2.386c.263.11.196.093 0 0Zm-3.679 29.503c.412.062-1.146 1.156-.674 4.8-.378-1.747-.212-3.546.674-4.8Zm21.376-24.604c-.064 1.277 2.387 4.562-4.033 9.078.485-.326-5.517 2.825-7.814 5.756-3.64 4.554-.679 8.833-2.161 12.272-2.784-.177-5.506-1.978-6.238-3.434-6.313-12.772 16.484-26.197 20.246-23.672Zm-.056 4.964c-.074.128-.098.2 0 0Zm-.896 13.036c-1.99 5.525-5.18 8.565-11.775 9.089 1.081-3.113-.442-6.726.901-9.917 3.102-6.692 14.038-6.698 13.474-15.335 5.575 6.223-.645 10.732-2.6 16.163Zm-19.866 8.022c.053.043.17.16.36.334-.463.686.321 7.547-.604 3.39-.004-.94.056-2.155.244-3.724Zm7.634 2.64c.455-.051 4.422-1.35 4.467-.794-.491.08-.182.449-.408 1.545-1.317 3.1-4.477 4.33-6.657 4.533.235-.487.562-1.284 1.215-2.51.248-.439-.5-.96-.82-.358.032-.053-.205.32-.487.833.124-.57-.574-.726-.779-.352.021.08-.583 1.567-.617 2.344a4.221 4.221 0 0 1-1.24-.432c-.284-8.35-1.217-3.915-1.096-.813-.271-.268-.04-5.567-.04-5.618 3.335 2.595 5.324 1.667 6.462 1.622Zm17.428 13.996c-.064.028.32-.147.572-.556 6.427.351 4.708 6.076 4.631 14.82-1.629 3.16-.348-.515-.435-.803-.634-2.595-.263 3.952-.382-6.872-.056-3.781-1.497-5.919-.699 7.298-.181.377-.363.756-.527 1.107-.011-.313-1.059-1.535-1.106 2.368-.474 1.009-.277.958-.412-.135.25-.434.412-.717.389-.813-.109-.438-.329-.438-.57-.27-.895-4.05-.133 5.118-.361-10.283-.011-.509-.899-.596-.901.09.143-.237-.058 12.115-.079 12.156-.051-1.997-.203-3.926-.449-4.194-1.208-1.174-.659 2.501-.313 5.848-.173.42-.314.802-.412 1.128-.299-1.814-.859-5.118-1.237-11.126-.051-.643-.939-.536-.898-.006.079-.13.617 9.378 1.492 12.36a24.603 24.603 0 0 0-1.608-.349c-.258-1.315-.713-3.695-1.101-8.098-.03-.67-.946-.522-.895-.015.066-.11.442 5.088 1.044 7.958-4.263-.626-8.676-.317-12.891.586 2.825-4.59 8.995-16.747 17.148-22.2Zm-8.811-.06c-5.248 1.541-2.387-2.49.233-4.53 2.709-.777 6.99-1.301 10.884 2.974-2.432-.53-5.999-.302-11.117 1.556Zm37.471 15.659a.501.501 0 0 0-.309.085c.07-1.233-2.105-.445 4.421-1.482a344.075 344.075 0 0 1-3.078 1.399c-.086-.824-.886-1.086-1.034-.002Zm1.239 1.807c-.077-1.032-.797-.434 4.259-1.226-2.445 1.045-.718.509-4.259 1.226Zm.807 7.5c3.531-2.897 6.264-1.858 3.326-.442-.76.374-3.444.636-3.326.443Zm-.884-1.079c-.094.081-.184.158-.265.232-.295-.027-.848.173.265-.232Zm-29.719-1.2c1.001-.897.952-1.48.279.085-.089-.03-.185-.056-.279-.085Zm-.361-.115c-.301-.092-.261.008-.109-.541.038.236.075.406.109.54Zm6.541-11.173c-.249 1.366-.19 1.286-.196-.177a.398.398 0 0 0 .196.177Zm-.13-6.564c.942 2.902.69 4.462-.07 5.976-.069-7.332-.288-6.798.07-5.976Zm.359 9.895c.297-1.375.271-1.558.175-.148l-.175.148Zm-6.45 7.384c.024-.309-.002-.232.058-.16-.019.051-.043.115-.058.16Zm25.889 1.773c-3.29 2.802-9.398 10.835-10.901 14.141-.839-3.562 3.676-11.277 10.901-14.14Zm-24.021-.53c3.075-4.724 3.771-5.014 4.603-6.64-.911 12.297 2.515 9.582-4.603 6.64Zm-1.221-4.298c.192 1.541-.055.604-.591 2.097.021-.673-.103-.611.591-2.097Zm-36.472 18.111c.182-.236.128-.156 0 0Zm39.689 65.779c.624-.839 1.501-2.059 2.759-3.783.391 2.071-.722 2.631-2.759 3.783Zm2.548-4.627c.029.092.008.032-.062.03l.062-.03Zm-52.952-17.168c-8.679-5.005-13.69-5.028-15.853-14.826.419.028.889-.023 1.373-.206.438.317 1.072.251 1.358-.82.506-.451.935-1.043 1.283-1.752.051-.023 6.47-.458 11.672.53 17.044 3.159 18.267 25.218 19.719 25.062.638-.064-1.134-27.612-27.65-26.867-4.41.113-1.913 1.341-1.386-3.588.846.071 1.443-2.25 9.06-1.251 10.407.832 17.732 6.38 22.408 15.409 7.047 13.619-3.389 20.611-2.65 29.582-.871.064-1.3-11.132-19.334-21.273Zm-2.165 32.753c8.222-19.696 11.554-21.267 12.299-22.474 3.293 3.315 4.458 5.57 5.227 7.437-3.536 4.028-13.743 22.488-19.557 34.331.874-5.194 1.619-11.798 2.03-19.294Zm.333-10.709c1.242.089 1.445-2.101 5.78-9.427 3.507-5.938 2.431-5.785 3.232-5.08-3 4.169-5.938 14-1.873 5.787-.06.172.04.336.122.413-8.892 13.723-7.347 19.258-7.261 8.307Zm-2.295-21.641c2.65 1.407 2.13.345 1.014 4.671-.158-1.512-.534-3.275-1.014-4.671Zm12.257 7.971c-.878.713-2.065 3.512-.284-.26.1.089.185.17.284.26Zm.83.762c-1.552 1.35-.905 1.541-.463-.424.156.141.316.288.463.424Zm-34.488-50.763c-.026.034-.039.046-.003 0h.003Zm1.797-3.99c.72 1.075.224.509-.025 1.243-.158-.262-.37-.332-.575-.287-.138-1.09.348-1.271.6-.956Zm1.625 1.109c.265.452.937 1.918.371 1.884-.988-1.775-.617-1.381-.37-1.884Zm25.677 17.907c1.696 1.503 1.937-1.42 1.687 2.263-10.472-2.804-9.575.677-2.953-3.313.16.492.515.956 1.266 1.05Zm20.498 17.819c1.945-.655 6.542-3.07 15.46-6.15 2.782-.96 5.551-2.476 7.705-3.998-3.17 10.11 6.036-6.309-21.228 24.325.696-4.569.085-9.557-1.937-14.177Zm14.057-7.675a4.092 4.092 0 0 0 0 0Zm-18.758.445c2.05-2.967 1.61-14.7 2.857-18.028a24.871 24.871 0 0 1 4.539-.076c-.709 1.068-.692 5.901-.459 8.973l-.555 1.099c.794-13.276-.923-7.456-.425-8.275-.94 11.143-.767 15.822-.677 2.237 0-.596-.899-.6-.901-.008.036-.06.147 5.073.284 9.333-.38.711-.771 1.431-1.178 2.163.311-7.085-1.044-3.472-.75-3.962-.177 6.649-.28 5.835-1.548 7.947-.375-.476-.77-.947-1.187-1.403Zm-12.242-10.744c2.825-1.046 1.975-2.649 1.29 3.425-2.112-.803-.955.396-1.29-3.425Zm2.94 4.104c2.265-7.255-1.332-5.192 3.034-8.064a19.96 19.96 0 0 1 7.284-3.034c-5.747 22.299 2.795 16.927-10.318 11.098Zm39.54-1.607c-1.095-.021-2.966 1.567.619-1.056-.222.355-.42.707-.619 1.056Zm-4.244-2.634c.032 0 .04-.002-.035.019l.035-.019Zm-4.569 5.314c1.825-1.147.455-.251 4.344-1.514-1.039.675-4.167 1.904-4.344 1.514Zm-11.591-11.775c.068-.113.028.162-.045.611-.087.123-.16.249-.209.375.002-.056.06-1.452.072-1.495.968.141.278-.096.182.509Zm1.089-.109c-.062-.015-.124-.034-.199-.015a.412.412 0 0 0-.192-.244c.57.093.466.038.391.259Zm-1.362 1.535c.019.051.038.107.083.145-.16 1.241-.147 1.343-.083-.145Zm-.78-2.054c-.008.038-.309 4.794-.313 5.754-.22.447-.451.916-.686 1.388.35-8.153.133-7.244.999-7.142Zm-2.186 17.747c-1.39.285-1.044 1.697 10.056-1.182-2.423 1.312-4.906 1.674-12.522 4.216 3.506-4.245 7.68-17.671 8.756-20.045 2.511.586 4.936 1.371 7.218 2.159-4.477 1.467-3.885 2.11 1.418.492.638.224 1.259.443 1.864.651-18.927 5.759-12.24 6.13 1.168.396.777.262 1.53.503 2.248.709-22.798 6.792-18.293 8.286-.961 1.01-1.112.73-1.836 1.175-4.02 2.45-13.051 4.754-13.91 5.618 3.104-.209-.058.054-.833.33-.463.831-.525.176-1.029.251-.861.781-.04.03-19.723 7.37-2.764 1.946-3.863 2.81-7.896 2.455-8.111 2.921.027-.42-2.415 1.818 7.011-.875 2.099-.347 2.714-.941-.173.845a155.444 155.444 0 0 1-12.968 2.904Zm16.277-3.843c.888-.539 1.871-1.379 6.772-3.098-.918 1.748.013 1.082-6.772 3.098Zm4.166 9.184c-1.871 1.099-1.943 1.846-.06-.619.019.206.036.415.06.619Zm-24.136-1.285c.23-.077.504-.258.828-.582 20.624-4.76 18.293-5.946 17.36-5.658-4.524 1.356-2.178.436 1.733-.724 8.935-2.651-5.342 3.057-9.515 4.526 1.086-1.397-9.932 2.587-9.83 2.418.013.494 2.882-.025 5.528-.745-6.491 2.815-4.157 3.886-6.104.765Zm.23 22.296c-.081.16-.096.213 0 0Zm2.767-1.458c1.48-1.399 4.253-5.848 13.043-14.032 11.183-10.466 6.206-5.218 7.983-7.166.006.521.482-.547-5.278 5.207-.184.192-.201.935.553.571-5.02 4.945-11.16 12.15-11.098 12.046.826.719 4.744-4.893 8.579-8.51.531-.487 7.461-6.802 7.611-6.061-2.974 2.929-14.621 12.552-24.884 26.657.692-2.977 2.279-4.616 3.491-8.712Zm-36.205-35.381c-.021.287.01.479.083.594.306 2.292-.019 3.429.041 3.101-.038.226-.243-11.628-9.526-18.871a4.283 4.283 0 0 0 0-1.301c2.19 1.052 8.247 9.613 9.402 16.477Zm-13.013-19.165c.003-.003.003-.005.005-.005.08.071.066.058-.005.005Zm-1.671 2.239c.14.277.318.49.502.62-.361 1.333-.037 1.68-1.281 1.213-1.884-5.075-.107-1.183.779-1.833Zm-.263 3.49c1.164.078 1.892-.831 2.065-1.976.277.115.593.29 1.03.2.767 1.303 1.433 1.539 1.888 1.194 5.25 5.129 11.514 16.027 7.827 22.221-1.136-9.653-9.486-18.067-11.012-19.902-.463-.541-.85-.268-1.085.059a4.198 4.198 0 0 0-.713-1.796Zm5.4 11.26c.996-.948-4.53-6.238-5.274-6.83.386-.432.602-1.052.634-1.746 1.802 2.334 11.896 14.154 10.536 20.809-.29.202-.544.285-.775.309 1.555-1.968-3.94-10.737-5.121-12.542Zm-6.933 117.017c.312-4.205.1-7.411.952 1.86.184 1.989.374 1.748-.952-1.86Zm-.944.64c-.501-1.643-.508-1.4-.367-1.452.496 1.182.417.878.368 1.452Zm-1.263-.349c.286.303.198 0 .593 1.776-1.797-2.942-2.29-2.8-.593-1.776Zm-5.129-6.542c.878 1.23.914 1.084-.256.202-1.191-1.473-1.291-1.437.256-.202Zm-1.774-2.565c-2.496-1.936-1.932-1.418-2.551-2.14.48.362 2.21 1.646 2.551 2.14Zm5.423 4.364c-2.039-1.68-.984-.569-.715-1.28.233.407.474.841.715 1.28Zm-18.384-32.952c3.456 6.099 1.601 1.924-3.553-2.708a88.99 88.99 0 0 1 3.553 2.708Zm-3.489-6.832c-1.772-2.023-1.753-1.742-.433-.982.143.326.284.652.433.982Zm-2.07-4.984c-.475-.528-.233-.245-.052-.134.015.044.032.089.051.134Zm-3.427-11.228c.732 3.07 1.366 3.091-2.464-1.469-1.204-1.401-.431-.373 2.464 1.469Zm-.105-.445c-.252-.222.316-.588-1.898-3.73 1.68 1.226 1.053.151 1.898 3.73Zm-3.47-17.098c-3.351-5.81-2.098-2.827.216-1.729.532 3.424.666 3.181-.215 1.729Zm-3.262-7.166c2.895 4.339 2.212 3.391-.642.826-3.93-5.851-4.541-4.639-4.499-4.171-4.118-3.904-3.64-3.057-2.634-4.13 3.465 3.428 6.07 5.919 7.775 7.475Zm-6.358-8.706c.035.275.035.224 1.783 1.955-.271.24-.058.247 2.398 3.64-5.532-5.686-5.355-4.832-4.18-5.595Zm5.504-.892c.156.367.16.307-.08-.01.03.002.055.008.08.01Zm-1.123 1.035c-.84-1.322-1.195-1.216.29-1.122 1.002 2.649 1.613 2.693-.29 1.122Zm-3.868-.441c1.475-.749 1.225-.355 1.285-.453 2.272 1.85 1.503.615 3.935 5.199-3.207-2.834-4.277-4.301-5.22-4.746Zm6.339 6.911c1.498 2.978 1.537 3.374 2.102 3.036.223-.136-.138-1.111-.708-2.336.273-.289.109-.562-.56-1.162-1.789-3.585-2.314-3.832-.743-2.206 1.856 3.673 1.555 1.823 2.63 8.542-2.794-6.47-7.126-9.308-2.721-5.874Zm35.047 70.895c-1.086 9.876-.512 9.214-1.063 8.011.577-12.88.08-11.682 1.063-8.011Zm.5 11.618c-.865-2.078-.243-7.29.04-9.53 1.23 4.957.368.694-.04 9.53Zm-2.069 1.181a.418.418 0 0 0 .594-.253l.23.421c1.177 3.454.889 2.44-.824-.168Zm3.754-2.972c-.78 4.703-.319 5.169-.697 4.23-.202-.53.24-2.921.263-6.557.15.771.299 1.544.434 2.327ZM41.225 155.16c-.918 2.463-1.206 16.731-.69 16.797 1.083.147.206-1.814 1.085-12.412.572 4.203 1.507-1.545.21 6.881-.03.236.821 2.559 1.52-4.364.098-.907-.084-1.648.766 1.626-.246 3.918-2.434 32.052.613 2.604 1.146 5.352.781 1.128-1.382 20.623-.07.609.835.69.895.111 4.04-35.09.395 4.865.886 5.516 1.11 1.397.717-2.001 1.7-12.925.17.931.343 1.48.552 1.454.126-.013-.264 8.691-.941 15.604-.03.27.837 2.42 1.283-4.056 1.381-20.679-.276-13.917-.083-14.239-.017.268.087.667-.466-2.859.31-4.471-3.505-17.138 1.516 3.687.355 2.327.692 4.501.935 5.97-1.5-2.367-.055 6.985-.978 15.239-.032.305.818 1.735 1.098-1.773 1.26-15.895-1.66-21.52 1.498-8.284-.23 1.245-.437 5.629-.459 15.282.011 2.052 1.796-.311.987-13.14 2.49 9.599 1.877 5.708.813.068.423 1.26.871 2.574 1.364 3.968-.482 18.16.991 14.135 1.012 2.813.208.568.421 1.143.639 1.73-.557 4.241 1.89 18.985 1.605 14.311-.399-5.028-.474-8.826-.514-11.387a1032.85 1032.85 0 0 1 1.744 4.673c.722 22.875 1.326 10.889 1.042 2.818.408 1.122.813 2.238 1.202 3.347-.344 4.348-.824 11.118-.184 11.192 1.281.188.449-10.538.98-8.91-.516 17.652.833 13.519.825 13.3-.17-4.09-.037-7.964.023-10.783 2.222 6.742 1.018 1.846.56 14.453-5.861-12.237-11.803-18.896-19.222-34.834-9.62-23.346-9.42-41.087-11.228-47.642a15.396 15.396 0 0 0 5.274 2.27c-.393-.071-.874 1.424-.477.768.086 1.588.07 2.052-.172 4.839-.041.635.845.658.894.122.34-4.254.117-5.534-.188-5.712 4.26.949 3.67-.358 4.193.862-.429-.386-.935.266-.73.392Zm1.868 2.335c-.28.366-.175.204-.437 2.651-.656-6.123-.995-6.257.437-2.651Zm2.833 9.987c-1.58-9.482-2.376-5.793-2.337-8.714.456 1.212 2.662 7.354 2.337 8.714Zm-7.434-16.378c.255.045.184.021 0 0Zm-20.48 2.925c.834.075 1.528-.379 2.14-.945-.023.698 6.534 5.031 10.659 12.082-2.96-3.083-12.47-11.037-12.8-11.137Zm19.035 33.493c.066.041.143.669 1.059 3.477-3.694-4.473-9.798-10.952-1.78-3.362.053.055.834.302.721-.115Zm12.556 28.303c.265.421.794 1.241.585.938-.993-1.309-1.217-1.322-.585-.938Zm27.08 17.832c-.09.206-.105.262 0 0Zm-6.198 14.381c-1.172-23.312-14.06-49.707-17.586-61.042-1.086-3.408-5.493-25.873-8.992-32.933 6.578-.937 13.65-5.19 12.4-3.117-16.713 27.641 13.074 54.27 14.086 44.964-.397-3.909-2.466-4.405-1.407-13.076 2.114-12.376 14.661-18.511 12.736-31.668.424.359.869.704 1.328 1.043.523 8.969 13.305 37.295-12.565 95.829Zm22.17-78.944c1.667-1.961 3.32-6.871 3.843-9.136a60.005 60.005 0 0 1 3.414 2.229c-2.454 5.891-4.593 8.018-7.15 13.513-.005-2.165-.041-4.371-.107-6.606Zm14.923 37.304c1.311-1.912 2.823-3.805 4.435-5.661-2.266 4.922-.551 3.165-4.435 5.661Zm24.258-24.992c.233-.173.177-.128 0 0Zm-21.211 17.449c-7.784 9.103-5.671 9.231-7.402 10.429-10.897 7.539-10.598 10.439-10.94 8.957 2.857-5.629 8.393-18.965 20.968-38.06.709.92 1.612 1.397 2.419.505.771-.847.354-1.923.376-4.198.92-.126 1.62-1.806 5.331-6.649 8.935-11.665 17.169-17.875 20.35-21.043 1.499 4.929 4.509 8.586 5.355 11.326 1.864 7.015-1.819 7.713-.154 11.601-4.618.945-19.437 7.353-36.303 27.132Zm62.61-55.073c.015.288-.002.198 0 0Zm-6.208 23.885c5.967-7.964 8.542-16.88 8.111-23.286 2.421 1.141 9.925 13.21 12.47 17.223-4.317.245-15.254 3.089-20.581 6.063Zm24.746 1.606c.082 1.824-.715 3.429-2.771 4.822-.26-1.682 1.412-2.478 2.771-4.822Zm-35.137-47.519c-.013.607.918 1.448 3.414 1.484-.799.532 1.757 3.119 7.37 2.506.074 1.23 16.068 23.955-5.412 45.121-9.744 9.674-19.115 10.008-15.859 8.742 5.547-2.24 2.248-9.334 2.225-9.564.021-2.184 1.398-3.691 1.054-7.336.355-5.721-7.957-14.377-5.448-22.606.563-4.453 5.822-13.955 10.372-16.056.832-.381.495-1.708-.536-1.559-2.844.469-4.277 3.854-8.263 3.775-9.199-5.118-26.01-8.416-29.166-6.994-9.714.95-12.882 6.706-16.888 8.016.116-.334.03-.673-.388-.909-.673-.373 2.483-9.73 7.846-16.289 11.792-14.434 38.08-17.217 46.376 1.001 1.33 3.312.929 10.823 2.69 9.28-.288.924.122 1.356.613 1.388Zm19.569-23.683.002.002c-.027 0-.025.005-.002-.002Zm-2.871-10.064c6.097-.979 8.008-2.184 3.2.02-8.875 1.756-7.334 2.026-7.65.24.306.062.701.088 1.166.081-1.336.598-1.738 1.746 3.284-.34Zm2.088-1.958c-1.755.805-1.734 1.003-6.657 1.618-.201-.837-.419-1.122-.585-.394-.387-2.467-1.253.353 7.242-1.224Zm3.401-2.864c5.098-1.077 5.973-1.75.081 1.186-6.032 1.218-5.92 1.676-.081-1.186Zm-13.668.115c.136.388.089.292 0 0Zm.715 12.874c-.049.673.542.72.487 1.403-2.507 1.144-4.834 2.745-6.777 4.818 2.203-19.495-7.891-32.81-7.844-28.824.094-.155 6.373 5.982 6.817 24.266.092 3.219-.463 5.254-.346 6.183a19.599 19.599 0 0 0-2.162 3.627c.211-1.058-.336-3.693-.803-3.67-.888.062-.12 4.737.638 4.036-.781 1.802-.566 1.731-.651 1.459-1.362-4.141-2.852-8.714-1.183-18.914.101-.615-.794-.74-.879-.185-2.934 17.887 3.828 19.637-2.515 13.153-3.342-12.606 2.709-18.563-3.465-28.358-2.432-3.86-5.942-6.668-9.853-7.203 12.816-4.08 30.393 4.982 28.536 28.21Zm-1.819-19.867c1.144-.435 1.718-1.405.267.396-.084-.132-.18-.264-.267-.396Zm.151-1.778c-.858.877-1.185 1.499-.008-.285-.002.104.002.198.008.285Zm3.662-4.614c-.504.707-.965 1.361-1.382 1.96-.506.459-.928.855-1.234 1.162.184-.682-.057-.354 1.813-2.91 1.535-2.1.307-.733.803-.212Zm1.155-.26c.553-.73.474-.687.384-.33l-.384.33Zm6.072-5.038c-1.478 1.2-1.392 1.294-.058-.439-.004.198.015.343.058.439Zm4.797-2.953c-.314.219-.44.344-.038-.015.01.008.027.008.038.015Zm-25.69.838c2.585-2.838 27.543-14.996 31.151-16.233 13.884-4.794 23.583-3.87 32.614-4.967-1.204 1.316.538.013-6.876 3.072 3.142-2.678 1.895-3.628-2.729 1.165-4.859 2.127-4.402 2.608.813-2.067.427-.388-.162-1.067-.612-.656-2.432 2.142-4.349 4.104-4.879 4.865-4.398 2.097-3.964 2.654 2.195-3.422.436-.421-.196-1.06-.613-.655-3.13 3.072-5.134 5.216-5.963 6.252-9.199 4.729-6.902 4.214-3.843 1.527.37.449 4.238-3.702 7.165-6.355 2.419-2.178-4.176 1.269-6.546 4.856-.646-.126-4.6 3.958 3.011-3.924.437-.449.256-2.961-6.004 5.346-1.94 2.67-3.576 3.2-4.146 4.375-6.236 3.803-5.766 4.092-4.789 2.453 3.137-3.338 6.164-7.305 2.357-3.773.938-1.462 2.11-3.266 3.581-5.497.324-.468-.408-.992-.76-.479-4.475 6.745-6.256 9.936-9.13 12.182 2.904-3.738 2.407-4.494 1.461-3.398 2.382-4.187 4.633-7.477 4.067-7.838-1.317-.786-5.487 11.14-9.738 14.562.594-2.019.237-1.248 1.997-3.65.271-.372-.191-.794-.568-.604 2.948-6.751.341-3.05.8-3.817-3.386 6.99-1.195 4.947-7.75 12.399.79-1.674-.156-.215 3.119-4.605.319-.437-.377-.999-.757-.483-1.869 2.501-.137.102-.914-.143-.987-.324-.35 1.773-3.111 5.616.329-1.16.884-3.157 2.173-6.43.195-.502-.608-.872-.86-.272.162-.274-1.339 3.455-2.024 5.94-.376-.7-1.076.77-1.958 2.084.863-2.827 2.263-6.961 4.648-12.814.201-.479-.615-.892-.856-.27.173-.284-4.172 10.125-5.41 15.377-.303.413-.561.77-.792 1.09 1.121-6.861 4.274-15.635 3.698-15.818-1.394-.404-3.997 11.428-4.757 16.861-1.362-1.752.897-10.94 1.514-13.074.177-.564-.696-.832-.859-.268.073-.119-1.846 7.675-2.139 11.597-2.865-3.092-6.332-5.389-10.006-6.6.493-.522 2.986-3.475 3.025-3.507ZM44.045 130.435c.38-.034.289-.019 0 0Zm177.245-91.63c-16.205 3.16-20.872-2.856-50.757 12.025-14.619 7.126-20.39 11.925-22.083 14.484-20.907-4.03-23.557 14.634-20.308 10.742 1.999 2.438 6.307-.476 9.988-1.224-6.367 4.695-16.286 19.29-16.747 23.1-3.185.99-5.986 2.437-8.397 4.066-.781-.043-2.037.072-4.067.3.73-13.336 11.224-31.538 11.54-33.514 4.966-.004 10.448-7.21 8.873-9.285 6.306-.855 7.897-9.346 9.351-11.873 6.217-11.12 1.548-14.538-.167-14.975-.098-1.07-1.037-2.459-3.941-2.508-3.187-.006-3.488 1.993-9.319 5.178-7.007 3.791-15.329 13.915-10.604 20.438-1.89.607-2.381 8.707 1.846 11.826-.22.113-9.293 17.752-9.387 20.781-3.83-4.385.143-42.092 8.26-51.672 4.144.424 6.554-1.595 8.595-3.798 2.125-1.367 2.927-2.472 3.028-3.194.647-.304 1.183-.779 1.778-1.262 11.578-9.6 11.788-25.569 7.676-25.935-3.305-3.747-11.973-2.827-16.376-.256-9.473 5.544-7.643 15.844-9.814 19.327-3.38 5.59-2.259 10.573 1.033 13.432-3.083 3.193-10.385 23.704-10.517 44.502-.049 7.117 3.499 13.474 2.099 23.265-.175 1.005-3.205.202-8.282 4.026-2.976-5.682-1.308-15.1-1.52-18.41 2.438-2.143 2.15-8.255 1.499-8.739 1.358-3.657 4.152-4.255 3.474-12.96.004-11.53-7.33-16.313-10.712-15.14-17.904-2.229-17.487 24.69-7.08 28.313-.79 4.081 6.013 9.265 8.432 9.487-1.258 9.974 1.108 18.207 2.735 20.295-10.137 10.462-.903 9.534-10.338-8.616-5.337-10.419-16.061-20.144-27.785-20.506-1.323-.594-3.042 2.832-2.56 2.033-.049.186 5.5 33.97 10.31 31.686a2.652 2.652 0 0 0 1.132 1.671c-.43.394-.63.852-.867 1.691-.316-.867-1.601-1.946-2.737-1.563-1.339.383-.978 2.946-.094 3.481-.692 1.039-.115 2.667.513 3.889-4.204-3.108-6.356 1.19 4.203 12.996-.546-.113-1.522.119-2.858.061-4.352-.083-24.59-7.008-39.553 8.778a22.525 22.525 0 0 1 4.334-6.223c.307.177.459.2.175-.181.854-.841.76-.732.848-.647.14.128 1.278.641.412-.507 11.556-9.876 30.9-7.019 31.23-8.096.604-1.895-10.696-3.285-21.758.709-.277-2.702-2.02-9.019-5.92-17.684-2.092-4.722-12.295-17.206-12.186-17.036-2.79-4.345-2.782-7.332-4.048-7.127-1.22-.967-2.112 1.337-1.82.851.656 17.56-11.17 26.64-12.047 66.703-.169 6.806 3.867 41.719 14.898 57.188 9.695 13.722 30.998 21.09 47.446 39.329 6.879 7.654-1.644 20.796 1.746 21.354-.335 1.826 4.326 2.088 6.239 2.12 3.939.009 1.603-3.719 3.326-7.986 9.283-20.159 39.956-12.41 80.087-24.515 42.463-12.906 60.574-46.284 86.93-87.835 1.181-1.886 5.978-9.682 3.726-9.861-1.445-1.833-4.552 5.209-24.623 8.049-11.07 1.58-11.061.865-14.763 2.583 2.331-19.244-8.993-31.905-16.322-35.82 4.748-.709 10.369-1.309 15.096-.856 1.217 1.084 5.357 2.201 2.827 9.746-1.783 5.289 3.719 8.812 8.459-.008 3.58-6.823 2.395-11.015 1.08-12.612-.077-1.405-.442-3.83-1.339-7.965-1.725-7.83-19.189-14.856-31.915-15.013 15.598-15.831 11.24-10.82 25.807-35.686 9.915-17.042 13.338-16.267 13.515-17.845.493-.617.053-1.765-.935-1.571Z" class="Vector"/>
      <path stroke="#212121" stroke-linecap="round" stroke-linejoin="round" stroke-width=".16" d="M135.29 80.318c.053-.058.074-.083.074-.079" class="Vector"/>
      <path fill="#212121" d="M141.07 75.068c0 .002-.006.002-.009.002.003-.002.006 0 .009-.002Z" class="Vector"/>
      <path stroke="#212121" stroke-linecap="round" stroke-linejoin="round" stroke-width=".16" d="m55.412 129.97-.064-.009" class="Vector"/>
      <path fill="#212121" d="M28.396 136.574c.256-.175.196-.124 0 0ZM10.652 199.278c.137.456.103.307 0 0Z" class="Vector"/>
      <path stroke="#212121" stroke-linecap="round" stroke-linejoin="round" stroke-width=".16" d="m106.244 104.586.04-.007M121.377 169.839a.401.401 0 0 0 .017-.021M123.99 159.933a2.808 2.808 0 0 1-.032.036M109.229 210.119a.538.538 0 0 1 .07-.053M123.656 195.191c0 .002-.025.012-.061.029M138.491 205.787l.099.006M128.644 191.593c.049-.041.072-.058.07-.058" class="Vector"/>
      <path fill="#212121" d="M130.273 202.951c.002 0 .004.004.007.004a.24.24 0 0 1-.007-.004Z" class="Vector"/>
      <path stroke="#212121" stroke-linecap="round" stroke-linejoin="round" stroke-width=".16" d="M82.144 259.009a1.364 1.364 0 0 0-.08.064" class="Vector"/>
      <path fill="#212121" d="M81.852 259.219c.243-.172.188-.125 0 0Z" class="Vector"/>
      <path stroke="#212121" stroke-linecap="round" stroke-linejoin="round" stroke-width=".16" d="M135.525 6.562c0 .008.004-.03.013-.143M119.515 68.806l.104-.002M123.155 58.319l.006-.053M68.05 119.265v-.004M70.237 111.075a.841.841 0 0 0 .02-.144M70.289 110.783l.023-.061M60.242 121.117l.031.039" class="Vector"/>
      <path fill="#212121" d="M71.828 134.755c-.057-.063.01.02.055.073-.02-.022-.038-.049-.055-.073ZM74.448 118.827c-1.99-3.473-2.31-1.246-2.219-1.399-.14.496.154.449 1.091 2.067.427.724 1.568.098 1.128-.668Z" class="Vector"/>
      <path stroke="#212121" stroke-linecap="round" stroke-linejoin="round" stroke-width=".16" d="m67.49 111.699.055.044M67.993 113.849s-.003-.011-.006-.008" class="Vector"/>
      <path fill="#212121" d="M67.955 113.766s-.002.002 0 .004c.03.07.042.096 0-.004Z" class="Vector"/>
      <path stroke="#212121" stroke-linecap="round" stroke-linejoin="round" stroke-width=".16" d="M69.302 113.871c-.004.01-.006.04-.008.057" class="Vector"/>
      <path fill="#212121" d="m69.087 114.492.002-.002c.038-.03.093-.121-.002.002Z" class="Vector"/>
      <path fill="#212121" d="M69.082 114.494c-.017.03-.008.011.007-.004 0 .002-.004.004-.007.004Z" class="Vector"/>
      <path stroke="#212121" stroke-linecap="round" stroke-linejoin="round" stroke-width=".16" d="m58.156 125.937-.007-.048M161.318 107.933a.36.36 0 0 1 .042-.049M179.618 119.284a1.113 1.113 0 0 1-.078.056M162.022 123.606c.003 0-.051-.023-.166-.077" class="Vector"/>
      <path fill="#212121" d="M158.286 121.326c.15.072.102.044-.025-.015.01.004.019.009.025.015ZM182.971 108.222l.006-.017c.003-.004.007-.006.007-.008l-.013.025Zm-.724.632.002.003c-.196.134-.16.1-.002-.003Zm-1.829.624s-.003-.002 0-.002c.004 0 .002.004.008.006l-.008-.004Zm-.037-.053c.019-.028-.006-.017 0 0Zm2.925-2.668c-3.407-.359-4.938 1.716-3.975 2.476a.665.665 0 0 0-.145.799c1.526 2.916 7.916-2.868 4.12-3.275Z" class="Vector"/>
      <path stroke="#212121" stroke-linecap="round" stroke-linejoin="round" stroke-width=".16" d="M185.975 115.552c-.005.003-.019.022-.047.056M183.901 116.6c-.015.004-.031.004-.046.008M174.781 112.101c.072-.006.102-.008.098-.006" class="Vector"/>
      <path fill="#212121" d="M176.882 104.52c0 .002 0 .004.002.004-.062-.028-.062-.028-.002-.004Zm.032.021v-.004c.045.017.026.015 0 .004Zm.064-.206c7.073-3.928 1.277 1.288-.047.189-.017-.034.036-.126.047-.189Zm4.392-2.327c-.622-.648-1.326-.79-2.022-.667-.028-.325-.314-.664-1.145-.783-2.344-.349-1.804 1.19-.706 1.665-.865.626-1.557 1.386-1.819 1.654-.224 4.556 7.649.596 5.692-1.869ZM175.677 103.876c.002-.042-.006-.072-.002-.114-.155.254-.14.257.002.114Z" class="Vector"/>
      <path stroke="#212121" stroke-linecap="round" stroke-linejoin="round" stroke-width=".16" d="M175.958 98.87a.25.25 0 0 1 .036-.039M172.362 99.532c.091-.064.125-.085.121-.08" class="Vector"/>
      <path fill="#212121" d="M185.247 111.09v-.002c.047-.096.066-.12 0 .002Zm-2.803-.181c-.094.153-.186.673-.092.519.301 1.546 3.813-.815 2.013.596-.841.626.513 2.602 2.107-.036 1.35-2.542-2.912-2.923-4.028-1.079Z" class="Vector"/>
      <path stroke="#212121" stroke-linecap="round" stroke-linejoin="round" stroke-width=".16" d="M157.146 108.507a.318.318 0 0 0 .026-.051M155.541 116.497c.002.003 0-.017-.002-.059M157.193 108.416c.002-.004.011-.028.028-.062" class="Vector"/>
      <path fill="#212121" d="M182.448 105.802c.002 0 .002 0 .002-.003.109.088.156.139-.002.003Zm.495-1.259c-.207-.123.019-1.59-2.568.364-1.668 1.301-.737 2.317.576 1.748.489-.204 1.113-.651 1.49-.849 1.01 1.273 2.018-.46.502-1.263ZM173.013 116.316c-2.696 1.242-3.71 1.55-9.097 3.254-1.815.559-.544 2.573 9.702-2.066.753-.347.26-1.586-.605-1.188Z" class="Vector"/>
      <path stroke="#212121" stroke-linecap="round" stroke-linejoin="round" stroke-width=".16" d="M149.537 124.892c.013-.013.03-.036.028-.032M102.431 126.963c-.006.005.028-.021.021-.019M41.291 193.081c0-.007-.021-.06-.053-.149" class="Vector"/>
      <path fill="#212121" d="M159.99 126.063c6.253 14.009 2.562 29.569-4.861 42.151-9.004 14.684 17.705-15.002 7.004-40.452-2.09-4.782-2.429-1.229-2.143-1.699ZM127.403 106.693c-.061.015-.082 0-.034.009a.237.237 0 0 0 .034-.009Z" class="Vector"/>
      <path fill="#212121" d="M151.42 117.894c3.649 1.816-3.548-14.283-19.934-13.217-8.297.609-21.134 6.785-21.798 7.882-.128.211-.09.817.004.66.442.668 1.074.025 2.637-.856 29.755-16.672 38.929 5.448 39.091 5.531ZM37.666 137.338c-.08.023-.053.013.008 0-.004-.002-.006 0-.008 0Z" class="Vector"/>
      <path stroke="#212121" stroke-linecap="round" stroke-linejoin="round" stroke-width=".16" d="M101.267 141.825c.003.002.006.005.008.005" class="Vector"/>
      <path fill="#212121" d="M104.828 144.798c-.002 0-.004 0-.004-.002-.032-.032-.017-.011.004.002ZM74.326 108.725c3.632 8.249 3.045-3.019-10.816-16.802-8.71-8.767-7.141-4.233-6.87-4.68 6.898 5.676 14.12 13.415 17.686 21.482ZM85.464 226.167c.004-.009.013-.006.017-.013.03-.057.03-.063-.017.013ZM76.376 246.605c.762-.387 1.528-5.333 9.846-19.948.305-.545-.457-.95-.74-.503-.502 1.007-12.245 22.199-9.106 20.451ZM75.05 251.513c1.629-4.324-.162-2.285-.056-2.462-2.745 7.345-1.757 7.995.056 2.462ZM71.149 262.279l.01-.043c-.042.068-.038.07-.01.043ZM71.15 262.279c-.592 2.146-2.712 10.958-1.419 11.026.989.04-.157-.971 1.87-9.246.795-3.262-.294-1.942-.452-1.78ZM110.836 180.032c.101-.149.365-2.416-2.478 2.117-2.635 4.153-2.251 5.007 2.478-2.117ZM72.955 150.714c.568.139.543-.236 1.48-3.879.147-.551-.72-.809-.876-.206.302-.498-1.453 3.877-.604 4.085ZM76.548 144.191c.09-.675-.794-.711-.877-.209.094-.155.051 7.601-5.01 18.774-1.64 3.579 5.172-4.071 5.887-18.565Z" class="Vector"/>
      <path fill="#212121" d="M75.573 144.977c-.017.106-.007.01.002-.039-.002.013-.002.024-.002.039ZM76.431 150.599c.414-.685-1.938 6.228-1.089 6.434.558.128.547.07 1.965-6.223.132-.583-.75-.781-.876-.211Z" class="Vector"/>
      <path fill="#212121" d="M76.905 153.959a.47.47 0 0 0-.212.281c-2.833 8.712 2.703-1.855.212-.281ZM64.565 175.112c.117-.57.926-2.659.911-2.731-.24-.811-.924.074-.83-.081-2.067 4.92-.5 4.886-.081 2.812ZM65.852 179.753c.472-4.428 2.996-9.75 2.346-10.089-1.293-.779-4.707 14.565-3.185 14.533.69-.017.301-.567.84-4.444ZM62.8 183.694c-.439.015-.535.613-.443.46.48 4.737 1.87-.498.442-.46ZM64.629 188.48c-.692.17-.04 3.419.67 3.213.724-.211.032-3.419-.67-3.213ZM69.377 147.348c-.824.703-1.567 3.256-1.123 2.527.976.511 2.752-4.074 1.123-2.527ZM73.237 145.698c.846-1.096-1.554-.834-1.528.654.157-.262-.361 1.667 1.528-.654ZM111.282 166.935c.763-.747-4.705-5.697-6.402-7.024-9.723-7.483-9.119-3.376-8.56-4.302-.288.945 1.476.266 5.658 3.253 7.626 5.327 8.384 8.935 9.304 8.073ZM107.659 160.403c.613-.611-1.791-2.137-1.998-2.144-1.61-.085 1.401 2.691 1.998 2.144ZM91.72 151.719c-5.252-2.329-5.961-4.407-6.49-3.53-.112.186-.048.713.053.55 5.311 4.869 8.027 3.71 6.437 2.98ZM89.837 169.63c-.419.034-.504.645-.413.49 1.969 19.759 1.9-.639.412-.49ZM105.268 107.275c.504-.181.25-1.046-.367-.826-2.547.9-2.342 1.75.367.826Z" class="Vector"/>
      <path stroke="#212121" stroke-linecap="round" stroke-linejoin="round" stroke-width=".16" d="m80.387 117.822.017.068" class="Vector"/>
      <path fill="#212121" d="M59.558 102.619c-1.656-3.302-1.167-4.663-1.91-4.614-2.059.145 4.1 10.843 4.993 10.26.51-.358-3.166-5.853-3.083-5.646ZM60.935 101.999c.092-.155-.452-.228 1.45 2.774 1.18 1.935 1.684.782 1.413.424-1.49-2.025-2.513-4.758-2.863-3.198ZM139.372 119.523l.013.008c-.038-.023-.085-.047-.013-.008Zm-2.519-.262c6.649 3.585 12.872 3.453 12.881 3.249.032-1.161-4.661.168-12.411-4.016-.89-.498-.66 1.084-.47.767Z" class="Vector"/>
      <path stroke="#212121" stroke-linecap="round" stroke-linejoin="round" stroke-width=".16" d="M139.311 119.487a.628.628 0 0 0 .061.036M139.387 119.531c-.01-.004-.007-.004-.014-.009" class="Vector"/>
      <path fill="#212121" d="M145.423 120.389c.25-.411-1.471.49 4.234 1.546.696.13.721-.756.256-.86-3.493-.647-4.276-1.439-4.49-.686Z" class="Vector"/>
      <path fill="#212121" d="M151.215 120.208c-1.168-.042-1.96-.323-1.985.32.096-.156-.696.483 1.953.579.615.006.615-.899.032-.899ZM134.977 109.393c-3.167-.556-2.676.322-2.584.166-.051.967 1.853-.375 10.641 3.328 1.104.489 1.544-1.953-8.057-3.494ZM151.715 111.712c-.858-1.612-3.122-3.656-3.452-3.667-1.764-.004 1.206 1.684 2.653 4.077.871 1.506 1.452.833.799-.41ZM117.551 117.138c-.036.967.677-.1 8.326.865.365.047.634-.462.348-.752-.326-.345-8.651-1.147-8.674-.113ZM150.393 129.718c1.418-2.205-3.384-.053-4.855 10.19-.802 4.883 1.281 11.637 1.93 11.532 1.975-.319-5.587-8.25 2.925-21.722ZM149.787 155.453c-.299-.849-.611-3.172-1.309-2.014a.427.427 0 0 0-.062.296c.562 3.509 1.55 2.219 1.371 1.718Z" class="Vector"/>
      <path fill="#212121" d="M149.164 147.651c1.908-.301-2.34-1.259 1.12-14.013 1.967-6.939 3.431-6.172 2.59-6.783-2.528-1.823-7.154 21.373-3.71 20.796Z" class="Vector"/>
      <path fill="#212121" d="M152.253 134.368c.702.064 1.272-3.621.832-3.783-.93-.36-1.575 3.713-.832 3.783ZM164.666 147.623a.503.503 0 0 0-.171.307c-2.682 13.944 2.602-2.138.171-.307Z" class="Vector"/>
      <path fill="#212121" d="M162.005 163.484c-3.247 6.312 2.135 1.169 5.289-11.641.215-1.018 1.58-10.17.546-10.264-1.831-.145 1.804 7.204-5.835 21.905ZM169.145 152.569c.094-.158-.903 2.574-1.266 3.481-.111.285.258 2.488 2.105-3.173.207-.581-.66-.86-.839-.308ZM167.183 131.334c.091-.155.753 4.209 1.684 3.845.79-.37-1.185-5.393-1.684-3.845ZM161.877 80.12c2.163 5.588 1.926 9.486 2.426 9.914 1.349 1.316.301-3.395-.139-5.465-2.024-7.807-2.5-4.096-2.287-4.45ZM175.622 132.116c.577-.652-2.581-2.532-2.801-2.513-1.817.054 2.428 2.947 2.801 2.513Z" class="Vector"/>
      <path stroke="#212121" stroke-linecap="round" stroke-linejoin="round" stroke-width=".16" d="M173.835 128.005c-.011-.009-.023-.02-.036-.028" class="Vector"/>
      <path fill="#212121" d="M185.603 138.43c.395.388 1.059-.223.598-.675-15.101-15.122-15.049-11.577-14.889-11.841-.705 1.331.188-1.639 14.291 12.516ZM190.89 150.561c-.094.155-.107.615-.013.462 2.37 4.888 1.407 7.064 2.476 6.8.976-.262-1.483-8.878-2.463-7.262ZM194.453 154.185c-.491.815 1.763 4.115.16 11.915-.126.633.762.782.867.252 1.05-5.097.26-14.296-1.027-12.167Z" class="Vector"/>
      <path fill="#212121" d="M195.123 159.209c.011.072 0 .03-.002-.026a.114.114 0 0 1 .002.026ZM196.473 162.7c.121-.202-.526 2.244.345 2.257.573.009.474-.613.553-2.248.028-.558-.873-.637-.898-.009ZM191.885 127.351c-1.083-.862-2.938-1.986-2.202-.992-.13.592.299.681.528.596 3.858 3.983 3.646 1.969 1.674.396ZM187.158 109.261c-.805 1.763 2.073-1.386 13.32.505.22.029 2.562-.801-4.221-1.44-6.719-.649-9.193 1.086-9.099.935ZM189.805 111.275c.073.607 6.004.652 4.545-.494-.138-.119-4.628-.377-4.545.494ZM179.053 98.518c.44 1.118 2.483-1.569 9.067.47l-.008-.001c3.824 1.154 3.339-.345-1.847-1.35-6.392-1.224-7.389 1.169-7.212.881Z" class="Vector"/>
      <path fill="#212121" d="M188.121 98.989c.114.034.112.038 0 0ZM183.652 100.441c.077.668 2.765.411 2.562.396 9.234.368-2.688-2.012-2.562-.396ZM129.402 139.232c.011-.031.006-.055.021-.095-.025.047-.031.078-.021.095ZM190.364 65.087c.59-.143.365-1.013-.211-.87-6.448 1.651-7.932 2.959.211.87ZM170.816 77.682c-.015.751 4.725.468 4.764-.266.002-.73-4.723-.445-4.764.266ZM172.337 89.94a.266.266 0 0 1 .023-.006s.047-.019-.023.007Z" class="Vector"/>
      <path stroke="#212121" stroke-linecap="round" stroke-linejoin="round" stroke-width=".16" d="M177.998 91.286c-.057.028-.093.043-.087.04M177.999 91.286c.011-.002.004 0 .017-.007" class="Vector"/>
      <path fill="#212121" d="M208.584 48.51c.199-.306-.091-.857-.593-.638-1.759.77-1.704 1.486-.288 1.056-7.385 3.532-5.78 3.358-5.756 3.32.544 1.047 14.631-7.448 6.637-3.737ZM209.479 49.543c-7.159 5.084-14.313 6.962-14.669 7.554-.647 1.069 1.836.179 4.573-1.028.431.261 2.141-.235 3.971-.928-3.749 2.056-5.959 3.189-7.266 3.817-3.934 1.209-7.034 2.058-7.184 2.303-1.17 1.942 14.048-3.632 16.171-4.45 4.171-1.534 2.551-2.024 2.147-1.845-1.731.78-3.687 1.522-5.662 2.21 4.272-2.289 5.037-3.102 4.917-3.362 2.588-1.215 3.619-2.084-2.079-.126 8.704-4.385 7.73-6.165 5.081-4.145ZM191.267 78.1c.509-.271.116-1.078-.427-.79-3.887 2.016-3.371 2.759.427.79ZM158.658 68.13c.16-.147.06.076.803-4.058.128-.688-.778-.746-.857-.269.246-.406-1.552 5.793.054 4.326Z" class="Vector"/>
      <path stroke="#212121" stroke-linecap="round" stroke-linejoin="round" stroke-width=".16" d="M177.945 58.46c.009-.011.019-.03.021-.032" class="Vector"/>
      <path fill="#212121" d="M188.769 54.102c-4.105 3.955-4.047 4.724 3.427-1.933.434-.38-.16-1.07-.61-.663-1.006.899-1.083 1.376 2.884-4.524.309-.451-.404-1.005-.76-.477-2.321 3.447-3.939 5.96-4.941 7.597ZM133.461 92.674c-.135.226.533 3.722 1.291 3.55.688-.169-.446-4.946-1.291-3.55ZM35.531 212.016a.609.609 0 0 1 .227-.017c-.216-.19-.018-.111-.227.017ZM35.532 212.016c-.022.013-.024.007 0 0ZM38.904 203.932c-11.817-7.172-12.669-6.64-.44.786.477.285.983-.458.44-.786ZM25.142 183.332c-9.394-4.764-9.268-3.696-.435.788.57.279.941-.539.435-.788ZM19.508 163.314c-7.447-5.178-7.63-5.725-7.989-5.046.094-.153-1.8-.669 7.558 5.833.429.294.986-.413.431-.787ZM17.625 141.511c.344-.652-4.355-3.737-4.714-3.098-.356.677 4.364 3.717 4.714 3.098ZM26.167 135.311c1.072-.219-.245-1.269-1.264-2.276-1.552-1.984-4.014-4.475-4.394-4.866-.369-.36-.576-.139-.672.146-7.573-6.725-13.858-11.013.74 1.985 5.618 4.969 5.517 5.652 5.59 5.011ZM15.727 203.391c-3.138-1.909-3.42-2.452-3.773-1.833.095-.153-1.14-.106 3.331 2.619.46.292.984-.436.442-.786ZM10.47 196.004c-.868-.488-.638 1.107-.444.783.507.286.974-.483.445-.783ZM28.761 218.992c-6.22-3.142-6.8-4.63-7.287-3.774.094-.156-1.385-.036 5.043 3.632 3.032 1.714 2.605.323 2.244.142ZM7.892 172.234c-.707-.686-1.437-1.478-2.097-2.674-1.543-2.791-1.62-.447-1.439-.75 3.154 5.953 4.054 3.926 3.536 3.424ZM5.949 165.598c-.017-.4-.423-.336-1.358-2.131-1.334-3.174-1.546-.877-1.416-1.092 1.74 4.339 2.795 3.938 2.774 3.223ZM4.787 159.775c-.43-.56-.388-1.66-1.054-1.454-1.742.507 3.638 5.256 1.054 1.454ZM39.105 154.917c-.11.145-.452 9.046-.452 9.254-.022.69.881.62.896.122.034-2.83 1.168-11.45-.444-9.376ZM40.281 168.459c0-.089-.004-.028 0 .028v-.028ZM28.951 168.74c-.922-.841-1.217-1.132-1.51-.649-.4.666 1.515 2.261 3.325 3.455.739 1.035 1.462 2.123 2.953 4.411.1.156 2.021 1.414-1.117-3.321 1.437.737 1.83.543-1.353-1.967-1.74-2.41-2.21-2.295-2.298-1.929ZM21.569 138.449c.412-.43-.094-.768-1.924-2.657-.773-.792-.854 1.029-.623.652 1.611 1.663 2.07 2.508 2.547 2.005Z" class="Vector"/>
      <path stroke="#212121" stroke-linecap="round" stroke-linejoin="round" stroke-width=".16" d="M23.795 133.142a.33.33 0 0 1-.038-.049" class="Vector"/>
      <path fill="#212121" d="M7.661 142.175c-.493-.224-.707.328-.613.172-.435.826 1.14.716 6.894 3.924 4.394 2.374 5.49 1.154-6.28-4.096ZM33.355 208.876c.287-.545-10.401-6.093-10.726-5.525.094-.153 10.09 6.638 10.726 5.525Z" class="Vector"/>
      <path stroke="#212121" stroke-linecap="round" stroke-linejoin="round" stroke-width=".16" d="M48.221 209.402c.003.002.02.025.043.057" class="Vector"/>
      <path fill="#212121" d="M67.376 251.5c-.012-.275-7.989-9.419-8.285-8.927-.38.628 8.345 11.037 8.285 8.927ZM56.902 236.152v-.002c.01.019.02.024 0 .002ZM86.325 134.483c-.022.941 2.152.085 5.31.187 10.86.43-5.208-2.137-5.31-.187ZM43.898 147.219c-3.091.174-10.393-.324-10.297-.482-.312 1.065 5.683 1.525 7.11 1.514 5.382-.064 3.407-1.045 3.187-1.032ZM49.28 142.673c-.459.036-.544.594-.452.441-.002 1.878 29.428-3.402.452-.441ZM130.262 209.273c.034-.061.064-.112.096-.174a4.186 4.186 0 0 0-.096.174ZM168.658 193.849c.025-.053.066-.057.097-.096.032-.091.007-.072-.097.096ZM210.175 167.401l.205-.415c-.239.392-.276.477-.205.415Z" class="Vector"/>
      <path stroke="#212121" stroke-linecap="round" stroke-linejoin="round" stroke-width=".16" d="M159.341 208.861c.009-.013.004-.007.021-.028" class="Vector"/>
      <path fill="#212121" d="M114.464 211c.311-.589-.517-.941-.765-.477.37-.606-4.827 8.974-4.56 9.489.547.973.668.062 5.325-9.012ZM113.648 217.868c.581.35 7.507-10.617 6.841-11.043-.974-.585-7.823 12.67-6.841 11.043ZM184.271 166.877c.094-.155-2.252 6.283-3.339 9.019-.199.504.623.873.856.266 4.639-11.665 2.622-9.674 2.483-9.285ZM183.56 172.04c.092-.153-1.563 8.548.865.266.164-.575-.686-.83-.865-.266ZM221.057 160.848a.031.031 0 0 0 .006-.013l-.006.013Z" class="Vector"/>
      <path fill="#212121" d="M221.898 160.806c-.329-.665-.783-.034-.841.042-7.537 14.433 1.315 1.129.841-.042ZM175.195 168.789c0-.004-.002-.006-.004-.01-.032.057-.021.044.004.01Z" class="Vector"/>
      <path stroke="#212121" stroke-linecap="round" stroke-linejoin="round" stroke-width=".16" d="M124.899 190.954c-.006.017-.017.036-.025.053M216.595 159.633c.027-.041.042-.073.044-.077" class="Vector"/>
      <path fill="#212121" d="M218.292 156.746c.327-.539-.44-.978-.739-.518-4.413 7.296-4.846 9.749.739.518ZM218.751 160.231c1.189.822 5.447-7.292-.147-.554-.094.207.053.705.147.554ZM218.604 159.677c.002-.008-.002-.023.002-.032-.036.064-.032.064-.002.032Z" class="Vector"/>
      <path stroke="#212121" stroke-linecap="round" stroke-linejoin="round" stroke-width=".16" d="M201.357 186.662c-.002.002.007-.011.043-.042M183.59 201.814a.137.137 0 0 0-.023.019M180.722 215.537a1.495 1.495 0 0 0-.099.019" class="Vector"/>
      <path fill="#212121" d="m172.211 217.998-.007.002c.051-.004.07-.01.007-.002ZM161.09 224.879c.121 1.541 13.727-3.044.414-.481-.442.091-.508.636-.414.481ZM151.048 228.098c-.025-.032-.064-.06-.066-.096-.023.043.007.075.066.096ZM130.438 234.553c-.421.041-.511.641-.419.486.1 1.281 17.878-2.127.419-.486ZM114.792 237.819c.092-.153 28.105.045 27.994-1.377-.045-.533-28.058.723-27.994 1.377ZM94.292 248.59c-2.504.574-4.427 1.183-4.75 1.715-.933 1.542 2.53-.413 6.945-1.266 18.609-3.277 11.804-2.915 3.736-1.586 3.446-.616 8.6-1.314 16.156-1.657.559-.019.559-.915-.069-.894-17.995.788-23.911 3.404-22.018 3.688Z" class="Vector"/>
      <path stroke="#212121" stroke-linecap="round" stroke-linejoin="round" stroke-width=".16" d="m188.469 219.765.033-.017" class="Vector"/>
      <path fill="#212121" d="M181.271 221.053c-.006-.008-.027-.008-.034-.019-.015.028-.002.03.034.019ZM118.866 63.354c.214-.351-.576 2.376.237 2.502.638.087.534-.56.658-2.366.036-.662-.859-.651-.895-.136ZM120.119 64.02c.006-.023.034-.027.045-.048-.005-.011-.013-.005-.045.048ZM123.838 62.353c-.788-.302-2.568 3.577-2.002 3.826.721.269 2.624-3.55 2.002-3.826Z" class="Vector"/>
      <path fill="#212121" d="M123.424 64.646c.359 2.89 5.113-7.966.098-.328-.096.152-.192.482-.098.328ZM118.198 29.19c.446-.455-.212-1.05-.611-.666-1.96 1.92-1.076 2.314.611.666Z" class="Vector"/>
      <path stroke="#212121" stroke-linecap="round" stroke-linejoin="round" stroke-width=".16" d="m112.273 32.582.004.06M112.279 32.657a.166.166 0 0 0 0 .044" class="Vector"/>
      <path fill="#212121" d="M88.69 84.097v-.002c.002.006.004.01.009.014a.043.043 0 0 1-.009-.012Zm.952 2.318c.137-5.78-1.968-2.802-1.072-2.355.24.115.173 2.219.167 2.425.004.5.848.63.905-.07ZM91.938 82.466c.254-.42-.434 1.737-.48 3.017-.266.268-.417.572-.272.792.566.872 2.876-1.65 1.298-1.384.079-.552.184-1.271.337-2.27.094-.596-.805-.732-.883-.155Z" class="Vector"/>
      <path stroke="#212121" stroke-linecap="round" stroke-linejoin="round" stroke-width=".16" d="M88.758 86.777c.04.026.073.047.077.051M121.868 200.788c.01-.013.021-.028.034-.041" class="Vector"/>
      <path fill="#212121" d="M125.121 200.087c-2.049 1.178-1.355 1.855.442.782.526-.309.056-1.069-.442-.782ZM111.558 220.485c.01-.028.019-.049.027-.077-.036.064-.04.081-.027.077ZM117.073 218.122c.034-.1.1-.141.16-.196-.015-.017-.064.038-.16.196Z" class="Vector"/>
      <path stroke="#212121" stroke-linecap="round" stroke-linejoin="round" stroke-width=".16" d="m116.766 224.089-.007.019" class="Vector"/>
      <path fill="#212121" d="M131.238 191.663c-2.158 1.65-1.684 2.091-1.588 1.935.777.948 1.464-2.184 7.357-3.64 4.377-1.295-1.339-1.857-5.769 1.705ZM131.437 194.379c.136.852 1.407.107.709-.434-.598-.441-.818.615-.709.434ZM132.581 183.637c-1.785 2.716-1.678 2.838-1.58 2.678.333 2.067 2.637-3.449 6.209-7.481.121-.137.634-3.198-4.629 4.803ZM188.385 164.416c.352-.428-.341-1.022-.726-.526-2.429 3.068-1.727 3.62.726.526ZM145.419 189.602c2.019.03 3.296.741 2.984.554.906.545 2.152-.611-1.421-1.314-4.1-.769-3.577 1.377-1.563.76ZM147.394 203.438c.587-.106.439-.971-.146-.888-6.454.956-6.577 1.865.146.888ZM92.988 62.123c1.383 4.729 2.483 9.225-.361 16.098-.19.442.606.896.869.234.98-2.317 1.981-6.68 1.8-9.847-.889-11.375-3.017-5.314-2.308-6.485ZM90.893 73.988c.096-.155-.354 3.479-.95 5.442-.055.22 1.01 3.034 1.85-5.459.04-.492-.844-.675-.9.017ZM87.674 77.805c-.19.318.169 1.878.796 1.708.82-.239-.179-2.725-.796-1.708ZM75.9 67.207c-.095.156-.148.518-.054.365 2.182 9.133 1.456-2.687.053-.365ZM133.553 48.272c-3.384 6.624-4.418 6.145-5.361 7.684-.365.602.292 2.444 4.97-5.027 2.248-3.715.581-3.063.391-2.657ZM129.428 51.078c.202-.453-.568-.915-.857-.283-1.964 4.207-1.067 4.407.857.283ZM117.976 49.724c-.005.02-.005.028-.009.051.015-.046.013-.06.009-.05Z" class="Vector"/>
      <path fill="#212121" d="M117.899 52.281c-.088-1.89.057-2.523.077-2.557.51-2.184-.773-.843-.679-.998-1.232 5.088 1.005 7.294.602 3.555ZM118.625 53.216c.188 4.134 1.812-.347.474-.417-.438-.022-.568.574-.474.417Z" class="Vector"/>
      <path stroke="#212121" stroke-linecap="round" stroke-linejoin="round" stroke-width=".16" d="M116.163 63.41c.006.01.009.019.009.03M117.307 21.875c0-.012.003-.036-.01-.084" class="Vector"/>
      <path fill="#212121" d="M117.331 21.988c-1.319-4.234 3.138-9.382 2.302-9.919-.895-.575-3.331 4.586-3.235 9.457.021 1.844 1.27 1.154.933.462ZM119.118 22.957c.514.33.978-.443.491-.754-.861-.55-.685 1.08-.491.754ZM133.478 15.895c.198-.515-.628-.87-.856-.285-2.308 6.042-6.491 10.555-6.397 10.4.931 1.064 5.282-4.841 7.253-10.115Z" class="Vector"/>
      <path stroke="#212121" d="M51 129v-.5" class="Vector 2"/>
    </g>
  </g>
</svg>
