<?xml version="1.0" encoding="UTF-8"?>
<svg width="543px" height="905px" viewBox="0 0 543 905" version="1.1" xmlns="http://www.w3.org/2000/svg" xmlns:xlink="http://www.w3.org/1999/xlink">
    <title>houseImage</title>
    <g id="Desktop" stroke="none" stroke-width="1" fill="none" fill-rule="evenodd">
        <g id="Desktop-HD" transform="translate(-112.000000, -60.000000)">
            <g id="houseImage" transform="translate(113.000000, 62.000000)">
                <g id="house_thick" transform="translate(0.323248, 0.000000)" stroke="#BD10E0" stroke-linecap="square">
                    <g id="house">
                        <polyline id="Line-8" stroke-width="2.5" points="422.480315 822.000131 422.480315 678.406946 519.93017 643.037117 519.93017 768.74662"></polyline>
                        <polyline id="Line-9" stroke-width="2.5" points="457.440945 803.367749 457.440945 767.680341 457.440945 666.262221"></polyline>
                        <path d="M422.480315,785.393316 L457.608823,767.578088 M488.891012,751.7135 L520.275591,735.796986" id="Line-12" stroke-width="2.5"></path>
                        <polyline id="Line-14" stroke-width="2.5" points="423.840988 186.848718 423.840988 145.28227 443.102837 152.79549 443.102837 194.188795"></polyline>
                        <polyline id="Line-15" stroke-width="2.5" points="491.611679 213.17005 490.903018 173.256813 505.87179 179.810445 505.87179 219.011442"></polyline>
                        <path d="M457.488215,754.8694 L466.653543,757.219239 L466.653543,763.424393 L475.863428,766.695194 L475.863428,773.104809 L488.754189,778.520988 L457.488215,796.077017 L457.488215,754.8694 Z M476.102362,766.971822 L457.677165,776.182569 M475.629921,773.584666 L457.677165,783.740105 M466.181102,763.6654 L457.204724,768.625033 M466.417323,757.524902 L457.677165,761.30367" id="Line-13" stroke-width="2.5"></path>
                        <path d="M488.872047,655.970511 L488.872047,785.456505" id="Line-10" stroke-width="2.5"></path>
                        <path d="M489.019303,751.807186 C485.526508,754.403714 475.178351,753.129391 457.974831,747.984215" id="Line-11" stroke-width="2.5"></path>
                        <path d="M289.488189,148.198558 L111.614173,0.118086501 L289.488189,148.198558 Z M111.614173,0.118086501 C81.6929134,50.3442114 66.7322835,75.4572739 66.7322835,75.4572739 C66.7322835,75.4572739 81.6929134,50.3442114 111.614173,0.118086501 Z M271.621659,70.6464726 L111.614173,0.118086501 M289.488189,148.198558 L534.685039,238.180472 L289.488189,148.198558 Z M539.88189,756.344037 L288.779528,900.867068 L539.88189,756.344037 Z M539.88189,756.344037 L534.685039,238.180472 L539.88189,756.344037 Z M66.7322835,75.4572739 L0.216662253,186.301891 L0.216662253,777.142376 L86.3069684,813.038118 L288.779528,900.867068 M289.488189,148.198558 L288.779528,900.867068 L289.488189,148.198558 Z M534.212598,238.180472 L511.771654,218.105767 L534.212598,238.180472 Z" id="Line-5" stroke-width="2.5"></path>
                        <path d="M340.748031,697.300786 L374.413196,685.85528 L374.413196,777.460103 L340.748031,794.429358 L340.748031,697.300786 Z M341.97872,629.754162 L341.97872,534.718871 L383.042316,529.244574 L383.042316,618.941597 L341.97872,629.754162 Z M423.779528,608.204749 L423.779528,523.654815 L457.024172,519.34443 L457.024172,598.7866 L423.779528,608.204749 Z M487.795276,590.574549 L487.795276,513.721383 L521.03992,509.188991 L521.03992,582.013754 L487.795276,590.574549 Z M487.795276,468.174604 L487.795276,394.881258 L521.03992,396.22486 L521.03992,466.174938 L487.795276,468.174604 Z M424.724409,471.873657 L424.724409,391.574836 L457.079716,392.937159 L457.079716,470.362847 L424.724409,471.873657 Z M342.992126,477.084601 L342.992126,386.142857 L383.63935,388.103791 L383.63935,474.177461 L342.992126,477.084601 Z M342.283465,324.607767 L342.283465,238.062385 L382.171622,247.913165 L382.171622,330.082298 L342.283465,324.607767 Z M423.3706,336.586772 L423.3706,258.053032 L452.373722,265.722531 L452.373722,339.721501 L423.3706,336.586772 Z M487.795276,344.885558 L487.795276,274.196855 L519.889805,282.513929 L519.889805,349.22455 L487.795276,344.885558 Z" id="Line" stroke-width="2.5"></path>
                        <path d="M338.03769,157.698426 L262.204724,98.4068053 L327.10998,79.1994856 M324.134444,78.2941598 L365.939857,65.4199214 L392.359614,100.267838 L377.369727,94.9388709 L377.369727,172.584957 L338.286147,158.140871 M377.369727,94.9388709 L324.134444,78.2941598 M338.489275,82.7632998 L338.348905,158.247495 L338.489275,82.7632998 Z M347.795872,161.55698 L347.150568,112.054969 L370.403917,121.727111 L370.403917,169.635065 L347.795872,161.55698 Z" id="Line-2" stroke-width="2.5"></path>
                        <path d="M377.716535,125.579683 L410.795058,117.141809 M377.716535,119.675358 L441.47006,103.794127 M407.465481,116.235913 L441.356859,104.12945 L462.565144,133.595277 L451.181287,129.740352 L451.181287,198.570589 L414.218504,183.868911 L377.716535,156.010006 M451.196121,129.701556 L407.480315,116.197117 M414.330709,118.322674 L414.330709,183.821203" id="Line-2-Copy" stroke-width="2.5"></path>
                        <path d="M451.783453,154.013972 L477.357392,149.111441 M451.783453,146.456436 L505.5717,135.767167 M474.804066,148.282685 L505.312513,135.563303 L522.386694,161.002067 L511.074959,157.580211 L511.961906,221.976599 L484.385863,212.059598 L451.889764,190.145634 M510.968649,157.61792 L474.697756,148.320393 M484.279553,150.685712 L484.279553,212.097306" id="Line-2-Copy-2" stroke-width="2.5"></path>
                        <path d="M290.905512,16.4249023 L290.905512,89.627654 M290.905512,89.627654 L274.147419,79.8110069 L274.147419,23.1599667 L290.905512,16.4249023 L302.51249,22.6488379 L302.51249,86.2775856" id="Line-4" stroke-width="2.5"></path>
                        <polygon id="Line-6" stroke-width="2.5" points="103.464567 205.689636 133.332412 199.651212 133.332412 122.573788 103.464567 131.945916"></polygon>
                        <polygon id="Line-6-Copy" stroke-width="2.5" points="100.159112 338.328868 135.930837 334.979226 135.930837 255.086097 100.159112 262.074358"></polygon>
                        <polygon id="Line-6-Copy-2" stroke-width="2.5" points="99.6850394 471.035938 134.354893 473.489846 134.354893 391.811009 99.6850394 391.811009"></polygon>
                        <polygon id="Line-6-Copy-3" stroke-width="2.5" points="99.6850394 603.419549 134.354893 610.062188 134.354893 528.283006 99.6850394 523.595544"></polygon>
                        <g id="Group" transform="translate(95.563473, 664.354653)" stroke-width="2.5">
                            <polyline id="Line-6-Copy-4" points="40.4449633 170.250167 40.4449633 12.0448231 0.819933179 0.144247755 0.819933179 153.058833"></polyline>
                            <path d="M0.814479638,145.393296 L39.6227736,161.924242 L0.814479638,145.393296 Z M8.89216375,140.933996 L39.6886422,153.931663 L8.89216375,140.933996 Z M8.89216375,135.994026 L39.658754,149.019577 L8.89216375,135.994026 Z M17.0369601,131.158228 L39.6534691,140.703535 L17.0369601,131.158228 Z M17.0369601,126.218257 L39.6908016,135.80914 L17.0369601,126.218257 Z M25.1817565,121.382459 L39.6460599,127.487125 L25.1817565,121.382459 Z M17.0369601,126.218257 L25.1817565,121.382459 L17.0369601,126.218257 Z M25.3111102,15.7993151 L25.1817565,121.382459 L25.3111102,15.7993151 Z M8.89216375,135.994026 L17.0369601,131.158228 L8.89216375,135.994026 Z M17.0369601,131.158228 L17.0369601,126.218257 L17.0369601,131.158228 Z M0.814479638,145.393296 L8.89216375,140.933996 L0.814479638,145.393296 Z M8.89216375,140.933996 L8.89216375,135.994026 L8.89216375,140.933996 Z" id="Line-18"></path>
                        </g>
                        <ellipse id="Oval" stroke-width="2.5" transform="translate(120.958443, 72.397904) rotate(2.000000) translate(-120.958443, -72.397904) " cx="120.958443" cy="72.3979036" rx="6.96850394" ry="12.9895151"></ellipse>
                    </g>
                </g>
                <path d="M205.923141,828.524556 L167.27219,811.90178 L167.27219,795.933876 C167.27219,794.200917 167.644179,792.75246 168.388168,791.58661 C169.132157,790.418287 170.112031,789.54664 171.327818,788.971306 C172.543605,788.393051 173.922686,788.108798 175.465103,788.119152 C177.007519,788.127407 178.558986,788.441626 180.119548,789.063393 C181.752695,789.714079 183.340453,790.634756 184.88287,791.826932 C186.425286,793.021085 187.795295,794.383347 188.992936,795.914363 C190.190577,797.448159 191.152305,799.107248 191.878148,800.891379 C192.603991,802.677894 192.966907,804.463702 192.966907,806.24707 L192.966907,815.418632 L205.923141,820.883396 L205.923141,828.524556 Z M186.379914,812.640327 L186.379914,803.9688 C186.379914,802.595802 185.817394,801.218355 184.692337,799.838142 C183.56728,798.460227 182.043033,797.380879 180.119548,796.598343 C179.13966,796.199692 178.259589,795.984874 177.479307,795.953506 C176.699026,795.921639 176.036704,796.026682 175.492322,796.268588 C174.947939,796.509927 174.539659,796.88667 174.267468,797.398968 C173.995276,797.910883 173.859183,798.487362 173.859183,799.128706 L173.859183,807.359252 L186.379914,812.640327 Z M206.195331,777.353191 C206.195331,780.233333 205.641884,782.635189 204.534973,784.55461 C203.428063,786.468403 201.958252,787.904918 200.125499,788.863413 C198.292745,789.81523 196.196904,790.282541 193.837914,790.266825 C191.478924,790.246388 189.065532,789.746703 186.597666,788.771299 C184.020923,787.752862 181.553093,786.301298 179.194103,784.420316 C176.835113,782.544339 174.748345,780.423313 172.933738,778.058485 C171.11913,775.700414 169.676538,773.182258 168.60592,770.502989 C167.535301,767.829207 167,765.168577 167,762.516906 C167,759.794523 167.571593,757.521395 168.714796,755.693094 C169.857999,753.858981 171.355028,752.475382 173.205927,751.541614 C175.056827,750.601177 177.161741,750.102072 179.520731,750.045746 C181.879721,749.984697 184.274967,750.382327 186.706542,751.242188 C189.283284,752.153385 191.742041,753.495352 194.082885,755.271786 C196.423729,757.053093 198.492351,759.108164 200.288813,761.438366 C202.085274,763.775185 203.518793,766.318133 204.589411,769.066438 C205.66003,771.820229 206.195331,774.583824 206.195331,777.353191 Z M186.597666,781.181883 C188.267105,781.827679 189.882081,782.198508 191.442644,782.29307 C193.003207,782.385883 194.382288,782.179285 195.579929,781.672678 C196.77757,781.163528 197.739298,780.342351 198.465141,779.209349 C199.190984,778.074109 199.5539,776.607526 199.5539,774.811236 C199.5539,772.978286 199.181911,771.21828 198.437922,769.532885 C197.693933,767.849783 196.704986,766.298608 195.471053,764.879554 C194.23712,763.463119 192.848966,762.22986 191.306549,761.179027 C189.764133,760.129862 188.19452,759.316909 186.597666,758.738894 C184.928226,758.134605 183.31325,757.81109 181.752687,757.766979 C180.192124,757.721057 178.813043,757.954343 177.615402,758.466297 C176.417761,758.97571 175.465106,759.786746 174.757409,760.899699 C174.049712,762.010469 173.695869,763.419985 173.695869,765.129922 C173.695869,766.911108 174.067858,768.63702 174.811847,770.309453 C175.555836,771.98421 176.53571,773.519293 177.751497,774.914904 C178.967284,776.313046 180.346365,777.552384 181.888782,778.632307 C183.431199,779.713898 185.000811,780.564165 186.597666,781.181883 Z M181.15387,736.131136 L205.923141,744.527169 L205.923141,752.168329 L167.27219,738.7465 L167.27219,733.070202 L192.640279,721.52443 L167.326628,713.459227 L167.326628,706.137943 L205.923141,718.115334 L205.923141,724.316855 L181.15387,736.131136 Z M177.39765,678.624722 C177.143605,678.804929 176.798835,679.165445 176.363329,679.705901 C175.927823,680.245713 175.501397,680.930185 175.084037,681.759157 C174.666677,682.587244 174.312834,683.512575 174.022497,684.535302 C173.73216,685.557308 173.586993,686.637934 173.586993,687.777753 C173.586993,689.808055 173.968055,691.432929 174.73019,692.653704 C175.492326,693.876187 176.562928,694.690985 177.94203,695.096838 C178.740457,695.331806 179.402779,695.338498 179.929015,695.116584 C180.455252,694.894226 180.91797,694.48225 181.317183,693.880493 C181.716397,693.278098 182.079313,692.475755 182.405943,691.473323 C182.732572,690.470094 183.077342,689.300283 183.440264,687.963583 C183.948354,686.234387 184.492728,684.684541 185.073403,683.314102 C185.654077,681.941688 186.379909,680.84216 187.250921,680.015424 C188.121933,679.186631 189.165317,678.647353 190.381104,678.397948 C191.596891,678.146986 193.09392,678.261762 194.872236,678.743448 C196.940888,679.303777 198.710104,680.176714 200.179937,681.364182 C201.649769,682.554181 202.838319,683.945585 203.745623,685.538528 C204.652927,687.134123 205.315249,688.866997 205.732609,690.736402 C206.149968,692.607396 206.358645,694.503676 206.358645,696.424111 C206.358645,699.378626 205.923146,702.168553 205.052134,704.789895 C204.181122,707.405796 202.947208,709.61212 201.350353,711.407066 L194.872236,706.096975 C195.198865,705.866894 195.625291,705.401906 196.151528,704.701431 C196.677764,703.999965 197.203992,703.142121 197.730228,702.127604 C198.256465,701.111739 198.701037,699.942427 199.063958,698.619793 C199.42688,697.296026 199.608338,695.882185 199.608338,694.379077 C199.608338,690.199703 198.283694,687.739552 195.634367,686.998549 C194.799647,686.765083 194.091961,686.804005 193.511287,687.114864 C192.930612,687.425119 192.422529,687.955249 191.987024,688.705095 C191.551518,689.454105 191.15231,690.394207 190.789389,691.525315 C190.426467,692.655434 190.027259,693.919172 189.591753,695.316209 C189.083663,697.016714 188.530216,698.457278 187.931396,699.638153 C187.332575,700.817229 186.624889,701.736049 185.808315,702.394763 C184.991742,703.051843 184.04816,703.443705 182.977541,703.570786 C181.906923,703.696795 180.627643,703.534108 179.139665,703.083524 C177.179889,702.490072 175.437891,701.605638 173.913621,700.432026 C172.38935,699.260855 171.119144,697.893078 170.102964,696.328991 C169.086783,694.767792 168.315587,693.078284 167.78935,691.259734 C167.263114,689.443166 167,687.58105 167,685.671846 C167,683.020175 167.426426,680.700711 168.279292,678.710159 C169.132158,676.715304 170.13925,675.042274 171.300599,673.690966 L177.39765,678.624722 Z M167.27219,662.302151 L185.889972,657.676793 L167.27219,643.575673 L167.27219,635.671295 L192.422527,655.546651 L205.923141,658.86866 L205.923141,666.454449 L192.313651,662.993676 L167.27219,670.259578 L167.27219,662.302151 Z M205.923141,640.264097 L167.27219,631.533433 L167.27219,614.875886 C167.27219,613.142926 167.644179,611.618224 168.388168,610.299878 C169.132157,608.979059 170.112031,607.906567 171.327818,607.082033 C172.543605,606.254579 173.922686,605.687655 175.465103,605.38186 C177.007519,605.073966 178.558986,605.07018 180.119548,605.372079 C182.623707,605.85652 184.901006,606.919313 186.951512,608.564737 C189.002019,610.215826 190.480902,612.20383 191.388206,614.527775 L205.923141,608.481302 L205.923141,617.063764 L192.966907,622.3791 L192.966907,629.803698 L205.923141,632.622937 L205.923141,640.264097 Z M186.379914,628.370387 L186.379914,618.994299 C186.379914,618.307799 186.216602,617.632875 185.889972,616.969829 C185.563343,616.307214 185.11877,615.702189 184.556242,615.154819 C183.993714,614.607989 183.331392,614.13153 182.569257,613.725342 C181.807121,613.319582 180.99056,613.02898 180.119548,612.853207 C179.212244,612.670111 178.377537,612.644908 177.615402,612.77723 C176.853267,612.909064 176.190945,613.158898 175.628417,613.526651 C175.065888,613.893795 174.630389,614.357642 174.321906,614.918338 C174.013422,615.478602 173.859183,616.079235 173.859183,616.72058 L173.859183,625.645911 L186.379914,628.370387 Z M199.5539,585.761756 C199.5539,583.965465 199.190984,582.393671 198.465141,581.047786 C197.739298,579.703848 196.795716,578.564536 195.634367,577.629784 C194.473018,576.696938 193.139301,575.95717 191.633177,575.409796 C190.127052,574.863447 188.575586,574.464926 186.978731,574.213451 L167.27219,571.110037 L167.27219,563.842254 L186.978731,566.78353 C189.628059,567.178952 192.114034,567.868148 194.436732,568.85358 C196.75943,569.842267 198.79176,571.156428 200.533783,572.797584 C202.275807,574.443972 203.654888,576.434572 204.671068,578.769122 C205.687249,581.108473 206.195331,583.79383 206.195331,586.821671 C206.195331,589.960288 205.66003,592.53484 204.589411,594.541579 C203.518793,596.543218 202.10342,598.063658 200.34325,599.102861 C198.583081,600.136848 196.541678,600.738973 194.21898,600.910862 C191.896282,601.079683 189.48289,600.929372 186.978731,600.462225 L167.27219,596.786002 L167.27219,589.465169 L186.978731,592.97807 C188.611878,593.269196 190.18149,593.394793 191.687615,593.354095 C193.193739,593.312372 194.527456,593.020357 195.688805,592.47738 C196.850154,591.932498 197.784663,591.117494 198.49236,590.032371 C199.200057,588.945379 199.5539,587.521387 199.5539,585.761756 Z M177.39765,535.197943 C177.143605,535.418932 176.798835,535.834793 176.363329,536.445161 C175.927823,537.054884 175.501397,537.80781 175.084037,538.70378 C174.666677,539.598865 174.312834,540.580998 174.022497,541.650333 C173.73216,542.718946 173.586993,543.822875 173.586993,544.962694 C173.586993,546.992997 173.968055,548.556699 174.73019,549.65513 C175.492326,550.755268 176.562928,551.398203 177.94203,551.582671 C178.740457,551.689468 179.402779,551.589839 179.929015,551.283448 C180.455252,550.976614 180.91797,550.490358 181.317183,549.824517 C181.716397,549.158036 182.079313,548.297435 182.405943,547.242569 C182.732572,546.186906 183.077342,544.96175 183.440264,543.566791 C183.948354,541.756031 184.492728,540.118797 185.073403,538.655144 C185.654077,537.189514 186.379909,535.973469 187.250921,535.006911 C188.121933,534.038296 189.165317,533.331524 190.381104,532.886951 C191.596891,532.440819 193.09392,532.315279 194.872236,532.511494 C196.940888,532.739745 198.710104,533.328671 200.179937,534.280189 C201.649769,535.234237 202.838319,536.434845 203.745623,537.882139 C204.652927,539.332086 205.315249,540.958638 205.732609,542.761045 C206.149968,544.56504 206.358645,546.427822 206.358645,548.348257 C206.358645,551.302772 205.923146,554.162609 205.052134,556.923773 C204.181122,559.679497 202.947208,562.0839 201.350353,564.135188 L194.872236,559.865021 C195.198865,559.582507 195.625291,559.049065 196.151528,558.264113 C196.677764,557.478171 197.203992,556.535853 197.730228,555.43686 C198.256465,554.336519 198.701037,553.09584 199.063958,551.714947 C199.42688,550.332921 199.608338,548.88995 199.608338,547.386842 C199.608338,543.207468 198.283694,540.959961 195.634367,540.644251 C194.799647,540.544781 194.091961,540.697308 193.511287,541.101382 C192.930612,541.504851 192.422529,542.116543 191.987024,542.936301 C191.551518,543.755223 191.15231,544.759408 190.789389,545.948775 C190.426467,547.137155 190.027259,548.464977 189.591753,549.931925 C189.083663,551.713993 188.530216,553.243401 187.931396,554.520404 C187.332575,555.795608 186.624889,556.828032 185.808315,557.61783 C184.991742,558.405993 184.04816,558.949328 182.977541,559.248274 C181.906923,559.546148 180.627643,559.588822 179.139665,559.377101 C177.179889,559.09825 175.437891,558.493457 173.913621,557.564534 C172.38935,556.638053 171.119144,555.474181 170.102964,554.07322 C169.086783,552.675147 168.315587,551.109438 167.78935,549.375365 C167.263114,547.643272 167,545.823394 167,543.914191 C167,541.262519 167.426426,538.874602 168.279292,536.74714 C169.132158,534.615375 170.13925,532.780678 171.300599,531.24294 L177.39765,535.197943 Z M265.532708,825.098438 C268.617541,829.684861 270.159934,834.216829 270.159934,838.678733 C270.159934,841.442744 269.651852,843.826627 268.635671,845.826702 C267.619491,847.821773 266.222264,849.335169 264.443948,850.365829 C262.665633,851.39001 260.569792,851.899584 258.156364,851.895585 C255.742936,851.886465 253.139013,851.275548 250.344517,850.066659 C247.695189,848.920569 245.200141,847.331281 242.859297,845.302472 C240.518453,843.27863 238.467977,841.00214 236.707808,838.474124 C234.947638,835.952662 233.550411,833.277607 232.516085,830.447875 C231.481758,827.623362 230.964603,824.81019 230.964603,822.004362 C230.964603,818.212703 231.726727,815.269592 233.250997,813.168395 C234.775268,811.058472 236.825744,809.825305 239.402487,809.469832 L243.539772,817.040186 C241.616288,817.303656 240.146477,818.157517 239.130297,819.601953 C238.114117,821.042444 237.606034,822.849383 237.606034,825.025786 C237.606034,826.743998 237.950804,828.462279 238.640355,830.182233 C239.329906,831.904257 240.273488,833.524455 241.471129,835.043227 C242.66877,836.564541 244.047852,837.934497 245.608414,839.152591 C247.168977,840.372497 248.820245,841.35264 250.562269,842.091692 C252.376876,842.861537 254.073509,843.270601 255.652218,843.317381 C257.230927,843.362137 258.600935,843.082673 259.762284,842.478543 C260.923633,841.871809 261.839996,840.954436 262.511401,839.726796 C263.182806,838.497087 263.518503,836.99903 263.518503,835.234131 C263.518503,831.194475 261.75836,826.836345 258.238021,822.177159 L255.516123,821.087129 L255.516123,829.431045 L250.017889,827.181967 L250.017889,812.271119 L269.887744,820.092299 L269.887744,826.842485 L265.532708,825.098438 Z M263.300751,781.562597 L269.887744,783.913668 L269.887744,813.105264 L231.236793,798.165364 L231.236793,770.630143 L237.823786,772.984775 L237.823786,792.805917 L247.132677,796.326969 L247.132677,779.031138 L253.229729,781.227841 L253.229729,798.633155 L263.300751,802.442481 L263.300751,781.562597 Z M245.118473,760.872604 L269.887744,769.347476 L269.887744,777.518755 L231.236793,763.973902 L231.236793,757.88657 L256.604882,745.000211 L231.291231,736.854436 L231.291231,729.003033 L269.887744,741.103275 L269.887744,747.735037 L245.118473,760.872604 Z M270.159934,714.476551 C270.159934,717.556449 269.606487,720.188217 268.499576,722.367714 C267.392666,724.541583 265.922855,726.247073 264.090102,727.483451 C262.257348,728.713151 260.161507,729.455256 257.802517,729.711254 C255.443527,729.96253 253.030135,729.707336 250.562269,728.949207 C247.985526,728.157631 245.517696,726.889406 243.158706,725.148247 C240.799716,723.412095 238.712948,721.381316 236.898341,719.057165 C235.083733,716.73977 233.641141,714.20713 232.570523,711.458218 C231.499904,708.714792 230.964603,705.923307 230.964603,703.079562 C230.964603,700.159985 231.536196,697.656627 232.679399,695.565056 C233.822602,693.467671 235.31963,691.813341 237.17053,690.601373 C239.02143,689.382735 241.126344,688.608678 243.485334,688.280638 C245.844324,687.947876 248.23957,688.102612 250.671144,688.748394 C253.247887,689.43273 255.706644,690.591516 258.047488,692.228444 C260.388332,693.870245 262.456954,695.835384 264.253415,698.125227 C266.049877,700.421688 267.483396,702.979277 268.554014,705.797225 C269.624633,708.62066 270.159934,711.515111 270.159934,714.476551 Z M250.562269,720.821989 C252.231708,721.320805 253.846684,721.531523 255.407247,721.452837 C256.96781,721.372402 258.346891,720.992529 259.544532,720.312613 C260.742173,719.630155 261.703901,718.641076 262.429744,717.345572 C263.155587,716.04783 263.518503,714.437255 263.518503,712.515476 C263.518503,710.554478 263.146514,708.713901 262.402525,706.995411 C261.658536,705.279214 260.669589,703.731876 259.435656,702.353595 C258.201723,700.977932 256.813569,699.815669 255.271152,698.86606 C253.728736,697.918118 252.159123,697.22607 250.562269,696.788645 C248.892829,696.331336 247.277853,696.168573 245.71729,696.298991 C244.156727,696.427598 242.777646,696.834799 241.580005,697.520062 C240.382364,698.202782 239.429709,699.180922 238.722012,700.454779 C238.014315,701.726454 237.660472,703.277882 237.660472,705.110747 C237.660472,707.019981 238.032461,708.827104 238.77645,710.533913 C239.520439,712.243046 240.500313,713.775089 241.7161,715.130245 C242.931887,716.487933 244.310968,717.656433 245.853385,718.635132 C247.395802,719.615499 248.965414,720.344861 250.562269,720.821989 Z M241.362253,655.859129 C241.108208,656.067989 240.763438,656.475712 240.327932,657.081934 C239.892426,657.68751 239.466,658.447606 239.04864,659.362065 C238.63128,660.275638 238.277437,661.289535 237.9871,662.403909 C237.696763,663.517563 237.551596,664.684987 237.551596,665.906758 C237.551596,668.083036 237.932658,669.800661 238.694793,671.060966 C239.456929,672.32298 240.527531,673.128431 241.906633,673.47606 C242.70506,673.677319 243.367382,673.642603 243.893618,673.371581 C244.419855,673.100117 244.882573,672.62955 245.281786,671.95972 C245.681,671.28925 246.043916,670.406922 246.370546,669.312591 C246.697175,668.217461 247.041945,666.942822 247.404867,665.488361 C247.912957,663.604543 248.457331,661.91071 249.038006,660.406914 C249.61868,658.901143 250.344512,657.678777 251.215524,656.73972 C252.086536,655.798605 253.12992,655.157014 254.345707,654.815305 C255.561494,654.472037 257.058523,654.503123 258.836838,654.90973 C260.905491,655.382722 262.674707,656.208494 264.14454,657.388968 C265.614372,658.571972 266.802922,659.987464 267.710226,661.635577 C268.61753,663.286342 269.279852,665.098812 269.697211,667.072244 C270.114571,669.047262 270.323248,671.062139 270.323248,673.115745 C270.323248,676.275137 269.887749,679.285764 269.016737,682.143635 C268.145725,684.996066 266.911811,687.43375 265.314956,689.454894 L258.836838,684.183976 C259.163468,683.917056 259.589894,683.39245 260.116131,682.609574 C260.642367,681.825708 261.168595,680.874581 261.694831,679.755896 C262.221068,678.635863 262.66564,677.356868 263.028561,675.919034 C263.391483,674.480067 263.572941,672.956128 263.572941,671.34802 C263.572941,666.876696 262.248297,664.326496 259.59897,663.697346 C258.76425,663.49912 258.056564,663.584567 257.475889,663.953234 C256.895215,664.321297 256.387132,664.920255 255.951627,665.749952 C255.516121,666.578812 255.116913,667.610034 254.753991,668.843537 C254.39107,670.076052 253.991862,671.45396 253.556356,672.976944 C253.048266,674.82951 252.494819,676.406761 251.895999,677.708954 C251.297178,679.009349 250.589492,680.038076 249.772918,680.795289 C248.956345,681.550868 248.012763,682.030586 246.942144,682.234879 C245.871526,682.4381 244.592246,682.345429 243.104268,681.957666 C241.144492,681.446955 239.402494,680.610457 237.878224,679.449979 C236.353953,678.291942 235.083747,676.906726 234.067567,675.294627 C233.051386,673.685416 232.28019,671.922828 231.753953,670.00613 C231.227717,668.091413 230.964603,666.111079 230.964603,664.063583 C230.964603,661.219838 231.391029,658.705667 232.243895,656.517766 C233.096761,654.325563 234.103853,652.469163 235.265202,650.948458 L241.362253,655.859129 Z M241.362253,620.612215 C241.108208,620.830428 240.763438,621.250844 240.327932,621.873098 C239.892426,622.494707 239.466,623.270502 239.04864,624.200325 C238.63128,625.129263 238.277437,626.156186 237.9871,627.281249 C237.696763,628.405591 237.551596,629.57836 237.551596,630.80013 C237.551596,632.976408 237.932658,634.680005 238.694793,635.912253 C239.456929,637.14621 240.527531,637.912247 241.906633,638.209105 C242.70506,638.380971 243.367382,638.321873 243.893618,638.031477 C244.419855,637.74064 244.882573,637.253039 245.281786,636.568512 C245.681,635.883346 246.043916,634.987657 246.370546,633.881301 C246.697175,632.774147 247.041945,631.486815 247.404867,630.018994 C247.912957,628.116471 248.457331,626.402597 249.038006,624.877424 C249.61868,623.350276 250.344512,622.101189 251.215524,621.130066 C252.086536,620.156886 253.12992,619.476884 254.345707,619.090416 C255.561494,618.702391 257.058523,618.678364 258.836838,619.019504 C260.905491,619.416341 262.674707,620.17698 264.14454,621.303344 C265.614372,622.432238 266.802922,623.803974 267.710226,625.418686 C268.61753,627.036049 269.279852,628.824136 269.697211,630.782203 C270.114571,632.741857 270.323248,634.749052 270.323248,636.802657 C270.323248,639.96205 269.887749,642.988709 269.016737,645.878646 C268.145725,648.763142 266.911811,651.246251 265.314956,653.326182 L258.836838,648.29375 C259.163468,648.014806 259.589894,647.474501 260.116131,646.672253 C260.642367,645.869014 261.168595,644.898514 261.694831,643.760456 C262.221068,642.62105 262.66564,641.325688 263.028561,639.874494 C263.391483,638.422167 263.572941,636.891547 263.572941,635.283439 C263.572941,630.812115 262.248297,628.310681 259.59897,627.779063 C258.76425,627.611567 258.056564,627.723066 257.475889,628.113111 C256.895215,628.50255 256.387132,629.120213 255.951627,629.965943 C255.516121,630.810836 255.116913,631.856755 254.753991,633.103618 C254.39107,634.349494 253.991862,635.742098 253.556356,637.281115 C253.048266,639.152386 252.494819,640.750012 251.895999,642.07425 C251.297178,643.396689 250.589492,644.451469 249.772918,645.238744 C248.956345,646.024384 248.012763,646.538839 246.942144,646.782546 C245.871526,647.025182 244.592246,646.979606 243.104268,646.646622 C241.144492,646.208058 239.402494,645.43569 237.878224,644.331327 C236.353953,643.229404 235.083747,641.890951 234.067567,640.316261 C233.051386,638.744459 232.28019,637.010263 231.753953,635.112938 C231.227717,633.217594 230.964603,631.246946 230.964603,629.19945 C230.964603,626.355705 231.391029,623.825835 232.243895,621.606537 C233.096761,619.382936 234.103853,617.489461 235.265202,615.926002 L241.362253,620.612215 Z M263.300751,584.762336 L269.887744,585.789775 L269.887744,614.981371 L231.236793,607.808239 L231.236793,580.273018 L237.823786,581.304017 L237.823786,601.12516 L247.132677,602.775624 L247.132677,585.479793 L253.229729,586.451316 L253.229729,603.85663 L263.300751,605.64222 L263.300751,584.762336 Z M245.118473,567.726006 L269.887744,571.223583 L269.887744,579.394862 L231.236793,573.616776 L231.236793,567.529444 L256.604882,549.545461 L231.291231,546.486371 L231.291231,538.634968 L269.887744,542.979382 L269.887744,549.611144 L245.118473,567.726006 Z M241.362253,506.936606 C241.108208,507.184982 240.763438,507.646332 240.327932,508.320294 C239.892426,508.99361 239.466,509.820035 239.04864,510.799411 C238.63128,511.777902 238.277437,512.846837 237.9871,514.006372 C237.696763,515.165186 237.551596,516.35519 237.551596,517.576961 C237.551596,519.753239 237.932658,521.411592 238.694793,522.553352 C239.456929,523.69682 240.527531,524.335744 241.906633,524.468862 C242.70506,524.54593 243.367382,524.408194 243.893618,524.055319 C244.419855,523.702001 244.882573,523.159462 245.281786,522.427536 C245.681,521.694971 246.043916,520.756194 246.370546,519.611057 C246.697175,518.465122 247.041945,517.136856 247.404867,515.625944 C247.912957,513.663096 248.457331,511.884588 249.038006,510.290472 C249.61868,508.69438 250.344512,507.359116 251.215524,506.284577 C252.086536,505.207981 253.12992,504.404099 254.345707,503.87328 C255.561494,503.340904 257.058523,503.139136 258.836838,503.269136 C260.905491,503.420361 262.674707,503.970941 264.14454,504.922792 C265.614372,505.877172 266.802922,507.107792 267.710226,508.614779 C268.61753,510.124418 269.279852,511.833868 269.697211,513.742381 C270.114571,515.652482 270.323248,517.634901 270.323248,519.688506 C270.323248,522.847899 269.887749,525.926265 269.016737,528.919617 C268.145725,531.907529 266.911811,534.537141 265.314956,536.806667 L258.836838,532.543382 C259.163468,532.225657 259.589894,531.634722 260.116131,530.769994 C260.642367,529.904275 261.168595,528.871296 261.694831,527.670758 C262.221068,526.468872 262.66564,525.120726 263.028561,523.626442 C263.391483,522.131025 263.572941,520.578861 263.572941,518.970753 C263.572941,514.499428 262.248297,512.15527 259.59897,511.938207 C258.76425,511.869817 258.056564,512.06534 257.475889,512.524328 C256.895215,512.982711 256.387132,513.660699 255.951627,514.558136 C255.516121,515.454736 255.116913,516.548053 254.753991,517.838007 C254.39107,519.126972 253.991862,520.566974 253.556356,522.157699 C253.048266,524.089295 252.494819,525.752632 251.895999,527.147968 C251.297178,528.541505 250.589492,529.680309 249.772918,530.564536 C248.956345,531.447128 248.012763,532.073614 246.942144,532.444436 C245.871526,532.814186 244.592246,532.9205 243.104268,532.764183 C241.144492,532.558303 239.402494,531.992763 237.878224,531.069377 C236.353953,530.148431 235.083747,528.960789 234.067567,527.50675 C233.051386,526.0556 232.28019,524.412968 231.753953,522.578123 C231.227717,520.745259 230.964603,518.805851 230.964603,516.758355 C230.964603,513.91461 231.391029,511.334111 232.243895,509.013551 C233.096761,506.68869 234.103853,504.675642 235.265202,502.974297 L241.362253,506.936606 Z M250.290079,499.104193 C247.931089,498.940385 245.599353,498.326072 243.294801,497.264488 C240.990249,496.20724 238.9307,494.759522 237.116092,492.922943 C235.301485,491.092903 233.831674,488.909914 232.706618,486.373398 C231.581561,483.842739 231.019041,481.006019 231.019041,477.85876 C231.019041,474.142721 231.799311,470.961225 233.359873,468.307476 C234.920436,465.644793 236.952766,463.684898 239.456925,462.429171 L243.430896,468.663789 C242.342131,469.159396 241.425768,469.77556 240.681779,470.512321 C239.93779,471.24789 239.348051,472.04609 238.912545,472.907237 C238.477039,473.767582 238.159488,474.670585 237.959881,475.616576 C237.760274,476.562167 237.660472,477.493015 237.660472,478.409447 C237.660472,480.395051 238.041534,482.142908 238.803669,483.654833 C239.565804,485.169108 240.554751,486.44973 241.770538,487.496836 C242.986325,488.546424 244.365406,489.367946 245.907823,489.960769 C247.45024,490.555198 248.98356,490.899524 250.507831,490.992553 C252.213562,491.096658 253.855757,490.90564 255.434466,490.418073 C257.013175,489.92861 258.401329,489.18219 259.59897,488.178233 C260.796611,487.17164 261.758339,485.934042 262.484182,484.465703 C263.210025,482.995126 263.572941,481.356914 263.572941,479.552695 C263.572941,478.611364 263.464066,477.625754 263.246313,476.596175 C263.02856,475.56705 262.68379,474.581857 262.211992,473.640891 C261.740194,472.700813 261.132309,471.824567 260.38832,471.012354 C259.644331,470.201333 258.746114,469.541713 257.693641,469.03334 L261.232109,462.535676 C262.683795,463.247204 263.963074,464.239547 265.069985,465.513345 C266.176896,466.789935 267.111405,468.220428 267.87354,469.804581 C268.635675,471.391144 269.216341,473.081029 269.615555,474.873557 C270.014768,476.667524 270.214372,478.414014 270.214372,480.112 C270.214372,483.113092 269.633706,485.825762 268.472357,488.245698 C267.311008,490.659776 265.795834,492.701993 263.926788,494.371695 C262.057742,496.034588 259.934683,497.282794 257.557546,498.117817 C255.18041,498.947986 252.757945,499.275561 250.290079,499.104193 Z M231.236793,422.343735 L269.887744,421.949724 L269.887744,430.06179 L253.393042,430.094226 L253.393042,448.841569 L269.887744,449.128106 L269.887744,457.299385 L231.236793,456.307633 L231.236793,448.456682 L246.860487,448.728089 L246.860487,430.107072 L231.236793,430.137795 L231.236793,422.343735 Z M231.236793,402.431902 L231.236793,395.491205 L269.887744,378.0143 L269.887744,386.422427 L260.252225,390.737664 L260.252225,405.27877 L269.887744,408.863836 L269.887744,417.271963 L231.236793,402.431902 Z M254.971743,392.418746 L239.783552,398.663469 L254.971743,404.08202 L254.971743,392.418746 Z M269.887744,373.395752 L231.236793,375.693154 L231.236793,348.55617 L237.823786,347.975946 L237.823786,367.396083 L247.785933,366.721372 L247.785933,350.397852 L253.882984,349.881657 L253.882984,366.308434 L269.887744,365.224473 L269.887744,373.395752 Z M237.823786,312 L237.823786,325.004044 L269.887744,321.407474 L269.887744,329.51954 L237.823786,332.8523 L237.823786,345.856344 L231.236793,346.451205 L231.236793,312.828652 L237.823786,312 Z" id="Ponsyrus-Genossensch" fill="#333333"></path>
            </g>
        </g>
    </g>
</svg>