<svg width="538" height="905" viewBox="0 0 538 905" fill="none" xmlns="http://www.w3.org/2000/svg">
<path fill-rule="evenodd" clip-rule="evenodd" d="M206.923 830.525L168.272 813.902V797.934C168.272 796.201 168.644 794.752 169.388 793.587C170.132 792.418 171.112 791.547 172.328 790.971C173.544 790.393 174.923 790.109 176.465 790.119C178.008 790.127 179.559 790.442 181.12 791.063C182.753 791.714 184.34 792.635 185.883 793.827C187.425 795.021 188.795 796.383 189.993 797.914C191.191 799.448 192.152 801.107 192.878 802.891C193.604 804.678 193.967 806.464 193.967 808.247V817.419L206.923 822.883V830.525ZM187.38 814.64V805.969C187.38 804.596 186.817 803.218 185.692 801.838C184.567 800.46 183.043 799.381 181.12 798.598C180.14 798.2 179.26 797.985 178.479 797.953C177.699 797.922 177.037 798.027 176.492 798.269C175.948 798.51 175.54 798.887 175.267 799.399C174.995 799.911 174.859 800.487 174.859 801.129V809.359L187.38 814.64ZM207.195 779.353C207.195 782.233 206.642 784.635 205.535 786.555C204.428 788.468 202.958 789.905 201.126 790.863C199.293 791.815 197.197 792.283 194.838 792.267C192.479 792.246 190.066 791.747 187.598 790.771C185.021 789.753 182.553 788.301 180.194 786.42C177.835 784.544 175.748 782.423 173.934 780.058C172.119 777.7 170.677 775.182 169.606 772.503C168.535 769.829 168 767.169 168 764.517C168 761.795 168.572 759.521 169.715 757.693C170.858 755.859 172.355 754.475 174.206 753.542C176.057 752.601 178.162 752.102 180.521 752.046C182.88 751.985 185.275 752.382 187.707 753.242C190.283 754.153 192.742 755.495 195.083 757.272C197.424 759.053 199.492 761.108 201.289 763.438C203.085 765.775 204.519 768.318 205.589 771.066C206.66 773.82 207.195 776.584 207.195 779.353ZM187.598 783.182C189.267 783.828 190.882 784.199 192.443 784.293C194.003 784.386 195.382 784.179 196.58 783.673C197.778 783.164 198.739 782.342 199.465 781.209C200.191 780.074 200.554 778.608 200.554 776.811C200.554 774.978 200.182 773.218 199.438 771.533C198.694 769.85 197.705 768.299 196.471 766.88C195.237 765.463 193.849 764.23 192.307 763.179C190.764 762.13 189.195 761.317 187.598 760.739C185.928 760.135 184.313 759.811 182.753 759.767C181.192 759.721 179.813 759.954 178.615 760.466C177.418 760.976 176.465 761.787 175.757 762.9C175.05 764.01 174.696 765.42 174.696 767.13C174.696 768.911 175.068 770.637 175.812 772.309C176.556 773.984 177.536 775.519 178.751 776.915C179.967 778.313 181.346 779.552 182.889 780.632C184.431 781.714 186.001 782.564 187.598 783.182ZM182.154 738.131L206.923 746.527V754.168L168.272 740.747V735.07L193.64 723.524L168.327 715.459V708.138L206.923 720.115V726.317L182.154 738.131ZM178.398 680.625C178.144 680.805 177.799 681.165 177.363 681.706C176.928 682.246 176.501 682.93 176.084 683.759C175.667 684.587 175.313 685.513 175.022 686.535C174.732 687.557 174.587 688.638 174.587 689.778C174.587 691.808 174.968 693.433 175.73 694.654C176.492 695.876 177.563 696.691 178.942 697.097C179.74 697.332 180.403 697.338 180.929 697.117C181.455 696.894 181.918 696.482 182.317 695.88C182.716 695.278 183.079 694.476 183.406 693.473C183.733 692.47 184.077 691.3 184.44 689.964C184.948 688.234 185.493 686.685 186.073 685.314C186.654 683.942 187.38 682.842 188.251 682.015C189.122 681.187 190.165 680.647 191.381 680.398C192.597 680.147 194.094 680.262 195.872 680.743C197.941 681.304 199.71 682.177 201.18 683.364C202.65 684.554 203.838 685.946 204.746 687.539C205.653 689.134 206.315 690.867 206.733 692.736C207.15 694.607 207.359 696.504 207.359 698.424C207.359 701.379 206.923 704.169 206.052 706.79C205.181 709.406 203.947 711.612 202.35 713.407L195.872 708.097C196.199 707.867 196.625 707.402 197.152 706.701C197.678 706 198.204 705.142 198.73 704.128C199.256 703.112 199.701 701.942 200.064 700.62C200.427 699.296 200.608 697.882 200.608 696.379C200.608 692.2 199.284 689.74 196.634 688.999C195.8 688.765 195.092 688.804 194.511 689.115C193.931 689.425 193.423 689.955 192.987 690.705C192.552 691.454 192.152 692.394 191.789 693.525C191.426 694.655 191.027 695.919 190.592 697.316C190.084 699.017 189.53 700.457 188.931 701.638C188.333 702.817 187.625 703.736 186.808 704.395C185.992 705.052 185.048 705.444 183.978 705.571C182.907 705.697 181.628 705.534 180.14 705.083C178.18 704.49 176.438 703.606 174.914 702.432C173.389 701.261 172.119 699.893 171.103 698.329C170.087 696.768 169.316 695.078 168.789 693.26C168.263 691.443 168 689.581 168 687.672C168 685.02 168.426 682.701 169.279 680.71C170.132 678.715 171.139 677.042 172.301 675.691L178.398 680.625ZM168.272 664.302L186.89 659.677L168.272 645.576V637.671L193.423 657.547L206.923 660.869V668.454L193.314 664.994L168.272 672.26V664.302ZM206.923 642.264L168.272 633.533V616.876C168.272 615.143 168.644 613.618 169.388 612.3C170.132 610.979 171.112 609.907 172.328 609.082C173.544 608.255 174.923 607.688 176.465 607.382C178.008 607.074 179.559 607.07 181.12 607.372C183.624 607.857 185.901 608.919 187.952 610.565C190.002 612.216 191.481 614.204 192.388 616.528L206.923 610.481V619.064L193.967 624.379V631.804L206.923 634.623V642.264ZM187.38 630.37V620.994C187.38 620.308 187.217 619.633 186.89 618.97C186.563 618.307 186.119 617.702 185.556 617.155C184.994 616.608 184.331 616.132 183.569 615.725C182.807 615.32 181.991 615.029 181.12 614.853C180.212 614.67 179.378 614.645 178.615 614.777C177.853 614.909 177.191 615.159 176.628 615.527C176.066 615.894 175.63 616.358 175.322 616.918C175.013 617.479 174.859 618.079 174.859 618.721V627.646L187.38 630.37ZM200.554 587.762C200.554 585.965 200.191 584.394 199.465 583.048C198.739 581.704 197.796 580.565 196.634 579.63C195.473 578.697 194.139 577.957 192.633 577.41C191.127 576.863 189.576 576.465 187.979 576.213L168.272 573.11V565.842L187.979 568.784C190.628 569.179 193.114 569.868 195.437 570.854C197.759 571.842 199.792 573.156 201.534 574.798C203.276 576.444 204.655 578.435 205.671 580.769C206.687 583.108 207.195 585.794 207.195 588.822C207.195 591.96 206.66 594.535 205.589 596.542C204.519 598.543 203.103 600.064 201.343 601.103C199.583 602.137 197.542 602.739 195.219 602.911C192.896 603.08 190.483 602.929 187.979 602.462L168.272 598.786V591.465L187.979 594.978C189.612 595.269 191.181 595.395 192.688 595.354C194.194 595.312 195.527 595.02 196.689 594.477C197.85 593.932 198.785 593.117 199.492 592.032C200.2 590.945 200.554 589.521 200.554 587.762ZM178.398 537.198C178.144 537.419 177.799 537.835 177.363 538.445C176.928 539.055 176.501 539.808 176.084 540.704C175.667 541.599 175.313 542.581 175.022 543.65C174.732 544.719 174.587 545.823 174.587 546.963C174.587 548.993 174.968 550.557 175.73 551.655C176.492 552.755 177.563 553.398 178.942 553.583C179.74 553.689 180.403 553.59 180.929 553.283C181.455 552.977 181.918 552.49 182.317 551.825C182.716 551.158 183.079 550.297 183.406 549.243C183.733 548.187 184.077 546.962 184.44 545.567C184.948 543.756 185.493 542.119 186.073 540.655C186.654 539.19 187.38 537.973 188.251 537.007C189.122 536.038 190.165 535.332 191.381 534.887C192.597 534.441 194.094 534.315 195.872 534.511C197.941 534.74 199.71 535.329 201.18 536.28C202.65 537.234 203.838 538.435 204.746 539.882C205.653 541.332 206.315 542.959 206.733 544.761C207.15 546.565 207.359 548.428 207.359 550.348C207.359 553.303 206.923 556.163 206.052 558.924C205.181 561.679 203.947 564.084 202.35 566.135L195.872 561.865C196.199 561.583 196.625 561.049 197.152 560.264C197.678 559.478 198.204 558.536 198.73 557.437C199.256 556.337 199.701 555.096 200.064 553.715C200.427 552.333 200.608 550.89 200.608 549.387C200.608 545.207 199.284 542.96 196.634 542.644C195.8 542.545 195.092 542.697 194.511 543.101C193.931 543.505 193.423 544.117 192.987 544.936C192.552 545.755 192.152 546.759 191.789 547.949C191.426 549.137 191.027 550.465 190.592 551.932C190.084 553.714 189.53 555.243 188.931 556.52C188.333 557.796 187.625 558.828 186.808 559.618C185.992 560.406 185.048 560.949 183.978 561.248C182.907 561.546 181.628 561.589 180.14 561.377C178.18 561.098 176.438 560.493 174.914 559.565C173.389 558.638 172.119 557.474 171.103 556.073C170.087 554.675 169.316 553.109 168.789 551.375C168.263 549.643 168 547.823 168 545.914C168 543.263 168.426 540.875 169.279 538.747C170.132 536.615 171.139 534.781 172.301 533.243L178.398 537.198ZM266.533 827.098C269.618 831.685 271.16 836.217 271.16 840.679C271.16 843.443 270.652 845.827 269.636 847.827C268.62 849.822 267.222 851.335 265.444 852.366C263.666 853.39 261.57 853.9 259.156 853.896C256.743 853.886 254.139 853.276 251.345 852.067C248.695 850.921 246.2 849.331 243.859 847.302C241.518 845.279 239.468 843.002 237.708 840.474C235.948 837.953 234.55 835.278 233.516 832.448C232.482 829.623 231.965 826.81 231.965 824.004C231.965 820.213 232.727 817.27 234.251 815.168C235.775 813.058 237.826 811.825 240.402 811.47L244.54 819.04C242.616 819.304 241.146 820.157 240.13 821.602C239.114 823.042 238.606 824.849 238.606 827.026C238.606 828.744 238.951 830.462 239.64 832.182C240.33 833.904 241.273 835.524 242.471 837.043C243.669 838.565 245.048 839.934 246.608 841.153C248.169 842.372 249.82 843.353 251.562 844.092C253.377 844.862 255.074 845.271 256.652 845.317C258.231 845.362 259.601 845.083 260.762 844.479C261.924 843.872 262.84 842.954 263.511 841.727C264.183 840.497 264.518 838.999 264.518 837.234C264.518 833.194 262.758 828.836 259.238 824.177L256.516 823.087V831.431L251.018 829.182V814.271L270.888 822.092V828.842L266.533 827.098ZM264.301 783.563L270.888 785.914V815.105L232.237 800.165V772.63L238.824 774.985V794.806L248.133 798.327V781.031L254.23 783.228V800.633L264.301 804.443V783.563ZM246.118 762.873L270.888 771.347V779.519L232.237 765.974V759.887L257.605 747L232.291 738.854V731.003L270.888 743.103V749.735L246.118 762.873ZM271.16 716.477C271.16 719.556 270.606 722.188 269.5 724.368C268.393 726.542 266.923 728.247 265.09 729.483C263.257 730.713 261.162 731.455 258.803 731.711C256.444 731.963 254.03 731.707 251.562 730.949C248.986 730.158 246.518 728.889 244.159 727.148C241.8 725.412 239.713 723.381 237.898 721.057C236.084 718.74 234.641 716.207 233.571 713.458C232.5 710.715 231.965 707.923 231.965 705.08C231.965 702.16 232.536 699.657 233.679 697.565C234.823 695.468 236.32 693.813 238.171 692.601C240.021 691.383 242.126 690.609 244.485 690.281C246.844 689.948 249.24 690.103 251.671 690.748C254.248 691.433 256.707 692.592 259.047 694.228C261.388 695.87 263.457 697.835 265.253 700.125C267.05 702.422 268.483 704.979 269.554 707.797C270.625 710.621 271.16 713.515 271.16 716.477ZM251.562 722.822C253.232 723.321 254.847 723.532 256.407 723.453C257.968 723.372 259.347 722.993 260.545 722.313C261.742 721.63 262.704 720.641 263.43 719.346C264.156 718.048 264.518 716.437 264.518 714.516C264.518 712.555 264.147 710.714 263.403 708.995C262.659 707.279 261.67 705.732 260.436 704.354C259.202 702.978 257.814 701.816 256.271 700.866C254.729 699.918 253.159 699.226 251.562 698.789C249.893 698.331 248.278 698.169 246.717 698.299C245.157 698.428 243.778 698.835 242.58 699.52C241.382 700.203 240.43 701.181 239.722 702.455C239.014 703.726 238.66 705.278 238.66 707.111C238.66 709.02 239.032 710.827 239.776 712.534C240.52 714.243 241.5 715.775 242.716 717.13C243.932 718.488 245.311 719.656 246.853 720.635C248.396 721.615 249.965 722.345 251.562 722.822ZM242.362 657.859C242.108 658.068 241.763 658.476 241.328 659.082C240.892 659.687 240.466 660.448 240.049 661.362C239.631 662.276 239.277 663.29 238.987 664.404C238.697 665.518 238.552 666.685 238.552 667.907C238.552 670.083 238.933 671.801 239.695 673.061C240.457 674.323 241.528 675.128 242.907 675.476C243.705 675.677 244.367 675.643 244.894 675.372C245.42 675.1 245.883 674.63 246.282 673.96C246.681 673.289 247.044 672.407 247.371 671.313C247.697 670.217 248.042 668.943 248.405 667.488C248.913 665.605 249.457 663.911 250.038 662.407C250.619 660.901 251.345 659.679 252.216 658.74C253.087 657.799 254.13 657.157 255.346 656.815C256.561 656.472 258.059 656.503 259.837 656.91C261.906 657.383 263.675 658.209 265.145 659.389C266.614 660.572 267.803 661.987 268.71 663.636C269.618 665.286 270.28 667.099 270.697 669.072C271.115 671.047 271.323 673.062 271.323 675.116C271.323 678.275 270.888 681.286 270.017 684.144C269.146 686.996 267.912 689.434 266.315 691.455L259.837 686.184C260.163 685.917 260.59 685.392 261.116 684.61C261.642 683.826 262.169 682.875 262.695 681.756C263.221 680.636 263.666 679.357 264.029 677.919C264.391 676.48 264.573 674.956 264.573 673.348C264.573 668.877 263.248 666.326 260.599 665.697C259.764 665.499 259.057 665.585 258.476 665.953C257.895 666.321 257.387 666.92 256.952 667.75C256.516 668.579 256.117 669.61 255.754 670.844C255.391 672.076 254.992 673.454 254.556 674.977C254.048 676.829 253.495 678.407 252.896 679.709C252.297 681.009 251.589 682.038 250.773 682.795C249.956 683.551 249.013 684.031 247.942 684.235C246.872 684.438 245.592 684.345 244.104 683.958C242.144 683.447 240.402 682.61 238.878 681.45C237.354 680.292 236.084 678.907 235.068 677.295C234.051 675.685 233.28 673.923 232.754 672.006C232.228 670.091 231.965 668.111 231.965 666.064C231.965 663.22 232.391 660.706 233.244 658.518C234.097 656.326 235.104 654.469 236.265 652.948L242.362 657.859ZM242.362 622.612C242.108 622.83 241.763 623.251 241.328 623.873C240.892 624.495 240.466 625.27 240.049 626.2C239.631 627.129 239.277 628.156 238.987 629.281C238.697 630.406 238.552 631.578 238.552 632.8C238.552 634.976 238.933 636.68 239.695 637.912C240.457 639.146 241.528 639.912 242.907 640.209C243.705 640.381 244.367 640.322 244.894 640.031C245.42 639.741 245.883 639.253 246.282 638.569C246.681 637.883 247.044 636.988 247.371 635.881C247.697 634.774 248.042 633.487 248.405 632.019C248.913 630.116 249.457 628.403 250.038 626.877C250.619 625.35 251.345 624.101 252.216 623.13C253.087 622.157 254.13 621.477 255.346 621.09C256.561 620.702 258.059 620.678 259.837 621.02C261.906 621.416 263.675 622.177 265.145 623.303C266.614 624.432 267.803 625.804 268.71 627.419C269.618 629.036 270.28 630.824 270.697 632.782C271.115 634.742 271.323 636.749 271.323 638.803C271.323 641.962 270.888 644.989 270.017 647.879C269.146 650.763 267.912 653.246 266.315 655.326L259.837 650.294C260.163 650.015 260.59 649.474 261.116 648.672C261.642 647.869 262.169 646.898 262.695 645.76C263.221 644.621 263.666 643.326 264.029 641.875C264.391 640.422 264.573 638.892 264.573 637.283C264.573 632.812 263.248 630.311 260.599 629.779C259.764 629.612 259.057 629.723 258.476 630.113C257.895 630.503 257.387 631.12 256.952 631.966C256.516 632.811 256.117 633.857 255.754 635.104C255.391 636.35 254.992 637.742 254.556 639.281C254.048 641.152 253.495 642.75 252.896 644.074C252.297 645.397 251.589 646.451 250.773 647.239C249.956 648.024 249.013 648.539 247.942 648.783C246.872 649.025 245.592 648.98 244.104 648.647C242.144 648.208 240.402 647.436 238.878 646.331C237.354 645.229 236.084 643.891 235.068 642.316C234.051 640.744 233.28 639.01 232.754 637.113C232.228 635.218 231.965 633.247 231.965 631.199C231.965 628.356 232.391 625.826 233.244 623.607C234.097 621.383 235.104 619.489 236.265 617.926L242.362 622.612ZM264.301 586.762L270.888 587.79V616.981L232.237 609.808V582.273L238.824 583.304V603.125L248.133 604.776V587.48L254.23 588.451V605.857L264.301 607.642V586.762ZM246.118 569.726L270.888 573.224V581.395L232.237 575.617V569.529L257.605 551.545L232.291 548.486V540.635L270.888 544.979V551.611L246.118 569.726ZM242.362 508.937C242.108 509.185 241.763 509.646 241.328 510.32C240.892 510.994 240.466 511.82 240.049 512.799C239.631 513.778 239.277 514.847 238.987 516.006C238.697 517.165 238.552 518.355 238.552 519.577C238.552 521.753 238.933 523.412 239.695 524.553C240.457 525.697 241.528 526.336 242.907 526.469C243.705 526.546 244.367 526.408 244.894 526.055C245.42 525.702 245.883 525.159 246.282 524.428C246.681 523.695 247.044 522.756 247.371 521.611C247.697 520.465 248.042 519.137 248.405 517.626C248.913 515.663 249.457 513.885 250.038 512.29C250.619 510.694 251.345 509.359 252.216 508.285C253.087 507.208 254.13 506.404 255.346 505.873C256.561 505.341 258.059 505.139 259.837 505.269C261.906 505.42 263.675 505.971 265.145 506.923C266.614 507.877 267.803 509.108 268.71 510.615C269.618 512.124 270.28 513.834 270.697 515.742C271.115 517.652 271.323 519.635 271.323 521.688C271.323 524.848 270.888 527.926 270.017 530.92C269.146 533.908 267.912 536.537 266.315 538.807L259.837 534.543C260.163 534.226 260.59 533.635 261.116 532.77C261.642 531.904 262.169 530.871 262.695 529.671C263.221 528.469 263.666 527.121 264.029 525.626C264.391 524.131 264.573 522.579 264.573 520.971C264.573 516.499 263.248 514.155 260.599 513.938C259.764 513.87 259.057 514.065 258.476 514.524C257.895 514.983 257.387 515.661 256.952 516.558C256.516 517.455 256.117 518.548 255.754 519.838C255.391 521.127 254.992 522.567 254.556 524.158C254.048 526.089 253.495 527.753 252.896 529.148C252.297 530.541 251.589 531.68 250.773 532.565C249.956 533.447 249.013 534.074 247.942 534.444C246.872 534.814 245.592 534.92 244.104 534.764C242.144 534.558 240.402 533.993 238.878 533.069C237.354 532.148 236.084 530.961 235.068 529.507C234.051 528.056 233.28 526.413 232.754 524.578C232.228 522.745 231.965 520.806 231.965 518.758C231.965 515.915 232.391 513.334 233.244 511.014C234.097 508.689 235.104 506.676 236.265 504.974L242.362 508.937ZM251.29 501.104C248.931 500.94 246.599 500.326 244.295 499.264C241.99 498.207 239.931 496.76 238.116 494.923C236.301 493.093 234.832 490.91 233.707 488.373C232.582 485.843 232.019 483.006 232.019 479.859C232.019 476.143 232.799 472.961 234.36 470.307C235.92 467.645 237.953 465.685 240.457 464.429L244.431 470.664C243.342 471.159 242.426 471.776 241.682 472.512C240.938 473.248 240.348 474.046 239.913 474.907C239.477 475.768 239.159 476.671 238.96 477.617C238.76 478.562 238.66 479.493 238.66 480.409C238.66 482.395 239.042 484.143 239.804 485.655C240.566 487.169 241.555 488.45 242.771 489.497C243.986 490.546 245.365 491.368 246.908 491.961C248.45 492.555 249.984 492.9 251.508 492.993C253.214 493.097 254.856 492.906 256.434 492.418C258.013 491.929 259.401 491.182 260.599 490.178C261.797 489.172 262.758 487.934 263.484 486.466C264.21 484.995 264.573 483.357 264.573 481.553C264.573 480.611 264.464 479.626 264.246 478.596C264.029 477.567 263.684 476.582 263.212 475.641C262.74 474.701 262.132 473.825 261.388 473.012C260.644 472.201 259.746 471.542 258.694 471.033L262.232 464.536C263.684 465.247 264.963 466.24 266.07 467.513C267.177 468.79 268.111 470.22 268.874 471.805C269.636 473.391 270.216 475.081 270.616 476.874C271.015 478.668 271.214 480.414 271.214 482.112C271.214 485.113 270.634 487.826 269.472 490.246C268.311 492.66 266.796 494.702 264.927 496.372C263.058 498.035 260.935 499.283 258.558 500.118C256.18 500.948 253.758 501.276 251.29 501.104ZM232.237 424.344L270.888 423.95V432.062L254.393 432.094V450.842L270.888 451.128V459.299L232.237 458.308V450.457L247.86 450.728V432.107L232.237 432.138V424.344ZM232.237 404.432V397.491L270.888 380.014V388.422L261.252 392.738V407.279L270.888 410.864V419.272L232.237 404.432ZM255.972 394.419L240.784 400.663L255.972 406.082V394.419ZM270.888 375.396L232.237 377.693V350.556L238.824 349.976V369.396L248.786 368.721V352.398L254.883 351.882V368.308L270.888 367.224V375.396ZM238.824 314V327.004L270.888 323.407V331.52L238.824 334.852V347.856L232.237 348.451V314.829L238.824 314Z" fill="#333333"/>
<g >
<path d="M423.804 824V680.407L521.253 645.037V770.747"  stroke-width="2.5" stroke-linecap="square"/>
<path d="M458.764 805.368V769.68V668.262"  stroke-width="2.5" stroke-linecap="square"/>
<path d="M423.804 787.393L458.932 769.578M490.214 753.714L521.599 737.797"  stroke-width="2.5" stroke-linecap="square"/>
<path d="M425.164 188.849V147.282L444.426 154.796V196.189"  stroke-width="2.5" stroke-linecap="square"/>
<path d="M492.935 215.17L492.226 175.257L507.195 181.81V221.011"  stroke-width="2.5" stroke-linecap="square"/>
<path d="M477.426 768.972L459 778.183M476.953 775.585L459 785.74M467.504 765.665L458.528 770.625M467.741 759.525L459 763.304M458.811 756.869L467.977 759.219V765.424L477.187 768.695V775.105L490.077 780.521L458.811 798.077V756.869Z"  stroke-width="2.5" stroke-linecap="square"/>
<path d="M490.195 657.971V787.456"  stroke-width="2.5" stroke-linecap="square"/>
<path d="M490.343 753.807C486.85 756.404 476.502 755.129 459.298 749.984"  stroke-width="2.5" stroke-linecap="square"/>
<path d="M290.811 150.199L112.937 2.1181M290.811 150.199L536.008 240.18L535.536 764.013L290.103 902.867M290.811 150.199L290.103 902.867M112.937 2.1181C83.0162 52.3442 68.0555 77.4573 68.0555 77.4573L1.53992 188.302V779.142L87.6302 815.038L290.103 902.867M112.937 2.1181L272.945 72.6465M535.536 240.18L513.095 220.106"  stroke-width="2.5" stroke-linecap="square"/>
<path fill-rule="evenodd" clip-rule="evenodd" d="M342.071 699.301L375.736 687.855V779.46L342.071 796.429V699.301ZM343.302 631.754V536.719L384.366 531.245V620.942L343.302 631.754ZM425.103 610.205V525.655L458.347 521.344V600.787L425.103 610.205ZM489.119 592.575V515.721L522.363 511.189V584.014L489.119 592.575ZM489.119 470.175V396.881L522.363 398.225V468.175L489.119 470.175ZM426.048 473.874V393.575L458.403 394.937V472.363L426.048 473.874ZM344.315 479.085V388.143L384.963 390.104V476.177L344.315 479.085ZM343.607 326.608V240.062L383.495 249.913V332.082L343.607 326.608ZM424.694 338.587V260.053L453.697 267.723V341.721L424.694 338.587ZM489.119 346.886V276.197L521.213 284.514V351.225L489.119 346.886Z"  stroke-width="2.5" stroke-linecap="square"/>
<path d="M339.361 159.698L263.528 100.407L328.433 81.1995M378.693 96.9389L393.683 102.268L367.263 67.4199L325.458 80.2942L378.693 96.9389ZM378.693 96.9389V174.585L339.609 160.141M339.813 84.7633L339.672 160.247M349.119 163.557L348.474 114.055L371.727 123.727V171.635L349.119 163.557Z"  stroke-width="2.5" stroke-linecap="square"/>
<path d="M379.04 127.58L412.118 119.142M379.04 121.675L442.793 105.794M408.789 118.236L442.68 106.129L463.888 135.595L452.505 131.74V200.571L415.542 185.869L379.04 158.01M452.519 131.702L408.804 118.197M415.654 120.323V185.821"  stroke-width="2.5" stroke-linecap="square"/>
<path d="M453.107 156.014L478.681 151.111M453.107 148.456L506.895 137.767M476.127 150.283L506.636 137.563L523.71 163.002L512.398 159.58L513.285 223.977L485.709 214.06L453.213 192.146M512.292 159.618L476.021 150.32M485.603 152.686V214.097"  stroke-width="2.5" stroke-linecap="square"/>
<path d="M292.229 18.4249V91.6277L275.471 81.811V25.16L292.229 18.4249ZM292.229 18.4249L303.836 24.6489V88.2776"  stroke-width="2.5" stroke-linecap="square"/>
<path fill-rule="evenodd" clip-rule="evenodd" d="M104.788 207.69L134.656 201.651V124.574L104.788 133.946V207.69Z"  stroke-width="2.5" stroke-linecap="square"/>
<path fill-rule="evenodd" clip-rule="evenodd" d="M101.482 340.329L137.254 336.979V257.086L101.482 264.074V340.329Z"  stroke-width="2.5" stroke-linecap="square"/>
<path fill-rule="evenodd" clip-rule="evenodd" d="M101.008 473.036L135.678 475.49V393.811H101.008V473.036Z"  stroke-width="2.5" stroke-linecap="square"/>
<path fill-rule="evenodd" clip-rule="evenodd" d="M101.008 605.42L135.678 612.062V530.283L101.008 525.596V605.42Z"  stroke-width="2.5" stroke-linecap="square"/>
<path d="M137.332 836.605V678.399L97.7066 666.499V819.413"  stroke-width="2.5" stroke-linecap="square"/>
<path d="M136.509 828.279L97.7012 811.748L105.779 807.289M105.779 807.289L136.575 820.286M105.779 807.289V802.349M105.779 802.349L136.545 815.374M105.779 802.349L113.924 797.513M113.924 797.513L136.54 807.058M113.924 797.513V792.573M113.924 792.573L136.578 802.164M113.924 792.573L122.068 787.737M122.068 787.737L136.533 793.842M122.068 787.737L122.198 682.154"  stroke-width="2.5" stroke-linecap="square"/>
<path d="M121.828 87.3795C125.675 87.5138 128.996 81.8106 129.246 74.6411C129.496 67.4716 126.581 61.5506 122.735 61.4163C118.889 61.282 115.568 66.9852 115.317 74.1547C115.067 81.3242 117.982 87.2452 121.828 87.3795Z"  stroke-width="2.5" stroke-linecap="square"/>
</g>
</svg>
