<svg xmlns="http://www.w3.org/2000/svg" width="230" height="293" fill="none" viewBox="0 0 230 293">
  <g class="orange2">
    <g class="Group 1">
      <g class="Mask group">
        <path fill="#FCE96E" fill-rule="evenodd" d="M106 287c57.99 0 105-46.994 105-104.965 0-26.858-9.332-51.185-25.505-69.651-2.037 2.6-4.033 5.769-6.031 8.942-2.78 4.413-5.563 8.833-8.464 11.733-7.5 7.5-18.511 11.168-23.5 11.5-7.5.5-14.5-2-18.5-5.5-1.049-.918-2.03-1.853-3.005-2.784-2.741-2.615-5.438-5.187-9.495-7.216-1.053-.526-2.077-1.088-3.091-1.644-5.006-2.745-9.756-5.35-16.409-2.856 2-4 5.1-7.6 9.5-12 10.016-10.015 25.752-9.677 33.691-9.506l.309.006a835.245 835.245 0 0 1 17.154 5.92c6.415 2.28 8.836 3.141 13.846 4.08l7.326.066 5.329-2.24a100.797 100.797 0 0 0-20.527-17.215c-3.345-.568-8.085 1.268-13.007 3.174-5.857 2.269-11.97 4.637-16.295 3.173-6.349.976-14.652-.489-24.907-3.418-6.042 0-15.442-7.74-21.704-12.896-1.91-1.572-3.527-2.904-4.669-3.703C36.096 90.466 1 131.947 1 182.035 1 240.006 48.01 287 106 287Z" class="Subtract" clip-rule="evenodd"/>
      </g>
    </g>
    <g class="sketch">
      <path stroke="#FCE96E" stroke-linecap="round" stroke-linejoin="round" stroke-width=".16" d="M198.623 108.116a.496.496 0 0 0 .059.032M166.384 221.64c0 .011.007.022.007.028M152.716 207.606c0-.032 0-.049.004-.049M68.584 260.067c-.004-.013-.017-.027-.032-.048" class="Vector"/>
      <path fill="#212121" d="M200.949 149.243c-.03-.1-.026-.077.004.022a.115.115 0 0 1-.004-.022ZM202.715 155.119c-.081-.274-.07-.208 0 0ZM190.254 202.237c.002.221.047.236.123.116-.042-.03-.085-.056-.123-.116ZM65.746 272.274c.09.08-.006-.008-.006-.008a.028.028 0 0 1 .006.008ZM155.114 258.33c0 .259.465.753.465.524.7.079.591-.509.963-3.749.098-.708-1.46-1.917-1.428 3.225ZM162.675 246.213c-1.707 3.004-4.964 9.166-4.972 9.22-.778 6.387 1.885.297.808-.353.892-1.216 2.627-4 5.12-8.397.315-.569-.567-1.134-.956-.47ZM166.761 247.417c-4.63 13.664-2.555 7.519-3.429 7.333-1.156-.248-.06 1.025-2.468 7.568-3.913 8.623-.089 3.383 3.835-6.034-.143.875-.064.785-.066.661.991 1.278 1.441-2.289 1.858-4.149.053-.205-.058-.353-.206-.457 2.485-6.636.697-5.525.476-4.922ZM166.667 258.058c-.008.038-.002.034 0 0Z" class="Vector"/>
      <path fill="#212121" d="M167.989 245.466c-1.248 9.252-.183 9.293 1.057.128.093-.665-.957-.854-1.057-.128ZM173.495 232.79c-.126-.71-1.156-.543-1.052.156-.002-.235 1.084 7.053 1.392 7.643.349.672 1.254.159.976-.432-.215-.426-1.001-5.437-1.316-7.367ZM177.364 238.918c-.002-.009-.013-.021-.013-.032 0 .102.004.097.013.032ZM77.302 275.95c.6-.471-.021-.802-1.612-2.788-6.362-7.945.12 3.956 1.612 2.788ZM76.466 268.217c-.002-.319 1.42 2.632 2.188 2.033.559-.451-.07-1.025-1.352-2.69-.423-.56-1.26.095-.836.657ZM58.827 255.976c-2.691-3.361-2.646-1.637-2.383-1.288 5.232 7.076 6.08 4.735 5.338 4.136-.857-.653-2.313-2.082-2.955-2.848ZM64.74 259.275c-1.47-1.583-1.882-4.078-2.76-3.656-.498.222-.277.916-.277.702 3.727 6.678 4.058 4.121 3.038 2.954ZM66.516 257.155c-.496.212-.277.918-.279.704 4.552 9.278 1.958-1.434.279-.704Z" class="Vector"/>
      <path fill="#212121" d="M68.552 260.016v.002c.066.106.047.066 0-.002ZM79.204 278.139c.05.362 6.24 4.275 6.61 3.3.316-.698-3.53-2.525-3.744-2.607-3.814-2.244-2.866-.479-2.866-.693ZM72.058 280.26c-1.233-.099-.124 1.54-.126 1.061 2.574.199 3.5.503 3.573-.231.107-.732-.663-.612-3.447-.83Z" class="Vector"/>
      <path fill="#212121" d="M76.18 269.61c.575-.789-.7-.443-2.481-4.624-.258-.624-1.259-.244-.968.433 1.414 3.32 2.07 3.231.668 2.343-.007-.03-3.28-5.467-3.365-5.504-1.533-.565.002 2.273 1.154 4.147-.657-.385-1.641-1.059-1.552-.261-1.143-1.179-1.97-2.039-1.964-.783 0 .963 5.27 5.426 4.12 2.841 2.121 1.425 5.131 2.925 5.91 2.992-.24.085-.428.323-.307.699 2.438 7.218 4.709 5.645 3.946 4.755-3.442-3.895-1.42-4.387-5.162-7.038ZM89.635 281.404c.196.009.33-.034.376-.149.36-.861-1.135-.841-5.027-3.45.472-.04.332-.873.03-1.018-1.203-.398-3.463-5.022-4.283-4.376-.808.623 2.593 4.282 3.118 4.757-2.151.008 1.664 2.418 3.599 3.413-2.179-.634-1.001.83-1.003.644 9.44 4.181 16.395 5.471 3.19.179ZM40.25 249.135c-.002-.214 3.606 5.797 3.871 3.392.088-.706-1.305-.92-2.895-3.815-.365-.704-1.262-.122-.975.423ZM164.986 257.557c-.961 2.495-1.626 3.905-2.3 5.219-3.633 7.243.214 3.314 3.241-4.724.302-.713-.695-1.085-.941-.495Z" class="Vector"/>
      <path fill="#212121" d="M84.782 282.354c.002 0 .017.009.032.009-.01-.002-.021-.004-.032-.009Zm-8.473-3.196c.372-.398-2.797-2.448-2.742-2.395-.914-.817-1.14-1.594-1.182-1.649-3.975-5.848-3.042-3.933-1.647-3.863 1.588 2.326 3.78 5.091 4.668 6.163-1.518.4 9.079 4.823.903 1.744Zm-3.928-1.492c.147-.635-.294-.333-2.553-2.86-.328-.373-2.17-.377.61 2.131-1.258-.478-3.593-2.074-4.34-2.895.867.753 1.655 1.243 1.987.813.572-.749-1.665-1.71-2.266-2.508-2.51-2.568-1.792.18-1.794-.323 2.516 2.578 2.446 2.018-.154.725-1.934-1.322-1.753-1.194-1.73-1.266.491-.319-3.762-4.318-4.661-3.931-1.894-4.489-2.621-4.301.282-2.2.28.841 1.06 2.818 1.813 2.375 3.293 3.895 3.142 2.812 2.041.974.852 1.046 1.299.723 1.367.355 3.405 2.364 5.988 4.031 6.269 3.929.35-.118 1.112 1.538 2.323 2.569-.225 1.524 3.603 3.186.806 2.112Zm-6.862-9.083c1.628 1.905 2.228 1.787 2.84 2.748-2.036-1.445-6.47-4.22-6.728-4.718-1.292-2.2-.984-1.248 3.888 1.97Zm-16.778-5.112c-1.875-2.405-2.237-2.278-1.913-1.352a170.448 170.448 0 0 1-4.647-3.453c-1.918-4.034-3.189-3.366 13.407 9.34a172.766 172.766 0 0 1-6.847-4.535Zm40.663 21.299c3.243.173.916-.759-2.139-1.592-5-1.703-5.737-3.639-10.624-5.507.072-.161.093-.341-.056-.505-5.256-5.874-6.43-10.32-7.544-9.477-.261.212.128 1.074.817 2.206-1.99-1.179-1.525-.805-2.235-1.857.655-.353-.19-1.066-.671-2.474-1.161-3.434-1.267-.697-.676 1.181-.268.345-.215.828-.27.723 0 .368-1.344-1.889-1.841-1.6a64.891 64.891 0 0 0-.997-2.161c-.319-.67-1.265-.184-.978.424 0-.067.489.686 1.037 1.499-1.326-.932-2.331-1.686-3.105-2.251-1.19-3.19-1.518-5.897-2.247-5.807-.723.144-.576.64.774 4.825-.51-.259-.712-.158-.71.409.002.34.03.274 1.277 1.23.634 1.693.908 1.697-.572.638-1.366-3.15-1.622-2.484-1.32-.95-.84-.608-1.726-1.256-2.661-1.949-2.5-4.487-3.019-3.075-2.3-1.729-6.951-5.279-6.913-5.51-7.379-5.709-.4-.259-1 .126-.756.623-.005-.527 2.064 5.625 3.256 4.714.519-.413.153-.356-1.22-2.979a167.28 167.28 0 0 0 4.322 3.364c.002.158.042.267.042.169 2.538 5.527 3.333 3.254 2.647 2.572-.428-.424-.719-.942-.959-1.44.412.308.831.618 1.256.93 3.49 6.43 4.42 6.419-.795 2.281-15.352-12.119-9.59-8.879-17.288-14.879-1.078-2.818-6.182-12.025-6.163-8.983.013.965 5.108 7.571 5.113 9.133.004.505 1.955 2.422 4.931 5.028.17.391.553 1.316 1.036 2.413-1.095-.858-1.952-1.598-2.226-2.989-.115-.642-1.24-.691-.986.415-6.21-5.049-.619.09-7.321-8.407-7.513-9.333-7.895-11.916-8.843-11.304-1.363.91 5.784 9.646 9.89 14.073-.575.432-.048.723 1.263 2.497-.174.501.273.837 1.31 1.74 1.473 1.921 3.1 3.845 3.592 3.466.544-.447-.754-1.048 4.303 2.649 1.071 2.204 2.202 4.031 2.464 2.491.076-.768-1.52-1.791.316-.484.4.809 1.076 2.048 1.692 1.556.321-.257-.257-.537 1.216.494-.325.392.434 1.23 2.005 3.165-2.186-1.791-2.95-2.562-2.944-1.293.002.212.174.593.17.381 10.184 8.553 10.246 6.295 7.489 4.434-.09-.507-4.25-3.837-3.716-4.305.319-.234-.298-.503 1.598.768-.13 1.196 9.934 10.936 11.033 9.476.608-.806-.191-.288-6.396-5.593 3.777 2.51 2.476.728 3.673 1.427-.009.3.115.623.112.426 5.215 5.409 4.677 2.63 4.358 2.403-2.532-1.733-1.503-1.151-.878-.841 4.753 3.36 2.732 2.666 6.998 4.387.047.055-5.357-2.179-5.437-2.213-1.276-.552-.398 1.558-.4.989 6.286 2.591 6.668 3.03 6.974 2.311.26-.636-1.307-.719 5.1 1.594-2.444 1.343 20.033 9.32 5.312 2.306-2.976-1.346 13.907 5.7 13.724 2.882-.062-.958-1.403-.117-6.447-1.414ZM97.575 282.371c-5.544-1.731-7.93-3.293-7.478-1.799-.073-.163-.702.148 5.22 2.189 3.302 1.181 2.879-.158 2.258-.39ZM94.467 278.364c-.002-.214 4.783 4.142 4.01 1.714-.203-.565-4.592-3.552-4.01-1.714ZM88.925 274.577a92.135 92.135 0 0 1-1.522-2.53c-.268-.443-1.445-.402-.648.989-3.744-2.469-6.762-2.852-1.886.417-.212.154-.33.445-.108.749-.004-.535 2.44 4.746 3.45 3.873.589-.428.104-.503-2.162-3.856.767.486 1.558.963 2.285 1.363 2.196 3.242 2.934 2.326 1.856.895 1.909.68.36-.668-1.265-1.9ZM91.84 273.742c1.37.695 1.817.636-.317-1.11-.058-.217-.113-.424-.17-.666-.098-.417-.634-.451-.889-.178-3.994-3.057-3.467-2.715-4.366-5.013 1.737 1.821 3.267 3.017 3.673 2.245.09-.189-4.666-4.911-5.32-5.555-8.624-10.194-3.047-1.701 1.428 3.077-.368-.242-.978.056-.767.635-.002-.368.148.281.406 1.09-.93 1.146 3.77 4.014 5.065 4.782.53 1.714 1.85 5.681 2.98 4.525.793-.883-.476.043-1.724-3.832ZM95.794 277.247c.76-.244.178-1.034-.525-3.079-.228-.666-1.236-.332-1.012.334-.005-.644.535 3.079 1.537 2.745Z" class="Vector"/>
      <path fill="#212121" d="M48.148 252.112c0 .096.027.192.087.269 11.897 16.142-.115-4.549-.087-.269ZM52.643 253.558c4.996 6.334 2.487 1.421 3.019 2.127-4-5.05-3.017-1.911-3.019-2.127ZM101.663 276.864a.1.1 0 0 0 .007.015.067.067 0 0 1-.007-.017v.002ZM97.777 268.301c.017-.255-2.22-2.155-8.412-6.779-1.1-.86-.706 1.288-.71.79 9 6.785 9.234 5.86 9.024 6.019-.695.445.202 1.183.988 2.452 4.581 7.256 9.592 6.094 5.351 3.992-3.597-1.724-4.81-6.789-6.241-6.474Z" class="Vector"/>
      <path fill="#212121" d="M104.292 272.032c-1.734-1.074-1.696-3.102-2.546-2.773-.543.174-.345.884-.345.67 2.056 4.746 3.926 2.741 2.891 2.103ZM135.338 275.742c-.063.009-.027-.089 0 0ZM155.161 246.673c-6.429 11.832-5.644 12.425.948.496.321-.599-.591-1.136-.948-.496ZM154.999 253.789c.829.139 2.54-5.221 2.464-5.437-.712-2.249-3.469 5.191-2.464 5.437ZM184.678 211.314c-.114-.492-.35-.233-.71 1.423-.837 1.731-1.534 3.357-1.532 3.453.004.803.395.595.931-.113-.255 1.451-.442 1.853-.442 2.058.004.749 1.415 1.689 1.796-4.279 2.821-5.319 2.604-7.617-.043-2.542ZM37.593 249.604c1.314.255-.095-.967-1.086-2.69-5.55-9.814-1.32 2.564 1.086 2.69ZM36.622 243.448c.013.214.178.578.176.366 11.022 12.35-.2-4.102-.176-.366ZM83.787 270.194c.834.946 1.807-.582.965-.941-1.047-.43-3.624-6.37-4.206-6.625-1.146-.494-.53 1.122.459 2.983-16.324-19.005-10.178-8.999 2.782 4.583ZM85.582 262.222c.002.413 9.404 8.646 8.477 5.721-.104-.344-.01.054-4.047-3.141-2.2-1.72-4.441-4.258-4.43-2.58ZM97.685 273.256c-3.43-1.759-7.96-5.942-7.257-3.588-.004-.15 14.247 12.115 6.666 4.476.872.405 1.157-.61.591-.888ZM97.72 264.503c-4.835-6.723-2.443-.268 1.47 3.357 1.355 1.19 1.975.045.904-.648-.872-.709-1.692-1.781-2.375-2.709ZM103.476 266.739c-1.913-1.9-2.628-4.245-3.45-3.713-.432.287-.153.959-.153.745 4.661 6.68 5.127 4.205 3.603 2.968ZM104.796 264.563c.093 1.517 7.597 6.569 1.785.539-1.405-1.513-1.821-1.081-1.785-.539ZM110.469 264.706c-.414.458.149.865.666 1.399-.525-.047-1.227 1.406 3.167 3.212 4.517 4.444 3.943 3.094 2.053.723 2.226.649 3.442.531-.51-1.258-1.566-.689-4.676-4.851-5.376-4.076ZM121.608 271.035c.009.007.015.013.023.017.036.024.03.015-.023-.017ZM124.004 263.525c0 .398 4.234 4.425 4.834 3.759.457-.505-4.847-5.873-4.834-3.759ZM131.289 261.304c-.727.248-.343.552 1.507 8.696.563 1.487 1.673.346 1.069-.21-.531-.389-1.365-8.888-2.576-8.486ZM138.2 263.882c.004.238.42.736.418.518 2.152.482-.472-9.179-.418-.518ZM135.855 258.225c-2.925-16.461-2.668-2.728-.517 2.202.23.755 1.452.686 1.429-.043-.049-.723-.377.359-.912-2.159Z" class="Vector"/>
      <path fill="#212121" d="M139.08 258.144c-.098-.79-.245-4.034-.315-5.527-.043-.709-1.108-.649-1.063.047.565 12.012 3.172 4.913 1.378 5.48ZM142.245 251.973c-1.061-.227-1.233 6.2-1.263 6.964 1.29 1.956 1.96-6.793 1.263-6.964ZM140.982 258.937l-.004-.006c-.002.122.002.107.004.006ZM145.803 261.498c0-.006-.006-.008-.006-.014 0 .046-.004.074.006.014ZM149.715 254.878c-1.248-.295-1.448 7.631-1.482 8.673 1.052.498 2.109-8.531 1.482-8.673ZM148.233 263.551c-.004-.003-.007.002-.009 0 0 .16.002.145.009 0ZM149.459 263.073c.7 2.065 2.736-4.095 2.664-4.311-.744-2.198-2.661 4.528-2.664 4.311ZM163.727 231.731c-.858-.454-.748.858-.75.64 1.38 6.881 2.107.085.75-.64ZM165.521 234.286c-.274 1.429-.023 1.677-.025 1.455 1.486 2.942 2.755-14.058.025-1.455ZM169.8 231.77c-.242 1.803 2.126.588 1.248-.268 2.22-5.373.043-3.708-1.248.268ZM175.94 225.77c-1.329-.289-.948 3.706-.955 2.837.659 1.021 1.935-.391.923-.723.2-.916.844-1.941.032-2.114ZM194.153 181.527c-.967-5.745-1.915-3.242-.959.522.504 1.29 1.839-.038.959-.522ZM196.057 179.492c-1.392-3.267-1.62-1.664-1.658-1.256 1.288 3.169 1.784 1.554 1.658 1.256ZM194.399 178.236c-.002-.008-.004-.01-.008-.019.002.152 0 .124.008.019ZM125.883 285.575c.266 1.106 15.55-4.489 15.037-5.508-.138-.259-15.198 4.673-15.037 5.508ZM155.634 272.892c-.023-.019-.067-.017-.082-.046.002.044.032.057.082.046ZM115.45 256.68c-.653-.695-.3-.295.043-.293a.468.468 0 0 0-.043.293Zm-2.615-3.308c-.858-.929-1.626-1.481-1.619-.477 0 .175 4.374 6.045 6.655 7.448 3.027 4.429 5.368 5.722 1.297-.085.051-.109-10.529-14.642-6.333-6.886ZM142.787 249.634c.667-.867-.117-.223-.16-2.897-.157-10.363-2.538 6.107.16 2.897ZM144.617 247.522c-.187-4.391-1.129-1.772-1.131-1.992.136 5.176 1.945 2.484 1.131 1.992ZM145.393 245.391c-.614.041-.493.794-.493.573.542 6.569 2.17-.678.493-.573ZM158.577 241.717c-.243-.255.395-5.473-.037-5.831-1.46-1.331-1.018 7.042-1.024 5.962.236 1.482 1.781.614 1.061-.131ZM160.26 239.196c-.831.05-.501 2.515-.501 2.301.012 1.934 2.242.571 1.067.006-.083-1.172.291-2.392-.566-2.307ZM162.709 240.536c.665-.041.663-1.117-.072-1.07-1.163.071.074 1.524.072 1.07ZM172.7 221.685c1.224-6.535-3.221-11.91-2.617-8.86-.308-.08-.68.057-.665.52.036 2.507-.262 8.548 1.256 5.888.1-.186-.094.892-.193-5.358 1.577 3.137.206-.402.88 7.14.008 1.316 1.201 1.333 1.339.67ZM174.602 216.847c-1.201-.205-.911 7.036-.916 6.347.092.74 1.144.584 1.061-.073-.363-1.783.829-6.034-.145-6.274ZM176.854 231.342c-.26 1.352.284 1.611.282 1.375 1.337.259 5.495-26.776-.282-1.375ZM181.258 220.688c-.82-.15-1.839 8.721-1.843 8.047.2 4.892 3.104-7.773 1.843-8.047ZM181.52 228.712l-.005-.002c0 .095.002.084.005.002ZM189.455 202.124c.774-4.615-.744-3.428-.77-2.996-.197 2.046-.582 4.406.296 4.089.006 1.751.089 6.959.703 6.918.727-.051.7-.843.353-7.521-.013-.353-.308-.514-.582-.49ZM189.251 181.45l.002-.009c-.002-.029-.002-.032-.002.009Z" class="Vector"/>
      <path fill="#212121" d="M190.303 181.377c-.021-.687-1.086-.657-1.05.064.314 9.537.019-2.229.253 10.624-.976-1.048-2.515 7.68-2.521 6.552.78 2.056 2.349-3.982 2.557-5.127.242 7.038 1.943 8.931.761-12.113ZM191.298 178.591c-.268-.458-1.112-.237-.927.435 0-.056.266.622.616 1.483 2.224 17.243 2.347-1.886.311-1.918ZM199.444 161.336l-.007-.042c0 .042.002.049.007.042ZM186.236 167.086c.944-.062.712-4.117-.059-4.04-.595.033-1.063 4.149.059 4.04ZM189.41 165.402c.672-.237.257-.663-.652-3.55-.198-.592-1.065-.361-.995.236.066-.225.612 3.691 1.647 3.314ZM187.763 162.088c.006.043-.024.07-.007.12 0-.067.002-.099.007-.12ZM191.277 159.764c-.002-.299.297 4.431 1.122 4.389.778-.056.453-.642-.062-4.466-.112-.766-1.154-.558-1.06.077ZM191.179 172.341c-.306-.132-.732-.036-.757.492-.419 7.453 1.407 1.819 1.033-.136.421.237.835-.619.54-.933-.402-3.285-1.628-1.154-.816.577ZM178.108 207.321c.282-6.387-.096-8.315-.532-8.711.249-1.746.043-5.843-.952-5.755-.619.038-.51.802-.51.588.312 2.938.599 4.581.839 5.362-.586.715.245 3.591.1 8.591-.034.616 1.059.738 1.055-.075ZM179.672 206.754c-.231-2.846.279-4.729-.705-4.664-.985.062-.326 4.968-.266 5.18.215.798 1.598.197.971-.516ZM181.977 205.714c.514-.376.108-.56-.583-2.837-.212-.665-1.288-.368-1.05.375-.004-.33.555 3.207 1.633 2.462ZM178.726 188.993c.651-.251.455-.42-1.598-5.737-.247-.674-1.237-.285-.999.357-.007-.881 1.59 5.713 2.597 5.38ZM180.176 184.998c-.115-.753-1.139-.572-1.063.072 0-.216 3.465 17.538 1.063-.072ZM182.276 187.619c-.002-.353-.013 7.955.987 7.861.769-.049.435-.21.076-7.945-.023-.661-1.093-.665-1.063.084Z" class="Vector"/>
      <path fill="#212121" d="M183.922 198.195c1.962.407 2.057-21.482.185-5.122-.426 4.149-.991 4.97-.185 5.122Z" class="Vector"/>
      <path fill="#212121" d="M185.531 203.975v-.034.034Zm-.002.068c0-.038.002-.038.002-.049l-.002.049Zm2.234 8.548c.189-.481.487-1.467-.028-1.459.045-.944.463-7.9-.431-8.139-.368-6.541-1.012-5.596-1.233-3.349.078-1.399.089-2.655-.049-3.205.744-2.151 1.275-5.628.844-5.722-.94-.175-2.222 7.386-2.222 7.172.143.208.298.253.453.178-1.303 6.89.234 11.867.906 2.61-.06 1.729.134 3.653.812 3.73-.002 3.261.057 5.728.148 7.397-3.222 4.369-3.184 8.129.183 2.065.009.055-2.077 9.395 1.388-.593.228-.663-.425-.903-.771-.685ZM96.81 260.298c1.307 1.599 1.86.221 1.368-.175-.758-.58-1.755-1.971-2.3-2.75-3.286-4.844-3.458-1.442.932 2.925ZM97.466 257.15l-.012-.021c0 .083.004.074.012.021ZM97.466 257.151c2.069 4.157 3.606 2.309 2.896 1.664-.392-.331-.4.14-.96-.44-.67-.76-1.59-3.362-1.936-1.224ZM103.841 258.238c.162.214-.153.023-.788-1.667-.257-.672-1.246-.278-1.004.357 1.556 3.999 2.587 1.969 1.792 1.31ZM107.285 258.779c-.442-.565-1.56-2.307-1.584-2.319-.88-.407-.733.879-.733.663 2.466 4.889 4.33 3.008 2.317 1.656ZM118.681 268.247c3.093 2.66 4.243 1.034 2.143.206-.685-.272-2.328-2.016-2.319-.599.002.214.178.609.176.393ZM120.545 257.709c.115-.34-.117-.877-.576-.843-.368-.171-1.615-1.998-1.781-2.229-3.554-4.945-2.319-.88-2.324-1.481 3.591 5.848 3.852 3.892 4.165 5.317 1.09 4.089 2.593 3.719 1.664 1.875.102.173-.485-2.414-1.148-2.639ZM124.769 257.232c.668-.038.665-1.117-.072-1.068-1.163.071.076 1.522.072 1.068ZM126.782 260.232c-.295.34.047.965.045.751 8.058 7.714 1.061-2.033-.045-.751ZM133.147 258.261c.435-.5-.117-.507-1.497-2.805-.336-.558-1.269-.043-.874.608-.002-.34 1.486 3.22 2.371 2.197ZM146.851 235.758c.032.135.023.096.026.105-.011-.037-.017-.071-.026-.105Zm1.105.118c-.539-2.119-1.811.072-1.19.975.032 2.953 1.526 3.946 1.19-.975ZM150.061 236.586c-.793-.139-1.535 5.88-1.539 5.217.017 3.051 2.978-4.902 1.539-5.217ZM150.832 242.939c.966-3.193-.312-2.668-.495-2.067-.591 2.045-1.322 4.446-2.143 6.278-.365.798.619 2.347 2.638-4.211Z" class="Vector"/>
      <path fill="#212121" d="M151.353 243.799c-.978-.518-.512 1.019-3.607 6.781-.181.353.244.931.244.717 1.025.507 4.201-7.111 3.363-7.498ZM162.373 243.138c-.695-.358-4.698 7.93-4.702 7.33.051.788.536.559 1.174-.156.474.251 1.258-.453.848-.911.178-.45 3.537-5.852 2.68-6.263ZM154.27 229.305c-.03 12.382 1.033 12.791 1.061-.075-.005-.644-1.065-.704-1.061.075ZM157.452 235.127v.002c-.004.028 0 .03 0-.002Zm-.019-5.356c-1.15-.267-1.01 5.88-1.012 5.478.194 1.125 1.847.37 1.333-.394-.75-1.1.827-4.876-.321-5.084ZM161.047 227.141c-1.822-.419-.291 8.51.221 3.315-.196 1.012.616-3.161-.221-3.315ZM163.821 221.728c-.009.133 0 .053 0 0Z" class="Vector"/>
      <path fill="#212121" d="M165.1 221.696c-.214-.116-.063-1.735-1.156-2.065-.685-.122.259-6.552-.995-6.468-.585.036-.485.785-.487.571.328 8.591.17 8.61.874 8.565.568-.036.472-.665.519-.982.046-.338.142.325.127.246.495 2.583 2.022.606 1.118.133Z" class="Vector"/>
      <path fill="#212121" d="m163.978 221.542.004.021c-.002-.021-.004-.017-.004-.021ZM166.395 221.691l-.009-.051c0 .051.005.062.009.051ZM167.994 218.514c-1.18-.605-1.544 3.079-1.599 3.178.293 2.034 2.513-2.756 1.599-3.178ZM166.665 202.762c.083 5.282 1.418 8.139 1.22 2.841-.034-5.659-1.22-2.619-1.22-2.841ZM168.852 203.53c-.017 2.246.013 3.151.011 2.931.106 2.217 2.764-.066 1.052-.244-.021-.428-.004-2.546-.002-2.762.015-.627-1.041-.715-1.061.075ZM172.783 206.025c.561-.18.272-.715.153-1.971-.066-.74-1.122-.586-1.061.073-.002-.216-.068 2.272.908 1.898ZM175.684 177.624c-.004-.015-.006-.026-.012-.038.002.04.006.046.012.038ZM175.684 177.624c1.797 6.841 3.38 3.449 2.209 3.146-.383-.124-.521-.925-.784-1.883-.957-3.649-1.357-1.348-1.425-1.263ZM181.211 171.4c.521-.368.128-.379-1.02-3.995-3.718-11.798-.952 5.409 1.02 3.995Z" class="Vector"/>
      <path fill="#212121" d="M182.432 169.311c-.449-.162-1.014-2.77-1.34-4.688-.151-.832-1.154-.481-1.054.077 1.335 8.745 3.707 4.967 2.394 4.611ZM183.792 167.563c-.359-.607-.818-3.558-1.188-3.712-.857-.454-.736.871-.736.657 1.607 7.146 3.148 3.165 1.924 3.055ZM182.661 162.569c-.004-.229-.01 2.223 1.04 1.9.935-.197.18-.86.012-1.97-.089-.745-1.15-.582-1.052.07ZM179.549 154.599c2.511 5.15 3.605 2.574 2.668 1.917-.245-.152-.481-.541-.706-.98a.74.74 0 0 0 .106-.804c-.429-.998-.138-1.907-.89-1.858-.47.032-.523.383-.436.85-.908-.236-.74 1.159-.742.875ZM178.884 143.513c.002.197-.056.141 1.532 2.617-.661.056-.327 1.337-.767 2.493 1.547 5.214 2.725 3.205 2.51 2.64-.187-.558-.263.285-.912-1.633-.18-.537-.342-.924-.482-1.221.093-.306.161-.798.193-1.445 3.363 5.121 2.407 2.273.855-.631.087-.289.161-.738.217-1.359.14.05.278.06.401-.021.583-.404.045-.882-1.243-2.623-.446-.593-1.276.077-.876.601 0-.12.729 1.081.729 1.123-.017.33-.017.632-.006.916-1.084-1.797-2.162-3.047-2.151-1.457ZM123.043 258.289c.674-1.928 1.458-5.304 1.664-7.356.596.43.976-.334.719-.676-.997-1.432-1.156-2.97-1.103-2.752-.976-4.008-1.337-1.673-1.388-1.643 1.413 8.49 1.517-1.201-.404 10.204-2.66-3.398-2.475-.511-.183 1.113-.502 3.156-.062 2.993.453 1.748 1.466 3.905 4.232 1.848.242-.638Z" class="Vector"/>
      <path fill="#212121" d="m122.934 245.861-.008-.04c0 .034.004.042.008.04ZM127.492 250.113c-.057-.122-.023-.062 0 0Zm-.221-.569c-2.704-9.742-1.843 3.325.642 1.584.819-.578-.387-.726-.642-1.584ZM129.837 249.238c-.049-.498-.315.143-.425-1.635-.255-3.639-1.146-1.264-1.146-1.478.306 5.347 1.596 3.496 1.571 3.113ZM131.81 249.433c-.147-.212-.077-.3-.264-3.152-.043-.672-1.11-.659-1.061.073-.002-.218.009 3.175.502 3.755.682.924 1.847.118.823-.676ZM132.186 237.498c-.002-.217 3.752 19.349 1.063-.082-.113-.747-1.159-.567-1.063.082ZM134.973 244.544c.01 1.891 1.49 1.174 1.222.466-.234-.738-.168-4.774-.27-4.866-1.358-1.247-.952 4.614-.952 4.4ZM136.76 242.263c-.605 5.903.438 6.564 1.038.209.085-.806-1.004-.806-1.038-.209ZM138.459 243.388c-1.414 6.993-1.197 5.625-1.195 5.839 0 .259.429.747.427.529.732.145.636-.349 1.805-6.167.138-.695-.905-.892-1.037-.201ZM138.716 241.756c.714-.043.506-.15.068-6.743-.045-.669-1.103-.648-1.063.077.011.321.143 6.747.995 6.666ZM141.218 239.047c.33-3.828.517-3.867.306-4.179-1.256-1.939-1.348 4.613-1.356 4.823.04.543 1.061 1.035 1.05-.644Z" class="Vector"/>
      <path stroke="#212121" stroke-linecap="round" stroke-linejoin="round" stroke-width=".16" d="M140.168 239.691v-.005" class="Vector"/>
      <path fill="#212121" d="M142.381 236.331c-.717 3.805.276 4.023 1.046.212.119-.721-.919-.886-1.046-.212ZM80.473 254.369c-.54.651 5.338 7.151 5.191 4.904-.013-.214-4.528-5.642-5.19-4.904ZM84.24 255.89c3.327 5.615 3.854 1.573 2.494 1.997-.249.077-.655-.976-.804-1.224-2.045-3.225-1.688-.484-1.69-.773ZM86.76 256.021c3.077 3.691 3.613 2.26 1.66.317-2.41-2.771-1.657.212-1.66-.317ZM108.716 253.639c-2.128-1.322-3.665-6.498-4.528-6.188-.529.189-.327.903-.327.689 3.726 8.688 5.85 6.214 4.855 5.499ZM105.746 246.981c4.149 8.862 5.822 3.629 3.763 4.104-.761-.094-2.802-4.648-3.027-4.761-.864-.454-.734.892-.736.657ZM111.745 249.193c-2.849-4.688-2.289-2.154-2.289-2.328 2.565 5.799 3.437 2.955 2.884 2.307.404.195.695-.428.583-.681-.311-.657-.479-1.489-.61-2.199-.141-.8-1.172-.531-1.055.073.287 1.658.629 2.413.933 2.7-.117-.039-.265-.011-.446.128ZM105.172 260.611c8.218 4.521 6.42 1.801 6.003 1.673-1.42-.39-4.217-1.913-5.537-2.63-1.231-.691-.464 1.633-.466.957ZM109.472 259.697c2.762 1.93 2.911.657 1.316-.37-2.236-1.594-1.313.845-1.316.37ZM113.161 258.37c.518.334 1.158-.543.467-.954-3.188-2.302-1.392-3.304-2.602-3.224-1.175.081-.191 2.689 2.135 4.178ZM125.834 253.834c-.136 2.874-.744 8.011 1.235 4.986.43-.694-.476 1.938-.172-5.069-.004-.584-1.022-.749-1.063.083ZM129.299 254.536c-1.169-.242-.937 4.087-.942 3.565 1.11 1.59 1.695-3.417.942-3.565ZM147.202 224.165c-.279.332-.419 7.433-.421 7.219-.219 1.982 2.398.6 1.103.003-.563-.261 1.186-9.282-.682-7.222ZM150.898 232.148c1.535.101 1.274-1.433.443-1.202-2.619-11.428-2.107.657-.443 1.202ZM154.009 226.407c.074-.348-.156-.087-.591-2.15 2.529 5.116 1.66-1.577.163-1.001-.287.092-.47.408-.261.815-.277-.325-1.04-.225-.908.535-.002-.214 1.186 4.078 1.597 1.801ZM153.713 207.311c-.149-.542-1.037-.431-.991.244.134-.013 1.282 7.906 2.398 7.491.61-.21.396-.022-1.407-7.735Z" class="Vector"/>
      <path fill="#212121" d="M152.722 207.554c-.008 0-.012.037-.012.114-.011-.049.017-.071.012-.114ZM157.322 210.987c-1.111-6.195-2.151-.972-.769 1.012.563.963 2.002-.875.769-1.012ZM158.324 208.209c1.099 7.983 2.219-.721.495-.571-.608.041-.493.787-.495.571ZM175.266 213.942c-.623-1.31-.812-1.764-1.346-3.092-.285-.711-1.243-.251-1.001.359-.006-.995 1.726 6.526 3.282 3.661.466-.815-.816-.637-.935-.928ZM176.201 211.447c-1.894-1 .64 3.566 1.12 4.005.676.668 1.618-.757.585-.92-.253-.255-1.357-2.921-1.705-3.085ZM180.929 212.966a1.84 1.84 0 0 0-1.582.308c-.47-.721-.563-2.36-1.367-2.061-.939.323.385 3.841 1.935 2.962.34-.193.652-.135.939-.015-.085 1.72-.119 3.813-.119 3.68.978 1.511 1.174-2.829 1.52-3.545.085-.163-.021-.413-.229-.659-.083-2.416-.955-2.427-1.097-.67ZM165.494 189.624c.98 5.927 3.416 6.029 2.272 3.669.23.383-.665-1.232-1.141-3.335-.015-.056-.019-.946-.636-.906-.608.041-.495.788-.495.572ZM171.382 195.125c.098-.526-1.684-7.459-2.734-7.123-.897.327.041.777 1.112 4.853a19.142 19.142 0 0 1-.687-1.808c-.219-.647-1.239-.343-1.003.357 0-.214 2.704 6.689 3.312 3.721ZM174.175 198.251c.891.443 1.352-.892.495-1.014-1.003-4.209 1.118 1.504-1.383-6.888-.192-.618-1.221-.355-1.002.357 0-.066.445 1.027.942 2.185-.772.34.397 5.026.948 5.36ZM171.267 180.489c-1.163.071.074 1.522.072 1.07.668-.038.664-1.117-.072-1.07ZM170.519 171.995c-.002-.441 1.705 3.464 2.591 2.841.57-.383.143-.747-1.715-3.438-.387-.587-1.263.01-.876.597ZM174.815 173.443c.293-.338-.187-1.11-.147-.894-1.152-5.854-1.728 3.049.147.894ZM174.154 162.815c-1.45.099.721 3.764 1.059 1.952.038-.186-.598-1.979-1.059-1.952ZM175.829 160.596c-1.163.073.076 1.524.072 1.07.668-.038.665-1.119-.072-1.07ZM15.307 224.144c.961 4.989 2.974 5.71 1.33.725-.82-2.655-1.328-.511-1.33-.725ZM18.339 224.257c-.793.071-.457 2.491-.46 2.275.387 1.876 1.916.877 1.12.085-.38-.755.36-2.426-.66-2.36ZM20.554 239.896c-.002-.55 4.268 8.045 5.267 7.376.595-.42.264-.428-4.39-7.984-.338-.556-1.283-.029-.877.608ZM20.624 227.383c9.487 21.648.093-2.302.074-2.463-.076-.639-1.156-.787-1.023.298.022.058.194 1.682.949 2.165ZM24.733 230.849c.4 5.29 1.785 4.171 1.343 2.628-.416-2.18-.002-3.276-.848-3.199-.593.037-.493.788-.495.571ZM28.39 235.715c.802-.274-.033-.858-.3-3.505-.067-.693-1.055-.601-1.043.043.052.576.298 3.854 1.344 3.462ZM27.035 232.292c0-.017.01-.024.012-.039-.01-.12-.012-.13-.012.039ZM27.957 249.396c.002.341 2.87 3.516 3.525 2.789.495-.593-3.535-4.68-3.525-2.789ZM29.2 233.308a.16.16 0 0 1-.008-.03c.003.087.003.08.009.03ZM30.863 235.148c-1.405-4.202-1.626-2.146-1.662-1.84 1.396 5.187 3.782 8.319 1.662 1.84ZM35.289 238.704c-.87-1.358-.914-2.923-1.048-4.271-.066-.725-1.124-.592-1.06.075.658 6.909 2.578 4.975 2.108 4.196ZM37.525 236.648c.887 6.152 4.573 6.254 3.523 4.81-1.493-2.024-2.007-2.655-2.237-3.464-.81-3.665-1.171-1.288-1.286-1.346ZM37.525 236.647c-.004-.019-.008-.035-.01-.052 0 .036.002.048.01.052ZM58.436 249.867c1.012.708 1.803-.115.531-.913-2.455-1.779-3.022-2.703-3.537-2.085-.644.719 2.791 2.866 3.006 2.998ZM61.699 248.894c.215-.366-.191-.918-.653-.741-.448.161-.837-2.424-1.732-2.152-1.008.381 1.22 4.975 2.385 2.893ZM60.177 243.444c1.55 6.077 2.145-1.312.33-.687-.513.195-.33.901-.33.687ZM63.304 242.485c-1.008-1.921-.965-2.176-1.065-3.227-.09-.746-1.122-.59-1.06.073.65 5.292 2.614 4.121 2.125 3.154ZM70.183 254.048c-.804-1.038-1.476-2.441-1.973-3.614-.291-.706-1.246-.252-1.001.358 2.6 6.158 3.284 3.669 2.974 3.256ZM69.462 249.649c2.868 5.206 3.482.65 2.015 1.391-2.744-4.166-2.013-.972-2.015-1.391ZM72.187 247.565c2.963 6.329 1.87-1.186.328-.689-.523.192-.328.903-.328.689ZM76.343 248.947c-.852-.449-.733.875-.733.657 1.558 7.731 2.147.098.733-.657ZM78.36 253.622c.666-.038.664-1.117-.072-1.067-1.165.07.075 1.521.073 1.067ZM76.462 253.892c-.878-.201-.55 1.072-.553.822 2.132 2.424 1.57-.647.553-.822ZM83.47 247.529c0-.217 2.76 3.8 2.617 1.57-.025-.391-2.731-3.366-2.616-1.57ZM86.098 246.02c-1.165.068.077 1.517.072 1.068.666-.041.666-1.119-.072-1.068ZM87.571 246.429c2.12 3.528 4.453 5.133 1.622.633-1.964-3.081-1.62-.295-1.622-.633ZM94.72 251.605c1.556 1.987 2.11.278 1.452-.06-.215-.133-1.456-1.228-1.286-2.399.206-1.215-2.617-.787-.166 2.459ZM97.426 249.185c-.283-.696-1.248-.242-1 .357-.001-.214 1.844 3.766 2.235 1.673.153-.753-.323.148-1.235-2.03ZM93.42 241.216c-.46-.218-.75-1.358-.777-1.868-.04-.68-1.12-.657-1.052.073.34 4.793 4.081 2.106 1.828 1.795ZM94.182 239.766c.457.547 1.295.062 1.233-.518-.038-.586-.361.563-1.273-3.342-.145-.595-1.229-.396-1.004.359 0-.216.634 3.094 1.044 3.501ZM95.492 235.508c-.275-.756-1.363-.321-1.104.391 0-.216 4.473 8.217 1.103-.391ZM96.257 236.676c3.178 6.07 3.658.513 2.185 1.744-1.333-2.129-1.167-2.474-1.643-2.574-.912-.157-.54 1.055-.542.83Z" class="Vector"/>
      <path fill="#212121" d="M100.549 239.104c.569-.395.087-.611-.99-2.74-.326-.739-1.268-.172-1.002.357-.002-.561.967 3.079 1.992 2.383ZM116.328 245.759c-.24.302-3.65-6.898-3.631-3.802 0 .105.03.209.089.297 5.614 8.739 4.766 1.973 3.542 3.505ZM118.371 243.72c.066.038.034.032-.009-.002l.009.002Zm-1.811-2.253c-1.08.346 1.033 4.26 2.417 2.976 1.145-1.56.036-2.324-.732-.809-.446-.366-.905-2.469-1.685-2.167ZM120.127 242.053c1.054.501 1.503-1.087.384-1.025-.461-.321-.333-2.555-1.309-2.2-.867.306.172 2.716.925 3.225ZM123.037 239.109c.2-.424-.194-.704-.296-.758-.535-.693-.644-2.253-1.441-1.973-1.076.394 1.057 4.124 1.737 2.731ZM158.334 149.406c-.002-.503 1.195 3.31 2.181 2.625.54-.379.149-.646-1.307-3.226-.298-.538-1.286-.084-.874.601ZM162.32 149.757c-1.38-3.203-1.567-1.637-1.59-1.226 1.271 3.712 2.136 2.3 1.59 1.226Z" class="Vector"/>
      <path fill="#212121" d="M160.728 148.569c.002-.017.002-.028.002-.045 0 .021 0 .028-.002.045ZM165.834 150.546c.678-.241.183-1.003-.13-2.075-.191-.631-1.227-.379-1.001.355-.002-.52.183 2.065 1.131 1.72ZM161.176 175.245c-.025-.398-.015.486-.703-2.242-1.229-4.556-2.211-2.536-.483 2.291.474.942 1.216.439 1.186-.049ZM162.618 172.572c.493.629 1.513.195 1.292-.46-.217-.59-.463-.049-.75-.657-2.615-4.553-2.164-.665-.542 1.117ZM164.376 167.938c-1.221-1.665-1.448-.259-1.252.032 1.369 2.09 2.455 1.166 1.252-.032ZM167.626 152.78c-.004-.7 1.048 4.487 1.992 2.679.168-.344.059-.098-.991-3.034-.242-.668-1.245-.312-1.001.355ZM169.59 153.499c-.002-.285 1.341 2.88 2.213 2.29.591-.422.055-.784-1.337-2.898-.406-.586-1.273.037-.876.608ZM169.703 140.303c-1.07.356 1.02 3.796 1.235 3.899 1.834.849-.489-4.183-1.235-3.899ZM170.776 139.591c0-.214 5.82 6.973.876-.608-.374-.571-1.269.005-.876.608ZM173.88 138.162c-1.161.07.076 1.521.074 1.067.667-.038.663-1.117-.074-1.067ZM166.24 129.412c3.216 1.492 3.567 1.689 4.978 2.433.587.317 1.125-.618.468-.952-7.886-4.241-5.444-1.267-5.446-1.481ZM173.546 131.287c-.415.278-.134.948-.136.734 7.068 8.732 1.52-1.742.136-.734Z" class="Vector"/>
      <path fill="#212121" d="M176.947 134.036c.017.296 1.239 2.427 1.898 1.96.551-.366.073-.821-.952-2.403-.34-.537-1.112-.094-.946.443ZM176.737 131.922c.667-.038.665-1.117-.073-1.067-1.162.07.077 1.521.073 1.067ZM174.853 116.125c-.406.284-.136.958-.136.744 3.654 5.446 1.576-1.709.136-.744ZM177.689 117.817c0-.231.5 1.468 1.023 1.573a.522.522 0 0 0 .62-.417c.264-1.303-2.408-2.673-1.643-1.156ZM200.377 171.535c-.017-.052-.03-.099-.045-.148 0 .244.013.25.045.148ZM137.028 221.174c.663-.06.54-.266.293-5.917-.019-.603-1.082-.718-1.052.073-.002-.355-.119 5.904.759 5.844ZM140.495 216.445c.666-.041.663-1.119-.074-1.07-1.163.071.076 1.521.074 1.07ZM140.646 218.972c.121-2.253-.95-2.048-1.046-.214-.138 2.298 2.09.862 1.046.214ZM142.285 214.896c-1.496.098.015 5.422.009 4.102.531-.035 1.139-4.181-.009-4.102ZM169.773 239.376c-1.157-.592-1.883 3.644-1.975 3.826.64 1.913 2.657-3.496 1.975-3.826ZM167.798 243.202c-.002-.009-.006-.013-.011-.019 0 .027.005.031.011.019ZM170.655 238.107c-.814 4.982.291 4.776 1.037.21.121-.747-.931-.869-1.037-.21ZM152.017 197.063c-.172.334 1.239 5.504 1.358 5.863.221.661 1.231.326 1.001-.355-.918-2.826-1.409-7.45-2.359-5.508ZM156.283 198.726c.096-.49-.057.454-1.237-2.681-.468-1.175-2.064.295.193 2.946.207.223.934.283 1.044-.265ZM157.403 193.37c-1.162.071.077 1.52.073 1.07.667-.043.663-1.121-.073-1.07ZM152.284 119.696c2.985 1.237 2.154-.28 1.89-.383-3.305-1.316-1.887.646-1.89.383ZM153.509 117.543c.004.488 1.524 1.984 2.047 1.363.589-.678-2.058-2.847-2.047-1.363ZM156.151 113.692c-1.163.071.079 1.523.075 1.068.665-.039.663-1.117-.075-1.068ZM154.986 100.103c.572-.664-2.744-3.595-2.733-1.935.002.394 2.168 2.585 2.733 1.935ZM154.376 98.102c4.218 2.18 4.439 2.675 4.794 1.966.314-.667-.476-.952-4.326-2.929-1.242-.631-.464 1.605-.468.963ZM161.927 100.355c.599-.67-3.063-3.742-3.053-2.032.002.404 2.545 2.64 3.053 2.032ZM164.573 109.228c3.314 1.682 3.71 2.07 4.033 1.43.321-.636-.189-.681-3.567-2.395-1.284-.614-.464 1.567-.466.965ZM166.716 106.873c-2.47.164 5.346 5.034 5.606 4.733.739-.85-5.364-4.761-5.606-4.733ZM170.785 107.711c-.71.503-.071.57 3.394 5.275.426.59 1.261-.056.876-.608-1.133-1.523 1.594 1.633 1.639 1.686.559.653 1.25-.201.876-.607-3.641-4.196-3.975-3.484-3.916-2.968-2.113-2.822-2.457-3.079-2.869-2.778Z" class="Vector"/>
      <path fill="#212121" d="M161.976 100.535c.002.443 10.511 8.097 10.871 8.073.503-.032.642-.706.308-.941-9.621-6.907-11.188-8.698-11.179-7.132ZM181.953 118.72c.323-.229.136-.383.368-.021-.387 1.008 1.792 7.04 1.446 2.075 2.308 2.833-3.03-8.368-3.008-4.754 0 .077-3.895-5.45-3.946-5.52-.423-.615-1.265.053-.873.597-.005-.499 5.12 8.254 6.013 7.623ZM181.09 120.374c-.125-.372-1.964-1.731.217 4.017.253.688 1.239.284 1.001-.358-.231-.612-.65-1.921-1.218-3.659ZM167.113 100.781c4.83 4.388 4.802 5.846 5.593 5.313.995-.689-7.064-9.541-7.246-7.016-1.648-1.485-3.646-2.831-3.637-1.588.004.899 7.756 6.31 5.29 3.291ZM186.604 126.137c.128.213 1.374 2.439 1.996 2.077.917-.543-2.21-4.592-2.725-4.378-1.56-.65-.121 2.574.729 2.301ZM124.911 237.142c-.004-.556.483 3.212 1.446 2.872.678-.225.236-.961-.442-3.229-.17-.608-1.21-.389-1.004.357ZM126.123 236.595c1.852 2.422 1.996.811 1.769.532-2.504-3.027-1.764.353-1.769-.532ZM124.059 218.232c-.191-.621-1.224-.362-1.003.355 0-.212 3.809 9.628 1.003-.355ZM126.266 221.176c1.745 5.837 2.068-1.295.319-.678-.496.169-.317.894-.319.678ZM129.797 222.751c-.249-.67-1.242-.289-1.004.359.848 2.178 2.166 2.651 1.004-.359ZM134.139 227.253c-.002-.216-.306 3.8.638 3.738.685-.045.485-.58.417-3.822-.005-.61-1.08-.704-1.055.084ZM136.159 226.664c.55 6.849 2.202-.693.501-.586-.618.056-.501.804-.501.586ZM145.255 206.2c-.972-.819-.91-4.046-2.047-3.612-.566.199-.358.978-.36.762 2.086 6.657 2.772 3.16 2.407 2.85ZM145.034 203.998c2.398 4.614 3.186.163 1.737.88l-.017-.032c-2.16-3.878-1.716-.163-1.72-.848ZM147.948 202.231c0-.214.574 3.304 1.667 2.546.686-.466-.211-.811-.519-2.217-.353-1.602-1.284-1.078-1.148-.329ZM172.9 193.389c-.002-.008.008-.015.006-.023-.004-.015-.006-.013-.006.023ZM179.689 192.887c-1.381.092.068 3.115.064 2.157.729-.05.761-2.213-.064-2.157ZM174.022 179.094c-.374.37.461 1.295.457.92 1.441-.092-1.139-3.363-2.887-5.937-.414-.576-1.271.038-.875.607-.005-.588 2.157 3.952 3.305 4.41ZM176.499 174.261c-.002-.259 1.029 4.957 2.036 4.583.925-.319-.204-1.25-1.035-4.941-.14-.586-1.231-.408-1.001.358ZM180.463 178.063c-.232.13-.381.419-.253.655 4.052 8.19 4.071 6.44 2.053 1.885.717-.696-7.705-17.798-1.8-2.54ZM183.766 179.135c.13.291.298.171.136.186-.797.047-.469.73-.185 1.019-1.196.84 1.352 4.185 1.227 2.165-.006-.107-.347-.824-.279-.434-.153 0-.148-1.417-.529-1.764.344-.16.413-.624.147-.858a.5.5 0 0 0 .251-.059c.712 1.418 1.651-1.182.208-.679-.302-.74-.753-2.373-1.99-6.235-.219-.67-2.474-1.697 1.014 6.659ZM187.888 176.524c-.37-.894-.857-2.428-1.284-3.676-.183-.537-2.379-1.78.1 4.102.334.833 1.482.291 1.184-.426ZM177.593 156.375c-.002-.214.521 1.204 2.264 2.426 3.95 2.876-2.625-5.625-2.264-2.426ZM179.649 148.622c-.004-.004-.007-.014-.011-.027 0 .038.004.044.011.027ZM190.426 159.771c1.261 1.857.126-2.037.119-3.67 1.201 4.13 1.739 2.518 1.633 2.069-1.446-5.39-1.639-2.191-1.639-3.038-.004-.691-1.144-.741-1.135.081.085 6.064.746 7.609 1.022 4.558ZM192.726 160.87c.024.664 1.089.67 1.063-.081-.089-6.057.172-6.492-.612-6.408-.753.042-.446 6.84-.451 6.489ZM12.204 203.519c-.617.041-.494.787-.494.571 4.328 23.52 2.235-.693.494-.571ZM14.886 204.099c-.012-.056.028-.094.036-.144-.025-.115-.036-.092-.036.144ZM16.952 209.782c.122-.257.096.203-1.003-5.767-.176-.733-.954-.524-1.027-.059.162.77.878 8.036 2.03 5.826ZM19.924 211.348c-.036-.128-.146-.678-.117-1.885.13-1.436-1.054-1.996-1.084.764-.05 3.171 1.671 3.201 1.201 1.121Z" class="Vector"/>
      <path fill="#212121" d="M19.922 211.335c0 .005 0 .009.002.013.013.047.017.047-.002-.013ZM44.21 225.896c-.004-.715 1.663 5.568 2.556 3.612.62-1.269-3.903-6.888-2.555-3.612ZM47.635 226.431c.4-.608-.331-1.177-.718-1.029-.768.246-.136 1.9.718 1.029ZM10.599 176.291c-1.497-2.082-1.741 8.428-1.741 8.18 1.422 1.977 1.883-7.966 1.74-8.18ZM10.286 184.452c-.342 2.086.78 2.114 1.038.21.125-.76-.948-.856-1.038-.21ZM12.812 190.651c-.472-5.416-1.24-2.067-1.063.073.066.727 1.122.605 1.063-.073ZM9.953 166.053c-.037-.334.21-1.714.267-2.048.15-.905-1.488-1.419-1.328 2.118.021.67 1.084.674 1.06-.07ZM12.418 157.021c.666-.045.664-1.123-.072-1.074-1.163.077.075 1.523.072 1.074ZM140.523 184.91c.47.727.984-.287 1.061-.216.486.464 1.643-.34.057-1.344-1.477-.807-1.116 2.039-1.118 1.56ZM144.264 182.834c-.512-.973 0-1.93-.848-1.874-1.694.152 1.475 4.866 1.307 2.405-.017-.265-.546-.745-.459-.531ZM148.924 183.56c.499-.355.246-.426-1.284-3.567-.364-.768-1.303-.195-1.053.374-.004-.701 1.218 3.916 2.337 3.193ZM158.657 183.913c1.114-.381-2.03-5.57-3.031-9.738-.136-.558-1.197-.454-1.003.355 0-.212 3.059 9.749 4.034 9.383ZM160.694 183.547c-1.575-5.022-2.032-.366-.61 1.046.85.659 1.605-.948.61-1.046ZM163.691 180.911c-.278-.4-.914-.214-.961.199-.014.297.105.391-.837-1.549-.351-.743-1.263-.157-1.003.357 3.005 6.186 2.937 1.207 2.801.993ZM163.474 176.627c-1.162.071.075 1.519.073 1.068.665-.041.665-1.117-.073-1.068ZM153.184 153.756c-.002.042-.002.059 0 0ZM153.184 153.756c.731.864 2.221 2.64 2.729 1.605.342-.679-.206-.236-1.847-2.202-.793-1.008-.876.372-.882.597ZM156.366 153.187c-.912-.159-.542 1.046-.544.826 4.538 5.199 2.119-.488.544-.826ZM161.391 135.384c1.864 1.43 2.141.274 1.301-.329 1.62.937 1.669-.225.67-.783-2.402-1.648-1.484.624-1.486.231.2.158.363.257.533.366-1.847-1.162-1.016.958-1.018.515ZM161.064 128.071c0 .22.178.618.176.406 4.226 3.713 3.435.91 2.753.875-.47-.021-2.94-3.044-2.929-1.281ZM162.541 122.818c2.442 4.585 5.227 2.06 3.155 1.65-1.448-.488-2.594-2.465-2.613-2.472-.876-.203-.54 1.068-.542.822ZM165.885 121.679c-.423.274-.136.948-.136.734 8.054 9.362 1.571-1.78.136-.734ZM162.52 114.377c.006 1.2 14.117 12.581.922-.422-.308-.302-.924-.081-.922.422ZM171.025 115.297c0 .224.117.301.268.488-1.208.137 1.766 3.641-2.6-2.027-.361-.477-.937-.132-.948.302-2.868-2.981-3.029-.586 1.246 3.006.788.681 1.235.805 1.479.702.778.713 1.278.257 1.069-.235.613.849 1.503 1.664 1.62 1.692 2.313.492-2.153-7.093-2.134-3.928ZM177.651 120.672c-3.042-1.102-2.145.667-2.145.449.28.377.62.098 1.679.514.765.269 1.031-.739.466-.963ZM41.734 211.393c.447-.15-2.432-13.108-3.333-12.761-.842.269 2.33 13.144 3.333 12.761ZM43.14 202.254c1.256 8.549 2.197 5.315 2.114 5.099-.816-2.064-.671-5.736-1.621-5.67-.606.041-.494.785-.494.571ZM48.324 204.756c-.523.197-.32.903-.321.687 3.61 7.715 4.572 5.441 4.156 4.861-3.372-4.662-3.068-5.792-3.835-5.548ZM100.94 226.196c-.296-.306-.88-.058-.878.398.006 1.146 2.455 1.279.878-.398ZM103.508 224.79c3.747 2.769.971-1.986-.055-.751-.317.353.057.967.055.751ZM108.892 220.724c-1.163.071.077 1.522.072 1.068.668-.041.664-1.117-.072-1.068ZM115.922 195.33a.046.046 0 0 1-.005.02c0-.006.005-.013.005-.02Z" class="Vector"/>
      <path fill="#212121" d="M115.922 195.33c.21-.592 1.932.443 2.151-.866.087-.375-.227-.982-1.103-.313-.627.276-1.199-1.268-2.292 1.712-.1.278-2.155-5.236-2.24-5.458-.296-.734-1.339-.291-1.084.383-.011-1.609 2.808 11.143 4.568 4.542ZM120.065 190.923c.663-.041.661-1.12-.075-1.07-1.165.07.077 1.521.075 1.07ZM140.319 133.675a.53.53 0 0 0-.878.411c.006 1.112 2.175.716.878-.411ZM141.904 132.081c4.681 5.811 1.546-1.721.136-.762-.425.291-.133.976-.136.762ZM144.175 120.971c.612-.706-2.073-2.7-2.064-1.226.002.439 1.577 1.787 2.064 1.226ZM131.833 107.091c.047.822.912.297 4.219.702.562.081 1.863-1.166-1.826-1.254-3.122-.06-2.393.766-2.393.552ZM136.014 104.386c1.811 1.336 2.687 2.191 3.206 1.588.574-.657-.419-1.128-1.189-1.725-3.226-2.492-2.015.647-2.017.137ZM138.569 103.854c.664-.043.662-1.122-.074-1.068-1.163.066.074 1.517.074 1.068ZM40.004 123.798c.665-.043.663-1.117-.072-1.072-1.165.07.076 1.521.072 1.072ZM49.572 115.894c.588-.433-.051-1.271-.604-.882-5.712 4.048-6.945 6.201.604.882ZM19.489 149.23c.663-.036.663-1.117-.075-1.067-1.165.066.077 1.523.075 1.067ZM66.588 97.02c.623-.506-.108-1.306-.61-.906-5.33 4.295-4.915 5.352.61.905ZM34.473 158.095c.584-1.65 1.22-2.351.563-2.679-1.543-.761-2.213 6.879-.563 2.679Z" class="Vector"/>
      <path fill="#212121" d="M34.488 158.057c-.002 0-.005.004-.005.011v-.007c.003 0 .003-.004.005-.004ZM37.13 157.99c.665-.038.66-1.117-.073-1.067-1.164.07.075 1.521.073 1.067ZM66.612 219.55c5.726 4.741 1.035-1.962-.056-.76-.289.347.056.974.056.76ZM75.729 233.334c1.972-.129-2.139-3.201-2.67-2.589-.744.858 2.457 2.604 2.67 2.589ZM76.288 227.777c3.718 5.734 4.202 2.702 3.027 2.383-.91-.515-2.013-3.729-2.88-3.13-.413.283-.145.963-.147.747ZM79.836 226.018c4.859 3.62 1.01-2.033-.056-.751-.308.342.058.963.056.751ZM84.06 208.74c.002 0 .004.002.006.006-.002-.004-.004-.006-.009-.006h.003Zm-3.044-2.347c.996 1.553 2.844 4.692 3.668 3.002.49-.935-.195.372-1.987-2.369-2.015-3.064-1.681-.317-1.681-.633ZM85.38 205.353c3.076 2.261 4.376 1.859.693-.807-1.163-.826-.691 1.277-.693.807ZM115.735 167.67c.723-.04.718-1.239-.092-1.168-1.264.071.096 1.68.092 1.168ZM119.633 164.942c.666-.038.664-1.119-.074-1.063-1.163.066.077 1.517.074 1.063ZM111.126 126.789c.721-.811-3.524-4.382-3.511-2.339.004.478 2.82 3.167 3.511 2.339Z" class="Vector"/>
      <path fill="#212121" d="M193.402 143.107c-.618-.137-.503-.345-.491.291-1.921 1.151.124.291-2.346-3.293 5.526-3.576 16.933-20.244 18.508-28.57 1.422-7.345.421-1.294 6.482-15.174.597 1.94 1.985 3.857 3.324 5.094-6.575 6.096-7.831 30.703-25.477 41.652Zm-87.303 142.012c-.716.028-1.411.058-2.073.099a27.661 27.661 0 0 0-2.595-.805c6.738.535 4.668-.233 4.668.706Zm7.457-.909c-1.837.254-.349.192-2.957-.148 1.11.066 2.083.113 2.957.148Zm5.99-.878c-4.712.028-3.813.033-6.455-.995 2.117.298 6.698.57 7.45.529.053.017 2.292.466-.995.466Zm-.214 1.064c.08.017.178.028.299.036-2.674 1.049-2.083.798-3.571.711.855-.154 2.419-.452 3.272-.747Zm16.529-13.333c2.096 1.175 2.098.559.859 2.733-1.749-.88-1.433-.242-.859-2.733Zm-4.357 6.899c.567-1.198.172-1.079 1.326-.552-.644 1.215-.3.978-1.193.978.19-.092.124-.246-.133-.426Zm-2.356-.888c.436-1.735.287-1.464.404-1.517 1.716 1.125 1.609.635 1.05 1.951a9.165 9.165 0 0 0-1.454-.434Zm-1.112-1.828c.806.191.47.045.406.289-.053.535-.119.238-.406-.289Zm.942 6.097c-.41.117-1.845.541-1.966.462.61-.135 1.269-.293 1.966-.462Zm-1.635-3.522c-3.39-1.595-2.837-1.278-.019-.565-.053.075-.212.173.019.565Zm-.967 4.213c-1.875.455-4.453 1.012-4.398 1.012-.504-.345-.625-.24.021-.317 2.243-.137 3.729-.798 4.377-.695Zm-1.122-.97c-1.607-.609-1.537-.267 1.105-.622 1.172.239 1.845.07-1.105.622Zm4.636-1.05c-.421.122-.746-.281-.034-.054a.312.312 0 0 0 .034.054Zm-1.014-1.502c-.986-.388 1.352-.137 1.324-.082-.391.02-.837.047-1.324.082Zm10.597-.257c-1.123.916-1.125.877-1.176 1.102-.017-.25-.261-.462-.88-.191.555-.438.455-.222 1.422-.881.151.03.362.021.634-.03Zm4.574-4.62c-.297 1.293.032.916-1.707 2.121-2.942 1.9-.799.573 1.707-2.121Zm11.792-5.236c-.408.647-.71 1.13-.71 1.057.03.467.253.54.565.381-.765.766-2.901 1.663-2.759 2.069.07.221.33.041.062.242-2.035 1.571-.861 1.128-.126-1.69.834-.755 2.464-2.711 3.127-3.529-.138.398-.552 1.635-.159 1.47Zm18.19-12.335c-.87 1.098-1.367 1.586-1.255 1.945a.548.548 0 0 0-.457.09c1.658-2.63 2.405-4.635 2.979-5.45-1.195 2.598-1.531 3.107-1.267 3.415Zm2.918-2.086c-.661.727-.559.633-.399.381.127-.116.259-.242.399-.381Zm-.648-.783c-.279.182-.177.387 1.303-2.9.064-.032-.111.281-.111.666.009.702.861-.413-1.192 2.234Zm2.989-5.837c.036-.242-.117-.024.958-1.053-.34.374-.661.725-.958 1.053Zm.087 1.478c-.13.419.013.182-.5.901.119-.629-.017-.407.5-.901Zm1.788 2.073c-.534.627-.517.666-.107 0a.275.275 0 0 0 .107 0Zm-1.044-.438c-3.542 3.297-1.159 2.538 2.872-5.501.469-.527 1.713-2.253-2.872 5.501Zm8.539-11.039c-1.497 2.476-1.256 2.078-1.373 2.082-1.204.011-7.496 12.564-.706-.783l.776-.948c.408 1.183 1.186-.248 1.777-2.084 1.209-1.207-.702 1.14-.474 1.733Zm2.795-21.04c-1.075 2.572-.58 2.14-.782-.71.408-1.034.703-2.245.652-2.803.566-1.194 1.221-2.846 1.924-4.808.217 4.284.515 2.745-1.239 6.986-.761-.103-.591.627-.555 1.335Zm2.696 1.205c-.245.567-.177.503-.145.049a.636.636 0 0 0 .145-.049Zm.86-10.127c-.807 2.129-.503 2.403-.765-2.281 1.901-5.677 1.594-5.675 1.616-3.837 0 .184 1.216 2.857.88-4.131 1.656-5.609.202-1.359 1.103 2.272-2.515 7.63-1.501 4.819-2.336 4.849-.308.019-.449 1.388-.498 3.128Zm-.442 3.885c.831-2.148.175-1.187.54 3.563.021.379.338-.329-.416 1.436.04-.811.004-2.303-.124-4.999Zm4.337-21.733c-.496 4.562-.368 3.751-.525 1.851.293-1.097.306-.896.525-1.851Zm-2.287-7.15c.576-2.497-.009 1.358 1.249.913.294-.105.343-.109.249-1.168.191-.539.374-1.729.487-4.044.461 3.913-.304 9.635-.515 10.491-.437-2.884-1.147-.711-1.147-.903.489 4.399.533 3.419-.385 6.618-.066-.86-.393-6.139-1.082-6.271.151-.334 2.132-5.388 1.144-5.636Zm-2.721 10.08c1.32-4.312 1.062-7.412 1.8 4.726-2.651 8.448-1.171 3.672-1.86 2.782.782-1.652 1.046-7.842.06-7.508Zm-1.355 33.026c.504-2.12.94-4.335 1.204-5.955.51-.239 1.728-1.891 3.749-6.849.06.417-2.276 7.425-4.953 12.804Zm2.424.128c.876-3.096.51-2.556 1.039-2.447a64.533 64.533 0 0 1-1.039 2.447Zm-5.093 6.653c3.099-4.168 6.73-14.608 3.01-3.567-3.818 5.306-3.089 4.386-3.01 3.567Zm3.294-1.032c.472-.945.528-.226 1.969-2.633.272.179-2.893 4.942-2.929 4.996.291-.631.614-1.423.96-2.363Zm5.748-20.2c-.361 2.969-.153 1.519-.338 1.11.113-.368.226-.734.338-1.11Zm1.029-12.672c-.042.841.468 1.059.942-.103-.614 3.584-.466 3.43-2.489 8.855.072-.959.142-2.001.208-3.197.036-.612-1.02-.751-1.063.055-.414 7.511.149 5.117-1.445 8.966-.213-7.307-.287-4.262 3.258-14.738.43-1.28-.121-.033.589.162Zm.092-18.941c.129-2.492.002-2.353.255-1.433-.079.439-.16.916-.255 1.433Zm.567 14.85c-.257 2.058-.2 1.541-.28.929.1-.323.191-.629.28-.929Zm-.259-8.584c.049-.473-.313-.523-.327-.585.624-2.546.412-2.456.773-1.179-.382 2.373-.65 4.139-.446 1.764Zm1.569 5.494c.085-1.818-.058-2.591.223-.411-.291.321-.228.771-.223.411Zm.316 9.071c-.031.32.09.419.181.534-.062.653.013.493-.268.493-.973.066-.504 1.035-.72 4.996-.387-.591-.606-.465-.842.34.108-1.322 3.212-19.535 1.649-6.363Zm-.129-24.964c-1.376 9.729-.8 5.734-1.45 7.159 2.166-9.389.606-9.323.091-6.894-1.126-3.989-.24-5.191-1.018-8.548.357 1.087 2.285 7.949 2.377 8.283Zm-8.057-30.566c-.021-1.911-.112-1.592.334-1.84.276 4.339.689 2.12-.334 1.84Zm1.741 6.656c-1.05-2.398-1.677-2.103-1.715-4.662.183.471.376.954.544 1.404-.279.53.072.081 1.171 3.258Zm-2.827-7.527c.072 4.421.234 3.672-.446 3.107-1.121-.91-.693.175.446-3.107Zm-1.418 2.377c-1.696-1.17-.574.319.281-2.392.238 0-.298 1.479-.281 2.392Zm-1.658-10.51a10.79 10.79 0 0 0 .179-1.573c.297.407.457.34.501 0 .283 1.042-.327 1.32-.68 1.573Zm-1.05-4.175c.568 1.468.538 1.162.491 1.216-.514-1.16-.483-1.083-.491-1.216Zm-.021 4.477c-.857-.773-.379.197-.028-2.987.593.368.153-.317.028 2.987Zm-1.771-1.295c.436-.07.44-.798.336.21-.113-.073-.228-.148-.336-.21Zm.202 2.439c.064.64.221.7.417.366.435.439.308.839.871 1.057 3.091 4.421.621 5.172.115 6.858-.942-6.967-4.32-10.805-1.403-8.281Zm-38.41 140.494C48.073 325.908-38.546 201.818 24.297 119.827 42.249 97.555 63.744 84.601 79.536 80.3c34.496 34.049 63.062 19.336 83.179 12.83 12.953 9.716 24.123 23.684 32.186 39.832-2.564 3.009-2.117 2.564-2.481.92-.11-.569-1.192-.475-1.003.358 0-.137.181.738.429 1.949-.257.242-.625-1.949-1.343-1.001-.546-3.349-1.877-3.15-1.93-2.307-.219-.182-.759.103-.868.235-.731-5.116-4.699-9.125-4.678-6.295 0 .214.257.846.257.632 2.885 3.121 2.893 8.796 2.766 8.578.584.963.497.203-.823.203-3.482-11.197-13.921-14.079-10.65-11.214 2.032 1.846 3.484 3.09 4.628 4.234-.138.664 8.022 11.728 7.567 20.377-.242-.159-.276-.542-.229 1.814-.298 1.352-.763 2.23-1.002 2.831-.195-5.193-.593-2.426-.975-7.575-.043-.68-1.095-.646-1.059.065.089 1.88.487 10.133 1.924 8.255.057.147 2.215 2.426 3.203-3.516.4-2.159-.174-3.177.251-3.013.066.888-.015.514 1.418 1.524-2.799-.165 2.23 1.851 4.534 6.5.404 2.131.009 3.781.351 4.109.395.383.744.395 1.025.154.767 4.213 1.462.941.622-1.907.141-1.938-1.024-6.408.908 1.014-.076.257.529 1.917 1.016 4.551-.735.155-.419.383.744 3.985-.121-.27-.257-.424-.414-.415-1.223.124.771 6.65-.449 3.087-.427-8.415-2.406-6.421-2.408-6.607 1.609 6.534-1.099.143 1.114 6.196.741 6.561.338 4.414-.772 1.556-.295-3.308-.821-6.049-1.358-8.711.329.526.754.948 1.173.482.395-.437-.064-.591-.884-2.157-.164-.319-.559-.298-.791-.094-.491-.963-.848.455-.91.47.353 1.19.757 3.101 1.18 5.906-.351-.916-.721-2.405-1.446-1.556-.722-1.928-1.711-1.221-1.488-.505-.231.045-.444.21-.423.533.362 5.146 1.722 3.304 1.561 2.782-1.329-4.474 1.109 2.255.725-1.241.444 1.258 1.145 3.342 1.84 5.126 1.131 6.39 3.837-4.677-3.086 21.361.4-6.573-1.622 2.602-1.552 5.595-.34 1.139-.595 1.896-.737 2.123.257.169.612-.214 1.037-1.033.174.291.448.53.831.07.087-.105-.079.197.064-2.131 2.434-6.346.31-3.447.797 7.799-1.297 3.773-1.065 4.012-.733-.821.031-.578-1.616-1.9-1.295 3.975.028.471.487.574.791.405-2.12 6.014-1.433 4.358-1.939 4.373-.774.049-.468 1.087-.378 2.232-.285 1.025-.459 1.921-.459 1.772.168.443.397.475.644.278.293 2.884.571 1.943-.457 4.112-.262-.077-.572.017-.668.392-.716 3.002-.997 4.855-.973 5.58-.149.268-1.624 3.642-1.624 3.74.002.214.331.711.331.497.725.295.984-.826 2.241-3.8.159-.37-.126-.644-.436-.694.359-.83.886-2.518 1.499-5.096.165-.649.193.087 1.558-2.707-1.42 5.42-2.294 7.853-2.292 8.146.026 4.162 3.423-8.103 4.502-12.599.551-2.381-.055-.103-.04 1.857.009 1.948.846-1.474-.74 5.074-.019.113-.125.481-.276.993-.221-.296-.742-.39-.95.184-1.422 4.35-2.579 8.19-2.407 8.511-4.447 9.118 1.382-2.642-1.29-.896-.687.466-1.824 5.062-2.032 7.037-.053.058-.164-.03-.364.144.168-.422.336-.816.502-1.254.302-.749-.718-1.059-.942-.495-.376 1-.744 1.92-1.103 2.776.051-3.141-.98-1.798-.993-1.545-.119 4.256.846 2.366-3.248 6.528a227.708 227.708 0 0 0 1.758-4.436c-.036 3.238 1.165 2.313 1.242-3.269.725-1.941 1.337-3.464 2.829-8.392-1.263 5.518-.353 5.514 1.42-1.357.142-.556-.57-.817-.895-.423.846-2.944 1.49-5.666 1.014-5.769-1.078-.233-3.331 11.653-1.9 4.228.193-.888 1.037-3.368.142-3.547-.776-.154-3.016 12.038-3.016 10.983.231.492.489.453.752.096-.138.409-.3.858-.448 1.288-.268-2.409-.878-.252-1.044 2.887-3.369 9.095-2.7 5.372-2.823 6.47-.111 1.061.087.526-1.188 3.458-1.282 1.367 2.04-3.272 6.91-24.018.147-.653-.873-.942-1.039-.212-.259 1.095.008.036-.338-.03-1.205-.261-1.367 4.386-1.392 4.998.187.094.363.034.529-.115-1.333 5.18-2.623 9.498-3.824 13.103-.117-.46-.876-.59-1.008.071-1.214 6.487-.856 5.381-2.338 8.867-1.339 1.485-1.486 1.827-.406.943-.704 1.603-2.985 3.905-1.858 3.98-2.853 5.7-1.21 3.514-1.813 4.553-4.953 3.837-.3.766-5.927 4.494 3.65-6.424 6.297-14.405 6.297-14.146 0 .388.535.661.793.477-1.678 4.982-.825 2.996-1.365 2.78-.755-.315-2.645 5.388-1.524 4.617-3.873 6.974-.202 4.648 3.664-6.346-1.264 7.215 4.224-7.714 1.529-4.547 3.597-11.118 3.609-13.369 3.095-8.524.034.273.461.723.461.502.901.105 1.316-5.781.597-6.149 1.127-4.429.872-4.759-2.427 5.388-.087-5.741-1.401-6.3-1.04 1.298.088 1.314 1.184-1.823-.933 4.87-2.206 7.177-1.794 6.144-1.001-.04.982-3.79-.653-3.178-.744-2.521-.147 1.119-.274 2.074-.385 2.902-1.484 4.564-1.188 4.574-1.615 1.536-.145-.976-1.937-.713-.63 2.835.336 1.13 1.554-1.483-1.394 5.373.274-3.019-.825-1.571-.857-1.387-.682 5.05.115 3.315-1.549 6.58-3.346 6.532-.953 4.654-7.077 8.948-1.7.144-.799.773.938-1.399.372-.467-.164-1.96-1.593.447-.172-.039-.423-.034-.786.036-.055.005 2.017-2.978.884-2.903-.941.006-2 4.457 3.682-8.966 2.151-5.128 1.537-4.29 2.073-4.211-.005-.502.78 1.898 2.308-10.724.123-.999.44-2.234-.289-2.311-.963-.137-.094.159-2.347 11.76-.529.875-1.384 2.487-2.344 4.41-.211-.813-.906-.635-.995.634.015 2.396 1.218-1.749-2.815 7.446-.159.004-.327.077-.461.28-5.178 7.442-6.566 6.68-5.995 7.566-.012-.306-.061.223.44.186-.133.255-.278.535-.433.843-.177-.013-.379.043-.481.131-4.455 3.875-.027-.189-.163-3.818.548.7 2.13-1.003 2.763-1.938.853.584 4.694-7.478 2.87-6.691-.064-.501-.814-.599-.986-.156-.853 2.306-1.65 3.971-2.341 5.201.646-3.271.306-6.992-1.934 2.286-.034.139.034.289.119.421-.94 1.16-.281.531-.702.426-1.222-.212-1.558 5.886-4.623 7.994 1.279-2.223 2.67-8.221 1.909-8.39-1.07-.254-1.314 5.623-2.411 6.332 1.794-5.994 3.782-18.246 1.969-13.354.133-.88.416-2.626 1.026-6.131.126-.746-.931-.866-1.039-.229-1.023 5.882-1.694 8.457-.41 7.661-1.735 5.897-1.18 5.668-2.373 10.938-1.634-.377-3.951 4.444-11.528 7.292.392-1.023-1.128-.593-1.853-.379.055-.165 1.435-.721 1.615-.779.43.679 1.031-.488 1.378-1.151 2.702.916 2.997-.394 2.079-.676-1.862-.567-1.575-.304-1.021-1.369.143-.272.028-.505-.157-.647.425-1.14.024-1.025 1.39-.353-.51.803-.72.967-.795.974.081.257-.095 2.103 1.682-.574.873.358 1.08.259 1.222-.034.172-.359.164-.471-.64-.896.223-.37.451-.768.685-1.192-.011 1.468.682.706 1.031-.176.261.11.48.184.657.221.006.167-2.758 3.642-2.758 3.577.236 3.629 10.582-12.258 4.231-5.191 3.118-7.664.865-7.448-1.265.589-.772-.392-.5.177-.051-2.546 3.49-6.999 2.079-4.928 2.604-4.676.812.454 5.801-13.088 3.482-11.4-.168.105-2.929 7.008-3.516 10.022-.731-.903-1.154.657-2.215 2.891.246-4.81-1.452 3.021-2.309 4.712a86.615 86.615 0 0 1-2.072-1.091c1.432-6.604-.213-4.353-.251-4.158-.23 1.074.04-3.575-1.059-3.503-.958.065.028 5.116.644 5.536a146.293 146.293 0 0 1-1.048 4.771c-.65-.331-1.409-.725-2.281-1.187.147-.283.041-.642-.316-.734-.155-.428-.34-.957-.536-1.613-.699-2.221-1.488-1.25-1.324-.719-.002-.433.261 1.014.686 2.343-.693-.035-.097 1.651-.1 1.076 4.277 2.315 3.776 1.361 3.038 4.035a.59.59 0 0 0-.006.219l-.128.237c-1.186-.458-1.037-.389-.978-.535 1.014-2.739-.421-2.264-.582-1.703-.727 2.572-.334.734-2.1.398-.547-.385-.413.293-1.962-5.698-.17-.629-1.214-.417-1.01.334-.004-.719.531 2.865 1.333 5.032-1.018-.231-.538.338-2.849-3.956.247.006.394-.141.368-.535-.055-.762-2.215-1.312-5.561-5.202-3.631-4.401-2.451-.676-2.455-1.339 6.447 7.936 4.134 2.536 8.161 10.388-2.655-.843-2.819-1.119-3.146-1.027.529-.396-1.423-1.487-6.167-5.965a.532.532 0 0 0-.891.391c.004.587 6.007 5.792 6.985 5.604-.419.246.06 1.432.058.991 4.98 1.953 3.316.646 4.683 2.677-4.407-1.167-10.3-2.975-13.983-4.843-12.938-6.669 2.474 3.514 3.894 2.851 14.032 6.16-8.339-3.37-9.468-3.251-.729-.776-1.518-1.465-1.622-1.459-2.538.169 4.585 5.792 2.63 2.705 17.968 7.525 11.617 3.641 17.994 6.543-.413.028-.598.436-.47.659-.342.034-.036.09-2.258-.552-.127-.199-.318-.377-.365-.385-8.601-1.98-12.555-5.897-12.542-4.025.002.849 11.768 5.234 12.102 5.319-.5.088-.857.178-1.108.259-16.672-5.614-10.046-1.228 1.133 1.444-2.793.416-2.931 1.635-16.538-6.53-9.23-5.55-4.821-1.906.868 1.8-3.325-1.034-1.153 1.294 1.43 3.701.498.475 1.237-.297.719-.789-.449-.415-.919-.903-1.371-1.372 10.154 4.055 9.399 3.447 7.263 3.295-8.141-.779-3.025.576-12.661-3.004-1.851-1.953-3.543-4.112-2.672-2.144 3.384 7.81 7.921 4.975 5.344 4.408a3.58 3.58 0 0 1-.701-.43c.546.201 1.146.419 1.781.648-.03 1.002 4.67 2.756 4.892 1.684 1.509.503 4.778.924-8.529-.244-.064-.571-2.757-2.054-4.985-6.211-.31-.561-1.267-.095-.892.582 2.959 5.501 5.176 5.563 1.832 4.442-12.765-4.132-2.438.712 1.541 1.485.21.616 2.385.59-.608.52-.361-.009-.765.528-.304.808-1.018-.145-1.77-.096-1.864.3-.153.691.704.721 2.748 1.198-2.689.424-1.005 1.168-1.005 1.113 20.909-.785 15.486-1.444 15.709-.225-.002-.218-1.071 1.288 5.104-1.142.365-.125.372-.64.093-.876a9.88 9.88 0 0 0 .468-.047c-2.64 1.866 17.029-2.587 17.378-4.934-.183 2.266 5.665-3.477 6.271-3.875-.425 1.025-.175 1.13-.175 1.034.219.331-3.297 2.146-2.659 2.869-.098.019-.485 1.185 7.298-4.622 2.068-1.521 1.175-1.269 1.605-.826-4.768 3.895.676.625 4.555-2.4.672-.234-.157 1.493 3.877-1.359-1.766 1.508-3.099 2.578-3.426 2.634 1.016.905 11.379-7.269 15.322-12.051.546.109-1.696 1.228-1.076 1.943.098 1.209 4.511-3.723 5.2-5.275 1.18-1.11 2.576-2.601 3.728-3.956.166.094.457-.126.849-.601-.989 4.697 13.005-15.111 17.698-23.608.323-.554-.482-1.054-.867-.556.021-.058 2.763-7.076 2.785-7.131-.053.898 1.339 2.017 2.548-7.665 1.777-6.057.107-.317.668-6.793.973.603 1.59-10.825 1.018-11.337-.786-10.521-2.053-6.372-.623-11.554.113-.437-.306-.695-.654-.608.18-1.159.365-2.375.552-3.644a86.26 86.26 0 0 1 1.537 7.881c-.901-3.19-1.7-3.745-.287 3.464 2.551 14.411-1.675 23.13-1.654 26.719.022 3.171 2.634-4.288 3.289-13.928 1.994 4.459.198-13.726-.77-19.184 2.101.841-1.977-16.448-1.143-5.977-.923-4.399-.859-2.734-.27-2.914.788-.269-1.282-9.676-1.722-8.803-.132-.774-.319-1.613-.444-2.231-1.357-7.001-1.812-3.828-1.875-3.747 1.511 6.941 1.392 8.304 2.221 8.015.145 2.949.938 4.541-1.409-2.054.236-2.516-2.757-11.899-3.552-14.308 1.749 1.517.382-1.359-.872-2.553-.268-.751-.07-.038-.083-1.868.542 1.254 1.346 2.542 1.947 2.431.211 1.703.97 7.943 1.828 6.12.857 2.037 3.365 9.316 4.173 9.021.681-.24.715-.12-3.465-9.849-.858-1.933-.129 3.346-1.634-6.479-.075-.604-.725-.593-.965-.264-2.658-4.624-1.824-1.801-2.207-4.476.923.698.825-.113.364-.963.255-.171.516-.351.778-.53.688 1.893 1.509 3.915 1.979 3.795.635-.186.516-.609-1.046-4.459.484-.357.967-.723 1.441-1.091 24.875 60.763-2.683 115.345-50.112 137.926Zm12.519-3.89c1.288-1.134 1.143-.55 6.534-4.547a97.168 97.168 0 0 1-6.534 4.547ZM82.727 69.039c.004.006-.02 0-.015 0h.015Zm-21.194-18.35c1.087 1.172 2.432 2.437 4.024 3.742-.13.58 1.025 1.292 2.46 1.9 2.597 1.896 4.243 2.777 2.87 2.033-2.866-1.71-1.64.646-1.644.278 1.059.625 5.213 2.81 6.633 2.591 3.981 2.131 8.581 4.108 13.732 5.702-2.845-.301-7.576-.29-7.55.405-.003-.212 9.337 1.594 9.629.21 1.664.464 3.38.892 5.148 1.264-7.278 1.068-14.999-.021-15.311.175-3.15 1.918 14.344 2.224 16.442.056 1.51.3 3.055.563 4.636.783-15.148 3.456-18.402 1.106-18.394 2.666.06 1.742 20.344-.903 19.41-2.529 1.133.141 2.283.268 3.45.366-5.597.794-22.369 4.403-22.373 3.845.07 1.966 20.592-2.005 23.944-3.747 1.099.05 2.222.078 3.365.088-7.829 2.022-8.717 2.964 4.545-.01.23-.005-10.142 3.37-9.806 4.135 0-.181 10.167-2.597 13.277-4.202 5.064-.109 5.304-1.314-14.174 6.12-3.169-.27-5.418.021-9.092.624 2.817-.27 5.731-.432 8.733-.487-8.9 3.406-7.742 3.494 15.622-4.575 9.965-.601 11.81-1.669 7.402-.06-.587.094-20.099 7.352-27.359 8.336-.673.084-2.901 2.844 11.834-2.602 5.238-1.949 9.358-3.472 12.531-4.632-.014.755.923.295 7.049-.235-4.804 1.91-7.359 3.806-7.361 3.663.378.948 4.181-1.374 9.989-3.417-.406.235 1.207.449 1.675.498-19.771 7.237-16.846 7.641-16.846 7.434.201.513 13.666-5.102 19.505-7.258 7.984.344 8.163-.505 3.333 1.264-3.263.236-4.659.477-1.454.537-.055.022-17.594 6.753-17.378 7.325.568 1.204 10.502-3.82 20.11-7.308 8.269-.034 7.438.015 7.438-.038.144 1.106 1.258-.094 3.977-.16 9.022-.06 3.854.188-.733.943-14.672 2.268-12.844 3.54-12.844 3.319.215 1.365 7.238-1.665 16.668-2.82-.398.295.261 1.397.259.997.106.021.206.043.31.07-10.044 1.222-22.128 4.136-21.65 5.148-.002-.162 14.791-3.504 24.911-4.392 6.732 1.628 4.96 1.155 3.015 1.277-5.483-1.25-5.797-.186-3.47.334-14.663 1.79-20.978 4.814-20.978 4.76.182 1.413 13.543-3.725 23.957-3.928-.358.351.386 1.282.384.931 2.228.088 3.725.171 4.732.207 5.627 1.503 4.286 1.004 1.182 1.06-8.988-2.209-6.872.218-6.875-.27.207.33 1.04.34 2.721.58-.846.274-.497.68-.499.522.166 1.128 2.3-.439 6.441.815-7.349-.017-17.272.877-17.163 1.753.246 1.677 15.52-2.729 22.785.273-3.964-.196-22.041-.01-23.3 3.512.513 1.14 1.875-1.248 12.599-2.22-16.536 3.168-31.097 21.282-67.77 3.255 3.482 1.727-26.357-10.91-38.703-40.907Zm-5.486-9.056c-.045-.137-.034-.102 0 0Zm-.151-.24c.074.11.076.131 0 0Zm30.936 16.241c12.692 3.834 9.79 1.534 9.54 1.468-9.334-2.258-7.547-1.598-3.544-2.311-.193.822 2.502.218 3.089.105 19.933 6.539 21.081 5.92 2.126-.417.79-.148 1.664-.291 2.595-.405-.744 1.096 6.275 1.318 15.979 5.033 21.521 7.904 9.2 1.906-3.979-2.395 5.299.811 7.41.649-8.335-2.912.055 0 5.867-.16 6.137-.087 3.794 1.696 10.499 3.581 6.885 1.587 8.216 1.605 2.313-.678-6.864-2.897-2.243-.81-3.189-.558 1.766-1.063.336 1.587 1.027-.756 11.044 3.658.786.34 1.043-.723.533-.92-.259-.115-.499-.218-.746-.33 11.424 2.385 14.24 7.956 15.137 6.437.464-.787-5.743-4.232-6.519-4.67-7.855-4.334-8.701-3.846-2.951-2.673 15.023 9.07 28.874 13.944 3.646.809 11.53 2.766-1.777-1.336-6.052-2.975 5.416.017 4.708.264 4.708.21 17.646 9.169 21.064 13.322 21.834 12.012.495-.81-.991-1.003-3.627-2.706-17.146-11.016-19.627-9.952-9.893-8.266-.113.29.228.822.225.603 13.607 6.84 14.2 9.513 14.298 7.68-.006-.653-7.855-5.998-12.023-7.862 2.449.39 4.277.291 8.284 2.575-.678.723 5.233 6.491 5.856 5.856.213-.208-1.452-2.384-3.076-4.042 1.444.974 3.486 2.317 1.984.481 8.279 5.724 8.715 9.372 9.65 8.863.564-.306.253-.986-1.292-2.908 2.168 1.584 2.17 1.725 2.568 1.483 3.69 4.81 4.109 2.98-1.384-3.61 2.95 2.198 7.886 6.503 8.639 6.394 1.499 2.465 3.439 5.811 6.43 11.032.368.612 1.269.07.925-.533-9.925-17.128-11.964-17.905-6.524-13.01 3.68 5.885 6.054 10.2 9.853 17.497.195.379 3.809 2.784-6.902-14.702.444.306 1.101.06.316-.969 1.435 1.32 1.888 1.577 1.722 1.211 6.788 11.574 7.121 17.933 8.363 17.616 1.685-.438-6.93-18.472-9.385-20.877 5.901 5.035 8.515 10.294 9.825 16.313a168.186 168.186 0 0 0-3.771-9.13c-.27-.548-1.265-.182-.919.542-.008-1.194 5.111 12.155 6.171 17.577-.304.208.313.877-3.839-3.614-33.127-35.857-80.968-8.118-112.93-30.758 1.077.115.913-.34-2.407-1.83a48.074 48.074 0 0 1-3.552-3.188c6.011 4.607 12.89 5.786 20.386 5.018Zm19.303-3.466c1.512.984 2.57.2-4.368.832 1.458-.295 2.914-.582 4.368-.832Zm9.995-1.158c3.633-.25 2.305-.513 7.449 1.738-9.243-1.907-2.583-.193-7.449-1.738Zm9.683-.334c.002.39.995.471-1.214.007.402-.007.808-.007 1.214-.007Zm19.061 1.31c-.312.143.241.22-1.124-.154.376.051.748.1 1.124.154Zm23.745 7.247c-.695-.903-1.369-1.239 1.796.456-.415 1.313 4.717 3.898-1.796-.456Zm-10.074-4.316c.266.077 3.667 1.09 3.835 1.342-.98-.439-.381.948-.383.667 8.822 8.414-3.395-1.97-3.452-2.009Zm-2.991-.47c-.61-.604-1.224-.747 2.462.316-.1.12-.13.27-.122.407-1.664-1.064-2.215-1.014-2.34-.724Zm-5.057-1.503c3.252.647 2.215.035 5.522 3.676-1.962-1.375-3.904-2.678-5.522-3.676Zm-2.876-.526c1.129.708.92.505-.317.038-.608-.224-.816-.228.317-.038Zm12.746 7.313c-3.997-4.666-5.279-5.235.142-1.495 5.489 6.218 4.305 4.744-.142 1.495Zm7.036 3.555c-.013-.011-.028-.015-.039-.026l-.002-.007c.013.018.026.022.041.033Zm.969-.636c-.814-1.615-3.059-4.031-4.585-5.373 4.781 3.2 4.683 2.936 7.92 7.975-.882-.734-2.051-1.637-3.335-2.602Zm8.754 2.416c3.737 5.888.489.41-4.494-4.113a40.78 40.78 0 0 1 4.961 3.522c-.948-.635-.463 1.637-.467.59Zm10.339 14.045c.047.182.066.231 0 0Zm-6.934 5.488c.109.099.113.088-.049.017a.453.453 0 0 0 .049-.017Zm-3.495-2.24c4.175 1.365 1.176 1.211-1.517.274.58.056 1.267.23 1.517-.274Zm-8.362-5.762c1.686.449 1.362.259 3.492 1.605-5.214-1.588-8.9-2.093-3.492-1.605Zm-7.791-1.917c.225.41.177.27 3.093.843-2.315.15-.678.263-4.819-.65-.14-.035 1.671-.187 1.726-.194Zm4.456-.015c.238-.101.021-.155.678.158-.236-.06-.462-.11-.678-.158Zm-2.494-1.233c.242.099.236.07-.032.07.015-.016.022-.044.032-.07Zm-7.266-2.416c-2.166-.17-2.412-.055-1.001-.259.334.084.668.172 1.001.26Zm-11.011-.697c5.21-.086 5.497.203 5.544-.524 2.738.498 2.406.18-.285.973-7.654-.158-8.112.236-5.259-.45Zm-5.359.498c-4.266.154-4.893.61-2.313-.207 4.662-.278 3.61-.257 2.313.207Zm3.442-1.658a.513.513 0 0 0 .416-.34 90.8 90.8 0 0 1 2.139.231c-.659.158-4.432.454-2.555.11Zm-2.883-.488c-6.224 1.468-4.904.443-11.113 1.37 2.294-.811 1.55-.955 11.113-1.37Zm-13.526-.33c.168-.06 3.191-.063 3.378-.063-4.028.365-3.265.436-3.378.064Zm-.948.33c.019.039.022.028-.11.039.036-.011.074-.022.11-.039Zm21.024 4.235c5.159-1.748 5.503-.57 11.506-1.25.661.203.145-.169-4.353.986-2.396.05-4.921.148-7.153.264Zm23.793 6.293c-.561-.152-.276.006-.225-.394.034-.274 3.639 1.085 4.904 1.162 2.219 1.57 2.229 1.237-2.579-.165.032-.445-.17-.526-2.1-.603Zm2.206 9.384c.177 0 .215-.006 0 0Zm26.955 36.75c.038-.062.053-.084 0 0Zm-2.789 3.684c-7.766-15.123-18.549-28.505-31.805-38.501 27.262-8.232 17.73 12.5 35.695 19.118 1.838.661 5.497.755 6.91-.15-2.108 7.11-6.26 13.718-10.8 19.533Zm12.023-23.453c-.232.689-.491 1.5-.789 2.476-.997-1.907-6.575 3.248-14.48-6.745-4.904-6.128-4.834-14.143-18.741-15.326 7.104-.071 7.217 1.485 9.005 1.506 4.209 4.344 5.31 6.246 6.241 5.874 5.527 11.935 14.861 13.223 18.764 12.215Zm-1.24-1.896c.117-.01.147-.006 0 0Zm14.613-5.593c-1.046.06-3.308-12.714-6.148-7.553a.737.737 0 0 0-.599.46c-3.844 9.169-4.673 9.586-5.853 12.472-.75-.045-4.627 1.064-9.563-1.502-6.356-3.806-7.791-8.09-8.643-10.422.761-.927-.689-10.579-.7-10.633-4.319-21.208-25.098-27.334-46.151-30.955-28.274-4.48-44.927 1.89-57.35 3.336-23.145 2.735-26.019-15.314-28.993-15.626-4.255-4.46-3.63 14.723 20.012 38.994-22.295 6.344-35.287 17.513-49.479 33.048-67.772 74.459-3.31 183.24 78.291 180.946 13.815 2.679 64.209-9.117 89.501-51.423 18.587-31.405 17.831-68.95 4.607-100.898 13.876-11.553 8.615-25.942 21.916-38.47.606-.569.153-1.84-.848-1.774Z" class="Vector"/>
      <path fill="#212121" d="M206.31 114.733c.004-.082.015-.082 0 0Z" class="Vector"/>
      <path stroke="#212121" stroke-linecap="round" stroke-linejoin="round" stroke-width=".16" d="M159.933 89.64c-.013 0-.026.006-.038.01" class="Vector"/>
      <path fill="#212121" d="M155.407 90.56c0-.005-.004-.011-.006-.011.002.034-.002.034.006.01ZM122.541 77.36c.659-.298.2-1.26-.412-.987-5.025 2.213-6.405 2.81-13.02 5.33-.249.092-3.484 3.133 13.432-4.343ZM99.314 74.762c-3.049.993-4.551.79-4.296 1.703.584 2.012 14.907-5.334 4.296-1.703Z" class="Vector"/>
      <path stroke="#212121" stroke-linecap="round" stroke-linejoin="round" stroke-width=".16" d="M84.971 65.51c-.017 0-.034-.004-.048-.004" class="Vector"/>
      <path fill="#212121" d="M75.2 63.54c.125.042.15.053 0 0Zm10.879 2.541c-.004-.81-9.494-1.716-11.37-2.805-1.25-.68-.513 1.594-.517.942.984.537 11.895 3.205 11.887 1.863Z" class="Vector"/>
      <path fill="#212121" d="M80.937 64.186c.127-.52-9.653-3.6-9.872-3.48-1.926 1.267 9.691 4.333 9.872 3.48ZM171.603 72.287c2.989 3.543 2.889 1.801 2.566 1.425-3.725-4.526-2.56-.565-2.566-1.425ZM154.17 65.133c5.791 3.276 5.71 3.68 6.101 3.002.372-.652-.202-.845-5.561-3.922-1.254-.712-.538 1.57-.54.92ZM125.034 64.427c-.127-.055-.101-.038 0 0ZM125.962 97.516c.297 1.677 24.278-5.033 4.026-1.237-5.38.927-4.024 1.45-4.026 1.237ZM119.263 96.645c.156.884 9.058-.636 8.903-1.483-.145-.828-9.045.706-8.903 1.483ZM117.803 94.59c-3.184.527-3.327 1.633.196 1.053.667-.12.506-1.176-.196-1.052ZM81.636 78.515c.106.091.112.097 0 0ZM198.623 108.116c.102.055.119.059 0 0ZM203.087 105.223c.142.034.178.044 0 0Z" class="Vector"/>
      <path stroke="#212121" stroke-linecap="round" stroke-linejoin="round" stroke-width=".16" d="M148.195 54.814c.017 0 .036.004.052.01" class="Vector"/>
      <path fill="#212121" d="M171.091 79.583Z" class="Vector"/>
    </g>
    <g class="sketch">
      <path stroke="#FCE96E" stroke-linecap="round" stroke-linejoin="round" stroke-width=".16" d="M195.803 64.932c-.005 0-.008-.003-.016-.002" class="Vector"/>
      <path fill="#212121" d="M183.154 10.739c-.712 6.323-.946 4.864.127 7.28a39.22 39.22 0 0 1-.074-2.142c-.002-.256.749-.45.767-.153.015 2.504.201-.149.264-2.637-.004-.566 2.055-1.28.016 6.978.545 1.072.469.937 1.046 1.7.165-1.874.838-5.274.907-6.175.029-.29.795-.424.767-.152-.011.132-.559 7.758-.087 8.33.242-3.012 2.68-10.277 1.155-2.45.174.46.365 1.307.493 2.18.539-.193.494.147.656.608.787-7.093 1.122-1.808.531 1.53 1.26 3.509.948 2.544.997 1.527-.407-1.543-.73-3.347.364-2.905.1.04.406 2.592.383 2.81.147 2.186-.363 1.542.647 2.451.2-.748.578-2.162 1.098-4.845.058-.307 1.355-1.434-.032 3.558.486-.09.468.126.254 2.51.238.221.478.453.725.694.231-1.202.813-3.6 1.462-8.049.013-.083 1.28-2.108-.089 5.008.614-.187.312 3.653.086 4.495.157.157.314.325.475.488.657-3.827 3.9-15.57 1.875-4.644.63-2.198.229 4.7.538 5.24.268-1.064.597-2.496.999-4.427 1.165-5.542 1.464-3.496.631.84.287 1.052.152 3.645.038 4.744 2.583-5.267 1.384-6.112 2.348-6.301.723-.134.238 1.196-.402 3.429-1.304 4.387-1.907 2.583-2.028 3.531.892 1.396.387 1.602 1.133-.188.123-.276.871-.354.733-.032-.4.954-.644 1.657-.811 2.175 1.197 2.406 1.014 2.276 1.066 2.073-1.396-4.412-.558-3.173.301-1.167.606-2.415 1.736-6.76 2.581-6.16.024.023-.246 1.052-.642 2.35.062-.16.126-.254.193-.267 1.325-.272-1.837 8.814 2.315-3.513.098-.248.846-.38.732-.031-1.949 5.786-4.123 10.924-3.187 12.433 2.469-4.282 4.401-10.902 4.725-11.067.873-.46.782.133-1.644 6.25-.882 7.392-2.947 11.053.262 3.41.162-.97.374-1.664.659-1.72.165-.027-.345.8 2.812-6.155.119-.273.874-.355.732-.035-4.21 9.283-3.198 6.95-3.678 10.25 5.025-10.584 6.537-10.785-.29 1.737-.191 1.02-.4 1.912-.584 2.408.94 1.755.31 2.208 1.588-3.659.035-.144.926-1.114.494 1.52.554-.93 1.422-2.284 2.577-3.994.217-.33.899-.303.731-.035-4.967 7.358-2.705 2.88-4.324 8.297.15.322-.131.469 1.085-1.555.157-.267 1.874-1.002-.804 2.18.142.323.282.648.416.973.653-1.093 1.842-3.1 3.644-6.78.13-.28.88-.34.728-.03-3.698 7.652-2.028 2.65-3.257 9.167 1.417-2.756 4.401-8.089 5.628-11.98.083-.351 2.553-2.274-3.252 9.02-.046.454-.227 1.362-.597 2.873 5.12-8.467 4.4-10.225 5.309-9.53.89.72-3.524 7.696-5.701 11.088-.491 1.919-.499 1.395-.127 2.275 1.597-2.234 2.248-2.976 2.381-5.511.013-.277.787-.434.759-.15a7.56 7.56 0 0 1-.118.886c1.792-3.207 2.705-6.09 3.354-6.117.798-.039-2.425 5.689-3.729 7.941a98.742 98.742 0 0 1-.928 3.72c1.843-3.193 6.252-8.87 1.89-1.679.192.363-.1 1.943-.53 3.469 1.513-4.331 2.586-3.42.392.614-.784 1.358-.903 1.192-.724.47-.3.885-.617 1.618-.868 1.893.7 1.559-.315 2.025 2.689-3.157.336-.899.308-1.002.647-1.101 1.117-1.895 1.366-2.149 2.934-5.453.014-.027 2.441-2.518-2.902 6.75-2.266 6.027-2.085 5.164 1.072.341 1.75-2.831 3.261-6.183 3.367-6.45.051-.125 2.549-2.134-2.999 6.934-.143.587-.713 2.246-1.919 5.467.688-.922 5.933-9.177 6.182-9.305 1.856-.972-5.207 9.167-6.216 9.392-1.921 5.119-1.621 3.646.163 1.242.218-.506.441-1.028.674-1.584.119-.276.871-.353.727-.032-.373.888.974-.478-.805 1.903-1.499 3.482-2.974 5.814 2.59-2.278.122-.186 2.252-1.722-2.287 4.184-8.931 11.409-.086 1.897 4.834-5.648.213-.328.904-.3.733-.032-8.905 13.511-10.709 12.66-11.481 14.974 9.02-9.846 9.148-11.74 9.978-11.774.08-.004 11.964-17.508 1.884-34.114-7.764-12.984-21.548-7.09-40.227-23.427Zm-4.951-4.724c-.217 1.187-.907 3.427-1.319 4.434.315.256-.848 4.938-.749 1.42-1.368 1.808.539-2.827.972-4.432-2.507 3.296-2.2 4.635-1.442 7.837.019.09-.509 1.01-1.041-.871-.106.194-.378.264-.476.176.873 3.47 1.986 4.515 1.135 4.744.15-.043-.383.853-1.856-4.41-.525 4.217 4.68 8.51 3.566 8.972-.498.204-2.201-2.399-3.481-4.932.141.735.212 1.008-.264 1.12-.865.22-.95-1.348-.718-3.284-.255-.637-.243-1.336-.476 1.051.159.8.473 2.49 2.529 5.53 5.941 9.087-.181 1.721-2.563-2.976.157 2.374.801 3.839.698 4.408 2.038 2.907 5.103 4.654 4.499 5.034-.884.517-3.213-2.054-4.972-4.768-.582-.045-.875-.684-.977-1.64-1.086-2.002-1.612-3.75-.712-3.98 1.019-.277.14 5.285.955-.15-.854-2.128.183-2.148.357-1.996.505-2.521.302-.774.158-2.259-1.66 2.949-3.073 6.789-1.615 9.075 1.079 2.725 4.996 5.633 4.98 5.679-.393 1.2-3.799-2.34-4.987-4.02.531 2.44 1.266 3.375.492 3.327.424.416.903.898 1.433 1.468.361.379-1.121.414-.728.296-1.773-1.871-1.572-1.855-1.307-1.226 1.527 3.667-1.59.283-2.324-3.885a24.35 24.35 0 0 0-.277 1.954c.244 1.548.184 1.02.527.908.567-.19.438.125.649 1.33.686-.21-.531-.101 5.408 4.39.465.355-1.005.483-.639.374-4.994-3.782-5.402-5.419-3.942-2.157 3.816 3.69 9.42 6.207 8.44 6.502-.15.045-.526.04-.374-.007-7.575-4.183-9.299-7.015-4.135-.49 5.917 4.195 10.335 5.113 9.05 5.5-.823.248-4.438-1.732-7.901-3.982.646.974.188 1.387-1.924-1.288-2.634-1.822-4.697-3.894-.776.652 7.83 5.44 14.168 7.618 13.312 7.342 1.918.736 1.78 2.713-11.497-5.333 3.929 4.139 13.496 8.333 15.621 8.543-1.565 1.39-8.235-2.539-9.987-3.513-.726.39-1.531-.722-7.622-4.529 1.673 2.13 4.618 4.937 9.956 8.432-1.259-1.482 9.339 3.57 6.024 2.65.04-.013-7.134-2.924-4.705-1.805-.026-.015 2.075.925.913 1.118.132-.038-2.228-.744-6.606-3.98-1.299-.406-4.524-2.33-2.956-2.384-3.21-2.999-3.636-4.756-4.45-5.185-.111-.07-.056-.167.043-.251-1.235-1.967-2.235-4.892-.431 1.258.066-.157.263-.224.628-.17.391.06.159.788 3.11 4.046 9.142 10.142 20.05 10.73 17.373 11.364-.533.14-2.062-.417-3.938-1.274.913.81-.288 1.335-6.211-3.182-3.862-2.139-6.377-3.806-2.081-1.64-3.736-3.022-7.508-6.528-8.6-8.254 5.233 16.621 15.352 18.013 24.333 27.183 16.505 17.048 3.956 27.736 10.494 19.206-.373-1.204 5.641-7.316 6.863-14.263-.425.068-.271.04.06-.357.456-2.685.708-5.497.33-7.758-.394-2.579-7.035-23.33-20.081-35.019-2.587-2.345-11.09-10.981-12.877-17.557-2.331-8.378 4.428-14.954-.891-8.116Zm-4.248 7.728c.048-2.12 1.114-3.556.033-1.92-.056.332-.125.73-.208 1.194.063.191.123.43.175.726Zm-1.425.735c.392-1.384.018-.028.257.63.344-1.898.314-1.222.306-1.884-.927 1.505-.676 1.035-.563 1.254Zm-2.942 13.425c2.01 1.654-.547.61-.407-6.669-.827 2.328-1.07 2.813.407 6.669Zm-1.426 7.335c.596 3.267.304 1.84.524 1.769 1.181-.395 2.667 3.868-.524-1.769Zm-.355-2.104c.606-.185.41.09 1.183 1.728 4.177 3.609 2.338 2.325.199-1.618-1.55-1.592-2.108-5.053-1.382-.11Zm3.09 7.4c4.147 2.581 3.249 2.295.965-.34-2.027-1.287-2.379-1.912-.965.34Zm-2.31-3.143c-.004-.012.001-.01 0 0Zm21.766 32.277c-.107-.086-.085-.066 0 0Zm7.1 31.91c.113-.732.485-1.844 1.311-3.439-2.974 3.308-3.158 2.806-1.311 3.439Zm3.525-4.685c.091-.173.07-.12 0 0Zm13.84-19.113c.049.004 2.308-2.7 4.623-6.158-9.13 11.61-5.798 6.017-4.623 6.158Zm-3.793 3.61c.138-.156.188-.202.009-.025-.003.007-.004.016-.009.025Zm3.506-12.591c.025 2.88-.937 2.838 3.043-5.82-3.08 4.89-2.465 3.142-3.043 5.82Zm-.219-2.316c.831-3.135 1.211-3.038-.223-.977.086.323.161.649.223.977Zm-1.728-5.719c.785-5.45 1.173-3.505-.712-1.83.251.612.492 1.219.712 1.83Zm-1.737-4.294c1.122-4.143 1.375-3.314-.349-.88.117.299.234.595.349.88Zm-1.034-2.758c.517-2.594.833-2.282-.297-.794.098.265.205.53.297.794Zm-2.673-5.845c.256.463.172.6.233-.431l-.233.431Zm-.168-.29c.64-1.704.366-.341.601-3.203-1.197 2.89-1.265 2.017-.601 3.202Zm-1.602-2.655c.586.913.186 1.63 1.011-3.505-1.622 3.375-1.786 2.145-1.011 3.505Zm-1.833-3.284c.509-1.74.322-4.548.825-6.51-2.154 6.91-1.72 2.062-.825 6.51Zm-1.156-1.295c-.099-.312-.072-.277-.112-.24l.112.24Zm-2.425-3.732c.539 1.017.351.749.037-.21l-.037.21Zm-.567-1.048c.122-.809.148-1.746.153-2.522-.589 2.299-.635 1.638-.153 2.522Zm-.707.447c.551.583.487.605.078-.244l-.078.244Zm-.7-.734c.189.19.107.33.312-.48-.22-.5-.004-.14-.312.48Zm-2.74-2.766c-.348-2.598.007-2.057-.575-.574.188.184.384.38.575.574Zm-2.451-2.372c-.036-.91.064-.745-.212-.194.075.064.14.126.212.194Zm-4.125-4.479c.351.319.274.291.292.14-.419-1.176-.225-.847-.292-.14Zm-.983-.94c.641.64.454.668.054-.864-.089.928-.239.65-.054.864Zm-1.565-1.9c-.217-1.11.027-1.19-.298-.378.098.124.197.253.298.379Zm-5.849-15.317c-.133 1.147-.173 2.848.222 5.277.313-3.68 1.262-3.697.962-1.2.237-.611.55 1.606.636 2.152.291-2.943.149-3.187.811-3.216-.938-.82-1.962-1.715-2.631-3.013Zm.982 7.762c-.382-1.211-.232-1.262-.355-.804.11.264.229.527.355.804Zm25.093 34.908c-.115.078-.216-.265.945 2.353-.3-.786-.606-1.566-.945-2.352Zm3.575 32.47c.061-.299.158-.399-.282.324l.282-.324Zm-.106.569c-1.114.961-.167-.117-1.789 2.234 2.069-2.179 1.71-1.744 1.789-2.234Zm.643-.574c-.271.54-.862 1.218 1.514-1.465a48.665 48.665 0 0 1-1.514 1.465Zm-18.015-50.535c.013.01.023.018.03.029.041.01-.011-.01-.03-.03Zm-1.368-3.644c.034.04.019.024.012-.015a.054.054 0 0 0-.012.015Zm6.38 3.768c.208-2.553.412-2.465-.173-.245.05.065.105.148.173.245Zm-.255.067c-.44 1.574-.621 1.586-.572 1.64 1.219 1.186.665 1.163.788-1.102-.091-.211-.159-.394-.216-.538Zm16.208 31.35c.064.144.534-3.009 1.074-4.932-2.313 3.75-1.841 1.109-1.074 4.932Zm.183 11.213c.171-.747-.617 1.627 1.961-4.058-1.152 1.252-.432-.152-1.732 3.198-.604 1.723-.586 1.552-.229.86Zm15.109-31.235c4.002 28.67-22.439 38.201-30.173 58.537.121.255-.52.613-.723.589-.635.224-1.168.073-1.056.039-1.734-.721-3.449-.517-1.501-2.787 12.582-14.169 4.752-21.618-8.588-33.486-7.77-6.122-19.009-9.696-21.111-36.656-.422-5.57 5.998-19.98 14.621-28.334 3.418-3.19 1.212 3.285 1.928 5.158 1.966 4.155 14.924 12.055 21.583 14.684 9.424 3.576 22.306 3.544 25.02 22.256Z" class="Vector"/>
      <path stroke="#212121" stroke-linecap="round" stroke-linejoin="round" stroke-width=".16" d="M213.501 62.512c0 .003.006-.008.017-.041M212.822 58.56c.001 0 .006-.01.01-.038M209.473 57.48a.134.134 0 0 1 .01.023" class="Vector"/>
      <path fill="#212121" d="M207.266 28.582c-.509.135-.361-.197-.465-.69-.33-1.552-1.166-1.733-.513-2 .789-.315 1.914 2.465.978 2.69ZM205.17 27.12c-1.149.277-.636-4.796.362-.302.039.215-.514.346-.362.302ZM224.562 50.522c-.485.05-.055-3.006.865-2.451.086.06-.153 2.37-.865 2.451ZM223.586 46.14c-.025-.402 1.157-.432.673-.021-.347.294-.824.066-.673.021ZM195.751 64.93c.01 0 .01-.002.026-.006.026.007-.005 0-.026.007ZM195.791 64.928c.02.002.029.006 0 0ZM191.66 62.304c3.726 1.913 5.375 2.45 4.116 2.619-.176-.047-1.099-.377-4.752-2.244-.285-.14.3-.541.636-.375ZM194.865 60.448c-.954.292-10.452-3.775-11.845-4.436 3.489 2.68 4.728 3.498 16.603 7.596.754.251-.83.531-.494.428-1.392-.478-20.078-7.343-18.489-8.303.916-.528 5.939 3.575.115-.86-3.738-1.976-7.824-5.036-3.586-2.822-3.653-2.988-6.556-5.816-4.76-5.863.301-.012.652.763 2.151 2.43-.025-.106.012-.207.223-.293.503-.203.586.157.832.474.192.254-.263.348-.559.359 1.003 1.064 2.416 2.426 4.454 4.112 14.597 7.481 16.92 6.706 15.355 7.178ZM189.511 49.995c.453-.38.9.088 0 0ZM184.963 40.333c-.233.137-.681.104-.529.058-10.89-5.373 1.638-.705.529-.058ZM181.758 37.016c-.276-.152.316-.545.636-.373 3.848 2.008 5.848 3.792-.636.373Z" class="Vector"/>
      <path stroke="#212121" stroke-linecap="round" stroke-linejoin="round" stroke-width=".16" d="M174.583 29.046c-.005-.005-.01-.006-.014-.011M170.411 24.119l.003.01M172.789 19.994a.634.634 0 0 1 .006.02" class="Vector"/>
      <path fill="#212121" d="M203.385 73.602c4.319 2.436 2.418 2.096 2.57 2.05-1.239.207-17.033-10.124-2.57-2.05Z" class="Vector"/>
      <path fill="#212121" d="M196.703 69.981c.147-.045-2.487-.783-1.844-1.232.496-.334 3.087.984 1.844 1.232ZM206.446 72.74c.557.338-.965.517-.584.402-2.382-1.312-17.715-8.788-17.272-9.1.538-.377 17.755 8.643 17.856 8.698ZM204.918 70.418c-.431.087-3.598-2.185-9.289-4.465-.318-.136.247-.537.584-.402 12.695 5.187 8.05 5.064 8.705 4.867ZM201.94 67.39c-3.608-2.038-4.184-1.896-3.715-2.221.579-.397 3.487 1.362 4.293 1.82.582.325-.966.518-.578.401ZM190.628 55.364c10.126 4.33 14.888 7.01-.586.403-.328-.146.267-.542.586-.403ZM196.195 56.518c-1.084.197-14.417-6.535-1.609-1.145.952.41 2.907.883 1.609 1.145ZM194.021 53.952c-4.681-2.16-5.517-2.122-4.995-2.48.35-.242.239-.345 5.579 2.079.651.309-1.05.541-.584.4ZM183.968 59.103h-.003c-.022-.014.003 0 .003 0Z" class="Vector"/>
      <path fill="#212121" d="M178.532 54.623c4.364 4.48 6.319 4.73 8.792 6.22 11.093 6.797.805 1.441-3.813-1.268-5.881-3.286-12.154-12.695-4.979-4.952Z" class="Vector"/>
      <path stroke="#212121" stroke-linecap="round" stroke-linejoin="round" stroke-width=".16" d="M169.936 20.911c-.001-.002.003-.013.003-.013" class="Vector"/>
      <path fill="#212121" d="M207.003 77.374c.641.31-1.048.543-.585.404-7.473-3.754-2.361-1.801-3.264-1.146 7.231 4.485 3.735 3.962 4.127 3.844-1.751-1.662-5.416-3.835-5.374-3.832-1.53-.72-.58-.152 4.506 5.183.388.397-1.044.443-.691.335-1.78-1.86-1.359-1.634-2.354-2.65 2.964 4.282 3.006 4.445 2.208 4.53.398.9.698 1.977.649 2.04-.904 1.09-2.073-3.107-1.66-3.259.068-.027-2.01-3.393-2.479-4.639-.467-.49-.997-1.04-1.601-1.673-2.424-2.488-.833-2.113-.747-2 .573.709.314.449 1.129.838a33.998 33.998 0 0 1-1.76-1.622c-2.754-1.628-2.42-1.828-1.41-1.448-4.555-4.876 1.071.963 9.306 5.095Z" class="Vector"/>
      <path stroke="#212121" stroke-linecap="round" stroke-linejoin="round" stroke-width=".16" d="m185.107 21.636-.004-.003" class="Vector"/>
    </g>
    <g class="sketch">
      <path stroke="#FCE96E" stroke-linecap="round" stroke-linejoin="round" stroke-width=".16" d="m159.099 115.243-.008-.011" class="Vector"/>
      <path fill="#212121" d="M105.744 123.796c5.44-2.509 4.041-2.205 6.603-2.235-.539.16-1.174.363-1.955.633-.231.08-.137.66.137.578 2.261-.789-.061.186-2.28 1.023-.511.178-.414 1.827 6.291-2.215 1.161.035 1.012.025 1.906.181-1.628.711-4.448 2.26-5.234 2.595-.251.112-.097.684.138.578.115-.05 6.786-2.86 7.472-2.717-2.626 1.128-8.293 5.128-1.793 1.579.477-.027 1.309-.165 2.141-.355.021.433.31.294.784.259-6.105 2.805-1.225 1.351 1.568-.122 3.613-.249 2.633-.157 1.734.201-1.536.211-3.277.564-2.485 1.178.071.057 2.48-.546 2.667-.631 2.023-.596 1.259-.743 2.441-.336-.602.377-1.739 1.089-3.968 2.304-.256.138-.805 1.393 3.192-1.157.094.364.282.282 2.352-.626.285.094.58.186.885.28-.999.542-2.95 1.709-6.723 3.576-.07.035-1.438 1.556 4.479-1.659.051.484 3.402-.95 4.079-1.374.198.058.405.113.61.172-3.211 1.675-12.62 7.658-3.508 2.776-1.754 1.136 4.316-1.341 4.912-1.3-.862.524-2.033 1.208-3.628 2.102-4.572 2.571-2.622 2.125.984.167 1.05-.137 3.337-1.057 4.285-1.487-3.814 3.464-5.006 2.905-4.83 3.631.139.542 1.163-.217 2.943-1.372 3.482-2.299 1.642-2.14 2.452-2.526 1.578.171 1.581-.243.238.843-.205.173-.006.714.234.515a27.257 27.257 0 0 1 1.667-1.253c2.597.059 2.415-.026 2.251.075-4.475.444-3.058.627-.943.58-1.957 1.189-5.465 3.354-4.621 3.747.03.009.86-.506 1.887-1.194-.122.094-.183.168-.171.219.231 1.001 7.277-4.079-2.332 2.719-.188.146-.038.705.235.515 4.51-3.191 8.356-6.331 10.052-6.166-2.969 3.071-8.237 6.515-8.269 6.792-.1.749.401.498 5.039-3.129 6.339-2.966 8.894-5.559 3.164-.906-.815.421-1.364.789-1.312 1.003.036.123.597-.493-4.533 3.905-.203.169-.005.716.232.516 6.847-5.867 5.11-4.424 7.909-5.808-7.726 6.844-7.363 7.952 1.46-.755.851-.456 1.579-.885 1.96-1.171 1.918.09 2.099-.49-2.725 2.263-.117.071-.67.995 1.546-.143-.638.679-1.545 1.71-2.67 3.053-.22.255.05.717.231.516 4.842-5.776 1.62-2.786 5.918-5.632.344.001.375-.24-1.01 1.245-.184.194-.229 1.613 1.673-1.25.343-.005.686-.012 1.027-.023-.75.799-2.131 2.26-4.796 4.677-.205.179.009.716.235.513 5.561-4.994 1.656-2.245 7.084-5.172-1.973 1.857-5.702 5.618-8.765 7.706-.287.169-1.131 2.488 6.953-5.122.393-.177 1.146-.592 2.373-1.329-5.784 6.236-7.627 6.3-6.674 6.705.968.385 5.664-4.888 7.937-7.472 1.551-.951 1.077-.79 2.003-.814-1.438 1.816-1.872 2.502-4.108 3.402-.244.098-.108.682.138.572.172-.068.434-.195.756-.364-2.244 2.26-4.512 3.809-4.304 4.266.252.563 4.252-3.488 5.812-5.107.985-.572 2.096-1.247 3.017-1.827-2.214 2.291-5.741 7.145-.833 1.84.396.017 1.714-.689 2.934-1.472-3.357 2.426-2.151 2.876.693.075.942-.975.75-1.004.164-.65.689-.489 1.235-.942 1.393-1.203 1.655-.014 1.71-.863-1.877 2.863-.689.519-.792.533-.759.798-1.306 1.376-1.444 1.628-3.857 3.765-.019.018-1.391 2.488 5.036-4.156 4.614-3.488 3.902-3.087.693.631-1.921 2.111-4.397 4.223-4.599 4.381-.094.075-1.005 2.44 5.168-4.282.476-.286 1.766-1.208 4.233-3.068-.583.769-6.132 7.023-6.158 7.235-.209 1.592 6.384-6.519 6.224-7.286 3.92-2.959 2.701-2.282 1.177-.284-.378.312-.767.633-1.185.97-.205.171-.004.714.233.513.666-.541-.08.824 1.425-1.163 2.597-2.146 4.167-3.908-1.12 2.515-.125.143-.742 2.103 2.945-2.914 7.065-9.804 1.678-.664-3.348 5.139-.22.251.055.719.234.516 8.968-10.457 7.552-11.431 9.359-12.702-5.625 9.367-7.285 10.06-7.017 10.643.025.057-11.468 13.844-30.047 12.182-14.485-1.218-14.131-12.614-35.56-20.297Zm-6.034-1.911c.992-.528 2.761-1.719 3.52-2.325.343.136 4.142-2.16 1.009-.97 1.137-1.521-2.352 1.274-3.642 2.085 2.067-2.782 3.384-2.998 6.54-3.495.087-.016.727-.674-1.158-.441.136-.136.101-.345-.013-.385 3.438-.504 4.78-.069 4.68-.729.016.116.631-.537-4.639.125 3.61-1.708 9.347.516 9.363-.4.005-.409-2.952-.755-5.693-.83.712-.138.983-.175.914-.539-.113-.668-1.557-.226-3.216.551-.666.027-1.291.258.776-.664.777-.146 2.411-.467 5.889-.018 10.319 1.203 1.484-.674-3.602-.82 2.194-.648 3.745-.671 4.221-.924 3.35.48 6.026 2.039 6.151 1.5.148-.775-3.005-1.563-6.081-1.912-.251-.387-.931-.385-1.829-.151-2.193-.111-3.956.084-3.841.779.118.791 4.811-1.59.21.706-2.225.089-1.87.812-1.67.883-2.09 1.153-.589.456-1.978.83 2.059-2.086 5.01-4.287 7.593-4.01 2.841-.123 6.868 1.653 6.904 1.627.94-.654-3.472-1.876-5.413-2.16 2.389-.412 3.495-.203 3.174-.722.527.16 1.133.337 1.836.521.472.128-.029-.906.006-.597-2.323-.627-2.237-.494-1.575-.511 3.852-.116-.316-1.188-4.334-.365a26.93 26.93 0 0 1 1.661-.815c1.482-.325.985-.198 1.007.075.032.451.27.262 1.431.023.058.541-.282-.334 5.897 2.334.487.207.075-.848.108-.561-5.201-2.241-6.822-2-3.36-2.034 4.696 1.458 8.976 4.524 8.889 3.754-.012-.119-.153-.376-.14-.257-6.49-3.895-9.661-4.181-1.928-2.698 5.905 2.746 8.32 5.503 8.208 4.493-.073-.647-3.156-2.511-6.428-4.184 1.11.135 1.317-.313-1.851-.917-2.588-1.237-5.196-2 .308-.744 7.715 3.67 11.954 7.351 11.398 6.848 1.352 1.089 3.083.363-8.936-6.236 5.14 1.392 12.356 6.659 13.309 8.059.689-1.524-5.246-4.875-6.754-5.774.09-.625-1.2-.827-6.819-3.817 2.52.475 6.106 1.613 11.173 4.184-1.787-.397 6.573 5.307 4.552 3.313.003.031-5.197-3.993-3.317-2.673-.022-.013 1.58 1.137 1.336.274.013.104-1.471-1.301-5.959-3.291-.833-.767-3.726-2.38-3.21-1.28-3.855-1.26-5.591-.993-6.269-1.418-.104-.054-.171.014-.211.109-2.215-.224-5.209.018.978-.698-.117.096-.107.253.073.487.195.251.767-.141 4.761.857 12.421 3.076 16.872 10.419 16.48 8.369-.065-.413-1.116-1.291-2.563-2.313 1.057.372 1.1-.624-5.098-3.272-3.314-1.984-5.72-3.189-2.224-.914-4.066-1.615-8.579-3.101-10.526-3.304 16.85-1.689 21.741 4.852 33.228 8.127 21.287 5.956 26.401-6.116 21.07 1.119-1.219.126-4.562 6.227-10.379 9.287-.091-.315-.06-.2-.3.155-2.254 1.171-4.696 2.242-6.868 2.702-2.464.55-23.541 2.585-38.757-2.692-3.043-1.038-13.877-4.154-20.441-3.29-8.384 1.063-11.877 7.826-7.63 1.974Zm5.434-5.397c-1.893.709-2.803 1.903-1.718.634.279-.144.613-.319 1.001-.524.195-.017.431-.052.717-.11Zm.149-1.219c-1.105.712-.019.022.66-.023-1.585.843-.988.606-1.587.812 1.022-1.12.69-.797.927-.789Zm11.034-6.312c2.211.859.352-.573-6.153 1.845 1.799-1.313 2.149-1.635 6.153-1.845Zm6.093-3.325c3.157-.63 1.767-.377 1.781-.202.07.941 4.443.607-1.781.202Zm-2.022.426c.051.478.228.255 1.981.265 4.752 1.733 2.934.874-1.385.654-1.992-.562-5.31.157-.596-.919Zm7.775-.227c3.816 2.039 3.235 1.511.04.775-1.887-.989-2.577-1.032-.04-.775Zm-3.661-.592c-.013.001-.009.004 0 0Zm36.893 4.731c-.115-.047-.089-.038 0 0Zm31.292-5.277c-.619.311-1.487.923-2.626 2.002 1.91-3.109 1.391-3.075 2.626-2.002Zm-2.953 3.928c-.123.118-.083.086 0 0Zm-12.238 15.649c.021.033-1.603 2.455-3.884 5.156 7.173-10.005 3.335-5.921 3.884-5.156Zm1.888-3.769c-.091.145-.114.194-.02.014.006-.004.013-.007.02-.014Zm-10.08 6.437c2.603-.902 2.219-1.553-4.148 3.956 3.298-3.686 1.944-2.704 4.148-3.956Zm-2.164.587c-2.525 1.573-2.301 1.805-.961.158.322-.044.643-.096.961-.158Zm-5.772.631c-4.626 2.28-2.735 1.927-1.905.092a53.765 53.765 0 0 0 1.905-.092Zm-4.492.17c-3.328 2.096-2.49 2.007-.918.041.311-.016.62-.029.918-.041Zm-2.855.167c-2.151 1.184-1.756 1.302-.823.048.275-.018.551-.028.823-.048Zm-6.225.019c.509.029.602-.073-.305.298.111-.111.215-.211.305-.298Zm-.323-.024c-1.304.986-.175.362-2.668 1.437 2.172-1.748 1.362-1.517 2.668-1.437Zm-2.966-.259c1.033.113 1.534-.392-2.794 1.816 2.458-2.196 1.291-1.917 2.794-1.816Zm-3.617-.218c-1.384.907-3.981 1.673-5.567 2.646 5.45-3.691 1.24-1.845 5.567-2.646Zm-1.581-.385c-.317.031-.276.039-.257-.001l.257.001Zm-4.234-.484c1.11.048.801.004-.174.093l.174-.093Zm-1.147-.057c-.685.342-1.519.66-2.216.91 1.858-1.14 1.247-.961 2.216-.91Zm.149-.63c.723.194.719.143-.192.131l.192-.131Zm-.914-.249c.24.07.337-.032-.32.369-.529.007-.128.041.32-.369Zm-3.476-1.01c-2.464.588-1.85.661-.723-.213.233.07.481.143.723.213Zm-3.017-.935c-.832.265-.648.282-.251-.084.085.031.164.056.251.084Zm-5.516-1.419c.413.14.36.096.23.157-1.209.086-.844.115-.23-.157Zm-1.201-.379c.806.239.766.1-.758.313.804-.358.5-.372.758-.313Zm-2.273-.474c-1.078.204-1.062.398-.448-.085.147.028.299.055.448.085Zm-15.898.848c.986-.458 2.503-1.028 4.833-1.53-3.201 1.389-2.876 2.05-.735 1.046-.466.359 1.644-.132 2.167-.247-2.546 1.14-2.817 1.12-2.605 1.586-1.077-.386-2.25-.808-3.66-.855Zm7.344-1.798c-1.228.122-1.22.242-.851.011.277-.008.557-.01.851-.011Zm40.46 6.188c.028-.104-.317-.065 2.458-.098a76.13 76.13 0 0 1-2.458.098Zm30.528-7.889c-.248.137-.303.236.19-.298l-.19.298Zm.473-.255c.466-1.075-.164-.077 1.37-1.947-1.219 2.123-.956 1.737-1.37 1.947Zm-.285.627c.39-.359.787-.983-.775 1.513a34.55 34.55 0 0 0 .775-1.513Zm-51.989 3.683c.015.005.025.01.037.011.024.026-.013-.004-.037-.011Zm-3.774.218c.049.011.029.005-.009.013l.009-.013Zm5.687 3.202c-2.224.958-2.071 1.071-.282-.041.076.013.171.025.282.041Zm-.03-.197c1.258-.806 1.204-.935 1.271-.918 1.506.463 1.286.088-.71.895-.222.005-.411.016-.561.023Zm34.06 1.189c.152-.002-2.518 1.329-4.056 2.315 2.547-2.793.337-1.625 4.056-2.315Zm10.165-3.45c-.612.356 1.243-.945-2.95 2.648.713-1.195-.293-.25 2.257-2.216 1.335-.966 1.188-.899.693-.432Zm-22.7 20.393c27.259-6.382 26.339-27.675 41.873-39.5.273.002.365-.555.271-.687-.027-.51-.354-.83-.344-.742-1.273-.967-1.706-2.216-3.05-.147-8.238 13.205-17.762 10.175-33.245 4.752-8.307-3.41-15.566-10.03-40.602-2.881-5.168 1.485-15.839 10.513-20.263 19.131-1.645 3.376 3.394-.212 5.339-.315 4.448.032 16.221 6.457 20.982 10.216 6.609 5.365 11.211 14.267 29.039 10.173Z" class="Vector"/>
      <path stroke="#212121" stroke-linecap="round" stroke-linejoin="round" stroke-width=".16" d="M163.281 128.231c.003 0-.005.006-.03.024M159.478 129.024a.134.134 0 0 1-.03.018M157.301 127.056l.025-.001" class="Vector"/>
      <path fill="#212121" d="M130.482 134.749c-.062-.394-.307-.185-.788-.1-1.517.267-1.98-.252-1.986.283 0 .646 2.908.536 2.774-.183ZM128.412 133.769c-.164-.881-4.548 1.091-.143.346.209-.041.128-.465.143-.346ZM156.459 139.691c-.13-.35-2.727.922-1.897 1.38.085.04 2.079-.862 1.897-1.38ZM152.162 140.416c-.37.11.027.936.223.471.14-.334-.236-.591-.223-.471ZM159.08 115.207l.003.02c.014.016-.001-.003-.003-.02ZM159.091 115.236c.01.013.017.017 0 0ZM155.244 113.22c3.061 1.963 4.138 2.93 3.838 2.007-.106-.107-.734-.639-3.729-2.565-.229-.152-.38.38-.109.558ZM154.724 116.025c-.081-.752-7.157-6.012-8.254-6.762 3.669 1.553 4.85 2.148 12.81 9.038.497.441.18-.742.208-.477-.931-.808-13.831-11.519-14.125-10.115-.145.8 5.355 2.96-.732.354-3.124-1.95-7.348-3.795-3.831-1.576-4.005-1.568-7.594-2.671-6.991-1.416.097.212.921.207 2.961.71-.105.017-.182.075-.184.248-.002.411.353.354.727.423.297.052.219-.293.122-.501 1.318.353 3.053.894 5.304 1.763 11.985 7.691 12.122 9.542 11.985 8.311ZM143.385 115.664c-.178.433.403.593 0 0ZM133.048 115.605c.04-.204-.15-.503-.138-.383-8.753-5.804-.046 1.355.138.383ZM128.909 114.45c-.236-.141-.377.393-.108.559 3.192 2.016 5.518 2.827.108-.559Z" class="Vector"/>
      <path stroke="#212121" stroke-linecap="round" stroke-linejoin="round" stroke-width=".16" d="m119.151 112.039-.015-.005M113.215 110.731l.01-.001M110.354 113.689l.021-.003" class="Vector"/>
      <path fill="#212121" d="M169.633 117.711c3.747 2.205 2.757 1.001 2.77 1.12-.259-.921-15.241-8.529-2.77-1.12Z" class="Vector"/>
      <path fill="#212121" d="M163.97 114.253c.013.116-1.599-1.467-1.772-.88-.123.449 1.995 1.817 1.772.88ZM169.958 120.099c.504.277.118-.831.151-.531-2.037-1.226-14.282-9.426-14.404-9.021-.146.491 14.167 9.5 14.253 9.552ZM167.317 119.785c-.077-.325-3.262-1.787-7.361-4.988-.237-.177-.394.341-.152.531 9.235 7.109 7.455 3.942 7.513 4.457ZM163.519 118.695c-3.133-1.841-3.212-2.284-3.336-1.856-.149.526 2.481 1.973 3.183 2.383.502.297.119-.832.153-.527ZM148.622 114.722c7.54 5.608 11.665 8.042.152-.533-.249-.18-.393.357-.152.533ZM151.662 118.196c-.212-.811-11.068-7.867-1.609-.745.71.526 1.84 1.725 1.609.745ZM148.57 117.514c-3.629-2.542-3.895-3.131-4.029-2.657-.092.319-.225.275 3.878 3.189.512.351.11-.898.151-.532ZM149.595 108.931l-.001-.002c-.02-.009.001.002.001.002Z" class="Vector"/>
      <path fill="#212121" d="M143.606 106.608c5.604 1.584 6.531 2.854 8.763 4.085 10.109 5.49 1.587.096-2.513-2.227-5.074-3.012-15.803-4.341-6.25-1.858Z" class="Vector"/>
      <path stroke="#212121" stroke-linecap="round" stroke-linejoin="round" stroke-width=".16" d="M110.155 111.426c-.003 0-.011.007-.011.007" class="Vector"/>
      <path fill="#212121" d="M174.331 119.006c.509.344.112-.897.153-.533-6.067-3.962-2.47-1.056-2.205-1.888 6.639 3.561 4.911 1.315 4.946 1.623-2.126-.678-5.401-2.516-5.383-2.487-1.198-.827-.346-.352 6.288 1.457.496.141.023-.862.052-.584-2.314-.636-1.959-.417-3.233-.779 4.923.68 5.085.656 4.874.079.955-.013 2.032-.149 2.07-.203.657-.972-3.542-.44-3.531-.107 0 .056-3.778-.305-5.069-.231l-2.083-.572c-3.111-.879-2.202.099-2.069.122.844.17.517.074 1.161.513a36.145 36.145 0 0 0-2.094-.698c-2.456-1.381-2.516-1.088-1.811-.511-6.029-1.589 1.252.432 7.934 4.799Z" class="Vector"/>
      <path stroke="#212121" stroke-linecap="round" stroke-linejoin="round" stroke-width=".16" d="m116.261 121.667-.004-.001" class="Vector"/>
    </g>
  </g>
</svg>
